<svg width="65" height="6" viewBox="0 0 65 6" fill="none" xmlns="http://www.w3.org/2000/svg">
<g clip-path="url(#clip0_82199_2610)">
<path d="M55.1089 3.28955C55.1177 3.30232 55.1229 3.3165 55.1242 3.3311C55.1183 3.32541 55.1138 3.31878 55.1112 3.31163C55.1086 3.30448 55.1078 3.29696 55.1089 3.28955Z" fill="#202020"/>
<path d="M47.8623 3.32324L47.9457 3.34586C47.8852 3.34058 47.8701 3.33302 47.8623 3.32324Z" fill="#202020"/>
<path d="M59.4556 3.33221C59.4556 3.33221 59.4553 3.32622 59.4453 3.32251L59.7517 3.32381L59.4556 3.33221Z" fill="#202020"/>
<path d="M41.1436 3.25928L41.2409 3.26251C41.2084 3.26494 41.1757 3.26385 41.1436 3.25928Z" fill="#202020"/>
<path d="M47.7855 3.08774C47.7475 3.06976 47.705 3.05901 47.6611 3.05628C47.7225 3.05354 47.7695 3.0592 47.7855 3.08774Z" fill="#202020"/>
<path d="M61.763 2.67798L61.6426 2.73837C61.6438 2.70935 61.6858 2.68517 61.763 2.67798Z" fill="#202020"/>
<path d="M63.2646 1.52503C63.2711 1.52412 63.2778 1.52393 63.2843 1.52447C63.2844 1.52747 63.2758 1.52671 63.2646 1.52503Z" fill="#202020"/>
<path d="M63.9502 2.36203C63.927 2.39263 63.9016 2.42206 63.874 2.45016C63.8994 2.41045 63.9156 2.35802 63.9502 2.36203Z" fill="#202020"/>
<path d="M63.835 2.47634L63.8739 2.43726C63.8577 2.4617 63.8475 2.48198 63.835 2.47634Z" fill="#202020"/>
<path d="M0.775205 3.47861C0.653234 3.47598 0.53326 3.45284 0.422852 3.41064L0.775205 3.47861Z" fill="#202020"/>
<path d="M31.0415 3.19189L31.0684 3.21612C31.0434 3.20783 31.0394 3.19995 31.0415 3.19189Z" fill="#202020"/>
<path d="M0.595011 3.08691L0.505859 3.10244C0.534126 3.09279 0.564362 3.08753 0.595011 3.08691Z" fill="#202020"/>
<path d="M59.4654 2.56838C59.3398 2.50697 59.0803 2.56731 59.084 2.51123C59.2175 2.52544 59.4078 2.48705 59.4654 2.56838Z" fill="#202020"/>
<path d="M28.9109 1.64817L28.8271 1.64555C28.8551 1.64433 28.8832 1.64521 28.9109 1.64817Z" fill="#202020"/>
<path d="M0.595703 3.08895L0.698287 3.07104C0.689652 3.08203 0.679799 3.09234 0.668852 3.10187C0.645675 3.09389 0.620865 3.08951 0.595703 3.08895Z" fill="#202020"/>
<path d="M19.9434 3.33447L20.1077 3.3518C20.0521 3.36042 19.9945 3.35435 19.9434 3.33447Z" fill="#202020"/>
<path d="M0.422692 3.42746L0.22168 3.38818C0.290621 3.39355 0.358289 3.40677 0.422692 3.42746Z" fill="#202020"/>
<path d="M13.9307 3.36714C13.9565 3.36641 13.9823 3.36568 14.0072 3.37297C13.9815 3.37493 13.9555 3.37296 13.9307 3.36714Z" fill="#202020"/>
<path d="M48.1875 3.07023C48.2072 3.06967 48.2327 3.06295 48.2547 3.05933C48.2627 3.07309 48.2581 3.08222 48.1875 3.07023Z" fill="#202020"/>
<path d="M44.3148 2.04847C44.2049 2.05181 44.097 2.02455 44.0088 1.97119C44.1181 1.97107 44.2248 1.99803 44.3148 2.04847Z" fill="#202020"/>
<path d="M43.5801 1.99334L43.6167 1.9873C43.605 1.99082 43.5926 1.99286 43.5801 1.99334Z" fill="#202020"/>
<path d="M47.1876 1.97217C47.1614 1.9845 47.1325 1.99277 47.1025 1.99657C47.1285 1.98378 47.1575 1.97547 47.1876 1.97217Z" fill="#202020"/>
<path d="M33.0161 1.42154C33.8564 1.44868 34.9447 1.54975 35.7768 1.53014C36.0008 1.60947 36.2427 1.64993 36.487 1.64893L36.5151 1.53019L36.7358 1.5699C36.8266 1.53435 36.5662 1.54673 36.7255 1.50223L36.8087 1.57683C36.8266 1.53435 37.3774 1.5537 37.0069 1.46426L37.8686 1.4738C38.059 1.4684 37.9785 1.57063 38.1892 1.54767C38.232 1.51347 38.1143 1.5228 38.1309 1.48035C38.7624 1.40046 38.8586 1.72059 39.4471 1.6739L39.3972 1.65733C39.4971 1.69048 39.6877 1.68907 39.6897 1.70601C39.6136 1.82511 39.5847 1.64002 39.4043 1.7081C39.4184 1.80766 39.627 1.76576 39.6155 1.84205C39.7531 1.80716 39.8344 1.86583 39.954 1.87343C40.1593 1.81263 40.453 1.85927 40.6072 1.78393C40.7331 1.85856 40.8797 1.90692 41.0341 1.92475C41.1895 1.84837 40.9988 1.84879 41.2092 1.81983L41.2425 1.87886C41.4145 1.87397 41.3879 1.85574 41.3818 1.82793C41.5664 1.82869 41.5342 1.91056 41.7653 1.87702L41.6397 1.81761C41.7983 1.8371 41.959 1.84226 42.119 1.833C42.1175 1.79906 42.0179 1.79988 41.9481 1.80786C42.0786 1.7232 42.1689 1.84957 42.2387 1.8416C42.2189 1.86715 42.0532 1.87585 42.1332 1.93455C42.2559 1.92607 42.3829 2.01842 42.4686 1.95102L42.343 1.89261C42.5913 1.94255 42.4693 1.96799 42.7565 1.95085C42.7415 1.94628 42.7483 1.93209 42.7428 1.91925C42.9209 1.99716 43.1556 1.93353 43.4201 1.93302L43.3702 1.91645C43.477 1.93841 43.5346 1.99175 43.5923 1.98811C43.4411 2.01939 43.4824 2.03721 43.4676 2.09161C43.6678 1.99797 43.7704 2.20896 44.0967 2.15772C44.0952 2.12378 44.0147 2.08208 43.9238 2.11565C43.8151 2.01878 43.8014 1.92921 43.6036 1.87984C43.7278 1.90531 43.8712 1.92123 43.8423 1.87907L43.8795 1.97197C43.9547 1.97583 44.0135 1.96817 44.0703 1.97256C44.1011 2.03165 43.918 2.06583 44.0908 2.10691C44.2854 2.14037 44.1963 2.01396 44.2264 2.05609C44.494 2.09747 44.3352 2.15295 44.5988 2.13148C44.5726 2.12323 44.5227 2.10665 44.5009 2.11527C44.6864 2.08102 44.956 2.14034 45.0128 2.03078C44.9859 2.00555 44.9807 1.97172 44.9109 1.97969L44.9117 1.99666C44.7099 1.91143 45.0813 2.02184 45.0191 1.92065C45.0032 1.98007 45.2674 1.97258 45.3827 1.96431L45.345 2.03135C45.7319 2.24427 45.3269 1.89593 45.7098 1.93104C45.9581 1.98197 45.617 1.94767 45.7657 1.99942C45.9188 1.96455 46.0786 1.95357 46.2367 1.96707C46.3045 1.94116 46.4434 1.90823 46.4561 1.83191C46.6027 1.86573 46.9041 1.8072 46.9874 1.8838C46.734 1.94197 46.7376 1.79793 46.4414 1.89129L46.5222 1.96697C46.7235 1.98488 46.926 1.99149 47.1284 1.98675C47.0995 2.00057 47.0868 2.01992 47.1047 2.0364C47.3167 2.09189 47.537 2.12364 47.7596 2.13077C47.7986 2.0637 47.634 2.07136 47.5106 2.06287C47.6943 2.01268 47.7014 2.06346 47.985 2.04941C48.0009 1.98999 47.7942 2.04883 47.7634 1.98973L48.0758 2.01585C48.0751 2.01189 48.0749 2.00787 48.0753 2.00387C48.1189 2.10259 48.3137 1.99711 48.5048 2.03467C48.9581 2.0458 49.0242 2.18186 49.274 2.26873C49.3418 2.24381 49.3629 2.21923 49.3347 2.19304C49.2221 2.23422 49.2426 2.19565 49.2047 2.17274C49.3579 2.18738 49.5417 2.08422 49.4574 2.04163C49.705 2.07658 49.3685 2.09213 49.5165 2.12691L49.85 2.12944C49.8091 2.17958 49.6913 2.18692 49.8629 2.22903C49.9974 2.24164 50.1329 2.24548 50.2682 2.24052C50.2413 2.2153 50.3301 2.1648 50.1874 2.16385C50.2359 2.15189 50.287 2.14889 50.3371 2.15508C50.3872 2.16127 50.4349 2.17649 50.4768 2.19962C50.2682 2.24052 50.8162 2.25296 50.6595 2.32738L50.8681 2.28648C50.8202 2.28784 50.8162 2.25197 50.744 2.26001C50.8047 2.18432 50.9136 2.28618 50.9916 2.29597C51.0648 2.28289 51.2555 2.28148 51.2715 2.25204C51.3142 2.26349 51.3595 2.26689 51.4041 2.26199C51.4486 2.25709 51.4912 2.24401 51.5286 2.22376C51.6254 2.242 51.5308 2.27467 51.5626 2.29976L51.895 2.30233C51.9141 2.2598 51.9447 2.14199 51.8959 2.12438C52.0208 2.16781 51.9371 2.25215 52.1278 2.25274C52.0208 2.16682 52.3813 2.19557 52.2256 2.09304C52.4171 2.04399 52.6214 2.03819 52.8167 2.07627C52.9205 2.14529 52.631 2.10752 52.6388 2.17527C53.1191 2.21462 53.1407 2.40192 53.4966 2.38083L53.405 2.39642C53.5194 2.40859 53.629 2.44172 53.7254 2.49329C53.6676 2.40797 53.9818 2.27611 54.3436 2.30583C54.3725 2.34899 54.1388 2.3796 54.1959 2.44795L54.4355 2.46815C54.4537 2.46263 54.4272 2.44739 54.3959 2.43528C54.6104 2.47218 54.8003 2.33885 54.8587 2.43915L55.0814 2.32388L54.9937 2.37335C55.0226 2.41551 55.2634 2.43566 55.3121 2.45327C55.3887 2.47637 55.4706 2.4858 55.5522 2.4809C55.6337 2.476 55.713 2.45689 55.7846 2.42487C55.7405 2.45811 55.6303 2.5292 55.8245 2.55268C55.8273 2.41667 56.2327 2.51612 56.2295 2.44124C56.3072 2.44603 56.4483 2.40904 56.4544 2.46485L56.4446 2.38016C56.4583 2.49872 56.744 2.50361 56.9618 2.53241C56.9179 2.37073 57.2014 2.5536 57.3036 2.41177C57.3403 2.52168 57.6899 2.46878 57.7247 2.56275C57.8925 2.57398 57.8795 2.47239 57.9236 2.43916L58.0006 2.48295C58.1946 2.44311 58.3931 2.41906 58.593 2.41117L58.7635 2.51329L58.8306 2.4724C58.8575 2.49763 59.0023 2.51751 58.9102 2.55011L59.0049 2.54742C59.0094 2.65225 59.1367 2.58066 59.3235 2.63234C59.3684 2.61707 59.3574 2.59139 59.321 2.57543C59.4147 2.57778 59.3766 2.52288 59.4293 2.4894C59.3615 2.51431 59.7615 2.68988 59.5047 2.72715C59.4857 2.76967 59.6312 2.80553 59.7265 2.79083L59.7865 2.69917L59.8931 2.80309C60.0379 2.82198 60.1019 2.76519 60.2197 2.75785C60.0962 2.74736 59.9653 2.56515 60.2699 2.5805C60.1571 2.561 60.0484 2.5284 59.9471 2.48371C60.011 2.4819 60.0438 2.47397 59.9448 2.4308C60.1851 2.46896 60.0237 2.49153 60.2621 2.51276C60.2523 2.42807 60.3201 2.40316 60.5296 2.38222L60.3721 2.43867C60.3787 2.44888 60.3889 2.45728 60.4014 2.46282C60.3414 2.46952 60.3248 2.48299 60.3114 2.51436C60.358 2.51303 60.5845 2.62855 60.6254 2.57841C60.3846 2.70219 61.0413 2.69356 60.8798 2.77111C60.9067 2.79633 61.0732 2.8066 61.0911 2.76511C60.8937 2.69574 61.2434 2.67283 61.2076 2.61287C61.2813 2.63877 61.0502 2.67131 61.1488 2.7055C61.2458 2.70525 61.3406 2.68207 61.4216 2.63879L61.3729 2.62218L61.556 2.588C61.5861 2.63012 61.378 2.65602 61.5465 2.68123C61.5912 2.66396 61.7596 2.68817 61.7545 2.65433C61.6744 2.59563 61.7339 2.51898 61.5905 2.50306C61.7139 2.51155 62.0835 2.52306 61.9331 2.60129L62.0744 2.59728C61.9861 2.63277 61.7365 2.69482 62.0213 2.70774L62.0206 2.69076L62.2189 2.75411L62.3044 2.7097C62.3053 2.73067 62.3344 2.75083 62.4069 2.74877C62.4255 2.72326 62.4952 2.71228 62.4876 2.67852C62.703 2.6804 62.6691 2.72234 62.7009 2.74643C62.8057 2.75045 62.8381 2.73154 62.7868 2.68302C62.8945 2.66997 63.0817 2.67465 63.1129 2.5998C63.2653 2.59548 63.0994 2.62817 63.2161 2.65285C63.2121 2.55901 63.2923 2.50676 63.3674 2.42166C63.4536 2.33844 63.5143 2.23977 63.5445 2.13377C63.7149 2.2059 63.5705 2.08105 63.7236 2.03673C63.7001 2.06338 63.6583 2.00659 63.6201 1.97669C63.5819 1.94679 63.5496 1.93871 63.5374 2.02702C63.5399 1.9907 63.5383 1.95428 63.5327 1.9182C63.4738 1.89189 63.4721 1.93791 63.4601 1.97523C63.4482 2.01256 63.42 2.04234 63.3494 2.00337C63.3474 1.95844 63.3811 1.91051 63.3923 1.85721C63.4045 1.82986 63.4044 1.79988 63.392 1.77259C63.3795 1.74531 63.3556 1.72249 63.3244 1.70821C63.2629 1.79591 63.2726 1.62072 63.2015 1.7117C63.1885 1.75205 63.2246 1.76302 63.2394 1.79158L63.2062 1.79253C63.1163 1.7331 63.1204 1.71499 63.151 1.68114C63.1815 1.64729 63.2381 1.6177 63.1937 1.55899C63.032 1.48861 63.0037 1.57637 62.9745 1.61118C62.9037 1.60619 62.8373 1.58119 62.7869 1.54054C62.889 1.62561 63.0618 1.55373 63.0306 1.48565C62.876 1.55301 62.6925 1.40528 62.6346 1.34795C63.0156 1.33714 62.8731 1.39916 63.2515 1.38742C63.2683 1.43493 63.1993 1.48886 63.3703 1.54498C63.3186 1.45849 63.424 1.50747 63.465 1.51631C63.3846 1.53558 63.5401 1.60313 63.5437 1.65901C63.6269 1.67564 63.6108 1.50118 63.7595 1.63989L63.6949 1.6847L63.6267 1.72762C63.6817 1.77704 63.726 1.66183 63.7604 1.80479C63.7994 1.70973 63.9137 1.79245 63.8102 1.58948C63.8706 1.62209 63.9179 1.66845 63.946 1.72277C63.9742 1.77708 63.982 1.83694 63.9685 1.89484C63.9355 1.98999 63.893 2.08279 63.8414 2.17232C63.8529 2.154 63.875 2.15338 63.8878 2.13502C63.8513 2.18523 63.8254 2.24001 63.8111 2.29713C63.8168 2.4299 63.9097 2.21437 63.9482 2.25126L63.922 2.35895L63.8784 2.46014C63.8786 2.46613 63.8787 2.46813 63.8874 2.46888C63.8414 2.51617 63.7925 2.55254 63.8212 2.58971C63.8919 2.57032 63.9597 2.54459 64.0234 2.513C63.9561 2.5811 63.8755 2.63978 63.7848 2.68669C63.8539 2.69073 63.7049 2.88887 63.8645 2.76739L63.8197 2.81265C63.7901 2.83848 63.7458 2.86672 63.7003 2.897C63.6413 2.93347 63.5784 2.96569 63.5125 2.99328L63.5371 3.07855C63.4235 3.09876 63.4144 3.08702 63.5254 3.03689C63.4035 3.08001 63.2696 3.09622 63.1374 3.08389C62.9971 3.08287 62.8911 3.07688 62.9488 3.1612C62.5883 3.10346 62.4923 3.13117 62.0978 3.08539C62.3977 3.16384 61.7551 3.18407 62.0729 3.22104C61.8862 3.25732 61.8478 3.16545 61.7007 3.14963C61.5632 3.18452 61.6234 3.26877 61.7724 3.30153L61.5972 3.26052L61.5979 3.27749L61.4469 3.2268C61.2851 3.26937 61.4111 3.31178 61.2454 3.31948L61.2113 3.24348L61.0975 3.28469C61.1403 3.25149 61.0424 3.23328 60.9226 3.22468L60.9234 3.24165L60.7774 3.22281C60.921 3.27271 60.6438 3.23559 60.7077 3.29075C60.5895 3.29076 60.4715 3.28308 60.3548 3.26778L60.3957 3.21764C60.103 3.16297 60.3805 3.29404 60.1417 3.28982L60.1588 3.23136C59.8119 3.31816 59.5794 3.14784 59.3249 3.20804C59.4684 3.22695 59.4295 3.29403 59.4275 3.27709C59.1582 3.26585 58.8913 3.23018 58.6318 3.17072C58.5468 3.2541 58.5255 3.27369 58.292 3.30831C58.1241 3.29707 58.0991 3.28779 58.0428 3.23641C57.8791 3.26404 57.575 3.2027 57.5642 3.26498C57.5275 3.21405 57.4167 3.26917 57.3287 3.22469L57.3088 3.24924L57.326 3.19078C57.0322 3.31306 56.8409 3.09759 56.544 3.20297L56.5939 3.22054L56.4697 3.19308C56.4499 3.21863 56.4986 3.23624 56.5038 3.27008L55.9325 3.2603L56.0464 3.22008C55.9229 3.20959 55.8477 3.14975 55.7088 3.18168C55.9343 3.27524 55.5192 3.17906 55.4803 3.24614L55.6045 3.2736C55.438 3.26333 55.438 3.26333 55.4526 3.20394C55.2361 3.1761 55.2996 3.30823 55.1024 3.24186L55.2452 3.24381C55.2881 3.21061 55.1874 3.15849 55.0926 3.15718C55.0696 3.16583 55.0017 3.18974 55.0735 3.1997C54.9037 3.17153 54.6451 3.19386 54.5714 3.16797C54.4785 3.1836 54.5075 3.22676 54.5562 3.24436C54.193 3.1807 54.3903 3.24907 54.0259 3.18744L54.0274 3.22138L53.9024 3.17695L53.7207 3.24308L53.7866 3.20123C53.6766 3.18102 53.5635 3.17379 53.451 3.17976L53.5061 3.23117C53.1686 3.19277 53.1117 3.30233 52.7921 3.22244C52.7703 3.23106 52.8191 3.24866 52.8453 3.25692C52.5485 3.16538 52.6174 3.33835 52.3201 3.23383C52.3381 3.25131 52.3045 3.27126 52.3162 3.28592L52.1805 3.24879L52.1834 3.31667L52.0744 3.21382L51.9887 3.28122L51.9368 3.2477C51.7872 3.37289 51.5835 3.27072 51.382 3.3634L51.419 3.27939C50.9188 3.09367 50.2653 3.3471 49.6594 3.24934L49.6685 3.31705L49.4187 3.23118C49.2831 3.28101 49.4976 3.29091 49.4547 3.32412C49.187 3.27973 49.3457 3.22126 49.0333 3.19414C48.8726 3.23568 49.0872 3.24558 49.1596 3.27152C48.8538 3.21808 48.5404 3.19905 48.2283 3.21498C48.2279 3.20599 48.2113 3.19347 48.2272 3.19002C48.0055 3.17072 47.7823 3.16435 47.5595 3.17098C47.5608 3.20192 47.6177 3.20831 47.6709 3.21579C47.5888 3.2294 47.5038 3.22527 47.4243 3.2038L47.5044 3.2635C47.3385 3.2682 47.0223 3.2112 46.9846 3.27824C47.0044 3.25269 46.9973 3.20192 46.8583 3.20186C46.7778 3.3041 46.4709 3.14988 46.243 3.20033C46.2699 3.22555 46.4377 3.23479 46.3897 3.23515C46.2785 3.24507 46.1665 3.22392 46.0721 3.17519L46.1022 3.21731L45.5702 3.14845C45.4897 3.25068 45.0671 3.12174 45.1023 3.1977C44.9116 3.19712 45.2629 3.15616 45.0223 3.139C44.9576 3.18082 44.8046 3.11319 44.8137 3.1809L44.8386 3.18919L44.671 3.18095L44.776 3.24894C44.6313 3.23206 44.5263 3.16407 44.5241 3.11415C44.3866 3.14904 44.1919 3.11458 44.1281 3.17436L44.1792 3.19091C43.7939 3.15786 43.5382 3.36202 43.2365 3.24364C43.2135 3.25228 43.2167 3.26919 43.2635 3.26886L43.0248 3.26864L43.0811 3.31901L42.6887 3.23519L42.6901 3.26913C42.4296 3.27652 42.0226 3.25409 41.6885 3.23758L41.7384 3.25415C41.3741 3.19552 41.3852 3.28017 41.1225 3.23864C41.1294 3.24606 41.1392 3.25141 41.1502 3.25384L40.9039 3.24884L40.9571 3.28231C40.7804 3.20736 40.4466 3.37076 40.5572 3.31065C40.4561 3.27754 40.2833 3.23646 40.2544 3.1943C39.992 3.18675 40.1898 3.23711 40.0273 3.26371C39.8381 3.26908 39.8046 3.20606 39.5474 3.23335L39.5489 3.26729C39.4255 3.25979 39.3543 3.23483 39.1866 3.22759L39.2366 3.24416C38.9639 3.16993 38.8949 3.33882 38.6817 3.18893C38.5672 3.21517 38.3496 3.19036 38.3599 3.25904C38.0195 3.21072 37.7552 3.18723 37.4167 3.15585C37.3624 3.26634 37.3438 3.14793 37.1385 3.20973L37.1544 3.1503C36.6765 3.13787 36.1264 3.27942 35.5999 3.25237L35.5852 3.31176L35.4802 3.24577C34.9128 3.26987 34.1788 3.28269 33.7261 3.28354C33.5316 3.22422 33.3248 3.19614 33.1172 3.20086L33.1422 3.20915C32.7142 3.16475 32.2818 3.15492 31.8514 3.1798C31.8796 3.20498 31.8348 3.22225 31.8847 3.23882C31.7786 3.17287 31.6225 3.23427 31.5266 3.23599L31.6391 3.19182C31.5778 3.172 31.5112 3.16532 31.4458 3.17243C31.3804 3.17953 31.3183 3.20019 31.2656 3.2324L31.0635 3.16816C31.0502 3.17454 31.0297 3.18312 31.0277 3.19317L31.0091 3.16271L30.903 3.24069C30.853 3.22411 30.5864 3.20369 30.5032 3.12809C30.4834 3.15364 30.296 3.17394 30.4418 3.1888L29.7045 3.20972L29.8189 3.18148C29.8324 3.12213 29.6118 3.0874 29.4985 3.11261C29.6482 3.16034 29.512 3.19719 29.4474 3.241C29.3476 3.20884 29.5338 3.18857 29.4807 3.15609C29.3339 3.114 29.1764 3.10266 29.0228 3.1231L29.0976 3.14697C28.9269 3.12482 28.8551 3.22881 28.6814 3.22375C28.5305 3.17605 28.4192 3.22119 28.4492 3.11838C28.2306 3.0976 28.3661 3.18771 28.2952 3.19772C28.222 3.17713 28.1442 3.16966 28.0672 3.17581C27.9901 3.18197 27.9156 3.2016 27.8488 3.23337C27.728 3.08387 27.2618 3.28801 27.217 3.16234L27.0392 3.23335C27.0306 3.19825 27.0071 3.1667 26.9729 3.14413C26.9387 3.12157 26.8959 3.1094 26.8518 3.10973C26.7156 3.14658 26.7489 3.2056 26.7073 3.23977L26.6133 3.11449C25.8267 3.24876 24.786 3.16633 23.9248 3.28472C23.4865 3.24035 23.0449 3.21949 22.6032 3.22226L22.6531 3.23784L22.2069 3.27648L22.5303 3.21533C22.4426 3.19585 22.3526 3.18433 22.2618 3.18097C21.6848 3.26452 21.0972 3.28858 20.5128 3.25257C20.118 3.11284 20.2552 3.38383 19.8792 3.28254C19.9118 3.29561 19.9237 3.31626 19.9526 3.32944C19.6054 3.2987 19.261 3.25005 18.9214 3.18377C18.9718 3.32627 18.6581 3.18324 18.697 3.25811L18.6613 3.20015C18.5718 3.23667 18.3609 3.25265 18.3922 3.29374L18.212 3.22389L18.1986 3.28424C17.9626 3.29093 17.4589 3.25125 17.3326 3.37478C16.5859 3.31539 15.8339 3.31396 15.0869 3.37051C14.93 3.32892 14.7647 3.31256 14.6001 3.32235L14.4237 3.39733C14.2531 3.37918 14.0685 3.29345 13.9119 3.34188C13.9128 3.34596 13.915 3.34976 13.9184 3.35285C13.9218 3.35594 13.9262 3.35818 13.9311 3.35932C13.7632 3.37458 13.5932 3.3638 13.4302 3.32756C13.241 3.33292 13.0632 3.37695 13.1177 3.44137C13.0954 3.32406 12.7164 3.46675 12.7164 3.46675L11.1579 3.53395C10.2086 3.57488 8.91636 3.62453 7.55067 3.65428C5.22524 3.7894 2.88876 3.7257 0.579711 3.46421C0.496158 3.40961 0.273369 3.37895 0.35393 3.30669C0.182212 3.29057 0.111713 3.39653 0.0735858 3.33964C0.304087 3.29211 -0.00662787 3.19098 0.216313 3.11069L0.0695167 3.10186C0.0370349 3.0618 0.270572 3.14213 0.230486 3.06831L0.276903 3.17494C0.359956 3.16793 0.437626 3.13824 0.497215 3.09073C0.610846 3.12948 0.688431 3.27421 0.949811 3.20083L0.877048 3.1969C1.09333 3.19076 1.00549 3.12229 1.04896 3.10306L1.00103 3.10442L1.18051 3.04335C1.0445 3.0852 0.809736 3.00489 0.93284 3.0064C1.18831 2.96717 0.867639 3.03524 1.0574 3.04185C1.18029 3.03836 1.14115 2.9865 1.13355 2.95273L1.3486 2.94663C1.33904 2.89592 1.20605 2.95067 1.2912 2.89928L1.56502 2.94349C1.60864 2.81331 1.86253 2.99502 1.98018 2.86974C1.78354 2.84633 1.99554 2.82632 1.96183 2.7863L2.43987 2.77274C2.48457 2.75348 2.31531 2.73729 2.38561 2.74129C2.47378 2.7028 2.53559 2.76702 2.58348 2.76466C2.62253 2.72857 2.93986 2.75455 2.92265 2.66908C3.24455 2.60098 3.06488 2.772 3.36377 2.71254C3.40086 2.65951 3.11752 2.70853 3.25529 2.65065L3.56939 2.65873C3.5509 2.63393 3.5235 2.61432 3.49087 2.60256C3.45825 2.5908 3.42197 2.58744 3.38693 2.59294C4.05794 2.41853 4.75108 2.30632 5.45314 2.25845C5.55985 2.19345 5.37273 2.21975 5.29359 2.18201C5.85863 2.24595 6.07671 2.02386 6.55501 2.01629L6.5658 2.06696C7.29668 1.95299 8.03812 1.88949 8.78219 1.87714L8.69398 1.91462C8.8224 1.95096 8.95616 1.97338 9.0918 1.9813C9.10912 1.95482 8.99746 1.87603 9.2171 1.89079C9.17241 1.91005 9.08105 1.93163 9.10912 1.95482C10.1246 1.82785 11.1482 1.74875 12.1749 1.71792C13.6149 1.72705 15.1717 1.59392 16.586 1.60578C16.3706 1.60489 16.4682 1.72906 16.6268 1.69758C17.0653 1.47923 17.3981 1.72068 17.8517 1.56887C18.626 1.52417 19.4035 1.52986 20.1766 1.58588L20.19 1.52552C20.3033 1.49732 20.3358 1.53838 20.4553 1.54299L20.4546 1.52602C20.7377 1.49999 21.0822 1.55719 21.2445 1.52659L21.256 1.59424C21.4248 1.59845 21.3423 1.54081 21.5162 1.57786L21.5147 1.54392L21.7179 1.60512C21.6956 1.48681 22.1935 1.59163 22.3301 1.53578C22.6491 1.57467 22.9719 1.58861 23.2941 1.5774C23.3542 1.51672 23.7601 1.5142 24.0184 1.48189C24.5221 1.49359 25.2426 1.50913 25.8837 1.48295L25.8734 1.5592L26.041 1.56345C26.0402 1.54648 26.0608 1.5379 26.0395 1.5295C26.1686 1.44188 26.4257 1.55553 26.5599 1.50075C26.4756 1.57011 26.4374 1.51222 26.3476 1.51377C26.2102 1.55065 26.3425 1.62386 26.5279 1.58562L26.5272 1.56864L26.652 1.60908C26.6654 1.54973 26.7798 1.52149 26.7945 1.46211C27.291 1.5125 27.7904 1.54138 28.2907 1.5486C28.2313 1.48232 28.6999 1.56498 28.5842 1.44932C28.9256 1.49261 28.5292 1.54284 28.6852 1.62437C28.7799 1.62169 28.8809 1.6538 28.8975 1.61135C28.852 1.58365 28.9745 1.5412 28.894 1.53049L29.122 1.53901C29.1438 1.5304 29.0939 1.51382 29.0677 1.50657C29.5332 1.57233 29.8912 1.42923 30.3088 1.49835C30.3402 1.54044 30.1432 1.50904 30.1746 1.55213C30.5942 1.64018 30.5405 1.47778 30.9369 1.5395L30.8557 1.48183C30.9126 1.51202 30.977 1.53162 31.0443 1.53921C31.1117 1.5468 31.1802 1.54221 31.2451 1.52576C31.2816 1.45776 31.068 1.46981 30.968 1.43367C31.1106 1.42962 31.472 1.45036 31.3626 1.51143C31.5334 1.53457 31.596 1.47383 31.6875 1.45524C31.6882 1.47221 31.5283 1.50074 31.628 1.53189C31.9187 1.50114 32.2118 1.48781 32.5048 1.49202C32.5041 1.47505 32.5215 1.44957 32.5026 1.44111C32.7265 1.5537 32.7015 1.40148 33.0161 1.42154Z" fill="#202020"/>
<path d="M48.2006 2.00127L48.0411 2.01179C48.0402 1.99182 48.0392 1.96787 47.9619 1.94507L48.2006 2.00127Z" fill="#202020"/>
<path d="M42.743 1.92922C42.723 1.92214 42.7041 1.91329 42.6865 1.90283C42.7249 1.90774 42.7378 1.92137 42.743 1.92922Z" fill="#202020"/>
<path d="M41.4119 1.77588C41.5359 1.79835 41.4249 1.82049 41.3606 1.8423C41.3586 1.82437 41.3663 1.80216 41.4119 1.77588Z" fill="#202020"/>
<path d="M46.402 2.39928C46.3745 2.39007 46.358 2.37754 46.3633 2.3584C46.3997 2.37536 46.4076 2.38813 46.402 2.39928Z" fill="#202020"/>
<path d="M58.1705 2.53906L58.123 2.5514C58.1371 2.54373 58.1536 2.53946 58.1705 2.53906Z" fill="#202020"/>
<path d="M57.5113 2.63572C57.4665 2.6342 57.4221 2.62842 57.3789 2.61849C57.4241 2.61537 57.4696 2.62128 57.5113 2.63572Z" fill="#202020"/>
<path d="M49.2074 2.17871C49.1634 2.17653 49.1207 2.16574 49.083 2.14725C49.1276 2.14649 49.1712 2.15753 49.2074 2.17871Z" fill="#202020"/>
<path d="M57.2438 2.60558L57.0791 2.61026C57.0782 2.6043 57.0779 2.59828 57.0783 2.59229L57.2438 2.60558Z" fill="#202020"/>
<path d="M58.3774 2.53812C58.3085 2.53713 58.2395 2.53909 58.1709 2.54397C58.237 2.52337 58.3097 2.5213 58.3774 2.53812Z" fill="#202020"/>
<path d="M50.714 2.54582L50.6968 2.54631C50.5706 2.49992 50.6501 2.51865 50.714 2.54582Z" fill="#202020"/>
<path d="M56.5346 2.4777L56.5125 2.47832L56.4658 2.45166L56.5346 2.4777Z" fill="#202020"/>
<path d="M59.0837 2.52525C59.0554 2.52391 59.0278 2.51753 59.0029 2.50656L59.0963 2.50391C59.09 2.51005 59.0857 2.51739 59.0837 2.52525Z" fill="#202020"/>
<path d="M53.1836 2.46484C53.2295 2.50053 53.2452 2.52307 53.246 2.54104C53.1917 2.53758 53.1578 2.52155 53.1836 2.46484Z" fill="#202020"/>
</g>
<defs>
<clipPath id="clip0_82199_2610">
<rect width="64.0312" height="4.79688" fill="white" transform="translate(0.0234375 0.26416)"/>
</clipPath>
</defs>
</svg>
