<svg width="98" height="99" viewBox="0 0 98 99" fill="none" xmlns="http://www.w3.org/2000/svg">
<mask id="path-1-inside-1_82199_2830" fill="white">
<path d="M0 0H98V99H0V0Z"/>
</mask>
<path d="M0 99H1V0H0H-1V99H0Z" fill="#1D1D1B" mask="url(#path-1-inside-1_82199_2830)"/>
<g clip-path="url(#clip0_82199_2830)">
<path d="M77.2781 48.403C77.2321 48.385 77.2131 48.381 77.2101 48.384C77.2071 48.387 77.2551 48.419 77.2551 48.415C77.3191 48.4468 77.3861 48.4722 77.4551 48.491C77.4703 48.4922 77.4854 48.4949 77.5001 48.499C77.3961 48.455 77.3241 48.421 77.2781 48.403Z" fill="#1D1D1B"/>
<path d="M73.1184 47.7968L72.5254 47.7568L73.0464 47.8038L73.1184 47.7968Z" fill="#1D1D1B"/>
<path d="M71.4361 47.5798L71.7431 47.5688C70.9371 47.4598 69.8881 47.3218 69.3271 47.1958C69.9873 47.3473 70.6549 47.4644 71.3271 47.5468L71.4361 47.5798Z" fill="#1D1D1B"/>
<path d="M65.9544 46.7048L65.8744 46.6798C65.7954 46.6638 65.6874 46.6378 65.5044 46.5918C65.6174 46.6468 65.0784 46.5198 65.9544 46.7048Z" fill="#1D1D1B"/>
<path d="M65.898 46.6829C65.651 46.6049 66.282 46.7659 65.898 46.6829V46.6829Z" fill="#1D1D1B"/>
<path d="M63.8389 46.2209L64.3389 46.3359C64.2389 46.2909 63.7979 46.1639 63.9659 46.1989C63.4579 46.0649 63.5579 46.1079 63.8389 46.2209Z" fill="#1D1D1B"/>
<path d="M63.2334 46.125L63.4934 46.193C63.4102 46.1587 63.3227 46.1358 63.2334 46.125Z" fill="#1D1D1B"/>
<path d="M64.1409 46.334C63.9559 46.29 63.7709 46.248 63.5879 46.198C63.6623 46.2472 63.7508 46.2708 63.8399 46.265C63.7889 46.273 63.9029 46.284 64.1409 46.334Z" fill="#1D1D1B"/>
<path d="M64.7853 46.5308C64.9985 46.602 65.22 46.6457 65.4443 46.6608C65.4113 46.6398 65.1363 46.5688 64.6553 46.4468C64.9333 46.5338 65.2943 46.6368 64.7853 46.5308Z" fill="#1D1D1B"/>
<path d="M69.8416 47.3539C69.6726 47.3379 69.1026 47.1999 69.1226 47.2259L69.5036 47.3189L69.8416 47.3539Z" fill="#1D1D1B"/>
<path d="M60.2987 44.9761C60.2637 44.9761 60.4327 45.0921 60.4607 45.1231L60.8107 45.2691C60.6322 45.1858 60.4609 45.0878 60.2987 44.9761Z" fill="#1D1D1B"/>
<path d="M60.3881 45.1159C60.2154 45.0399 60.0434 44.9612 59.8721 44.8799C60.3211 45.1189 60.4091 45.1449 60.3881 45.1159Z" fill="#1D1D1B"/>
<path d="M64.1066 46.3921C63.7406 46.3101 63.3776 46.2211 63.0156 46.1211L63.1876 46.1771C63.4936 46.2531 63.7996 46.3271 64.1066 46.3921Z" fill="#1D1D1B"/>
<path d="M58.3618 43.9129C58.1978 43.8179 58.0428 43.7129 57.8848 43.6069L58.0848 43.7489C58.1758 43.8079 58.2708 43.8589 58.3618 43.9129Z" fill="#1D1D1B"/>
<path d="M56.7767 42.7041C56.9577 42.8541 56.5927 42.4381 56.7767 42.6041C56.6437 42.4671 56.5267 42.3331 56.4107 42.2141C56.2947 42.0951 56.1937 41.9751 56.0977 41.8621C56.1977 41.9851 56.2977 42.1091 56.4067 42.2501C56.5157 42.3911 56.6317 42.5411 56.7767 42.7041Z" fill="#1D1D1B"/>
<path d="M55.6738 41.436C55.7628 41.566 55.8738 41.688 55.9858 41.826C55.8848 41.692 55.7748 41.568 55.6738 41.436Z" fill="#1D1D1B"/>
<path d="M58.8 44.328C58.6947 44.2229 58.581 44.1266 58.46 44.04C58.511 44.096 58.56 44.151 58.616 44.203L58.8 44.328Z" fill="#1D1D1B"/>
<path d="M58.5846 44.202L58.5786 44.196C58.4116 44.08 58.2926 43.988 58.2246 43.937C58.2866 43.983 58.3956 44.069 58.5846 44.202Z" fill="#1D1D1B"/>
<path d="M58.8281 44.3389C58.8404 44.3531 58.8563 44.3638 58.8741 44.3699L58.8281 44.3389Z" fill="#1D1D1B"/>
<path d="M61.3582 45.5862L60.8302 45.3992C60.7062 45.3532 60.6911 45.3712 60.9951 45.5232C61.2281 45.5922 60.8802 45.4202 61.3582 45.5862Z" fill="#1D1D1B"/>
<path d="M59.7732 44.885C59.5812 44.785 59.3862 44.693 59.1992 44.585C59.3662 44.696 59.5412 44.796 59.7162 44.898C59.7102 44.882 59.6192 44.814 59.7732 44.885Z" fill="#1D1D1B"/>
<path d="M59.1056 44.5708L58.9176 44.4498L58.8496 44.4238C58.9316 44.4768 59.0206 44.5218 59.1056 44.5708Z" fill="#1D1D1B"/>
<path d="M56.3007 42.3051C56.2117 42.2111 56.1257 42.1051 56.0347 41.9961C55.9437 41.8871 55.8597 41.7601 55.7637 41.6311C55.9526 41.9199 56.1601 42.1961 56.3847 42.4581C56.4267 42.4861 56.5397 42.5821 56.3007 42.3051Z" fill="#1D1D1B"/>
<path d="M57.3526 43.3099C57.3386 43.2989 57.3216 43.2839 57.3096 43.2729C57.3306 43.3039 57.3576 43.3229 57.3526 43.3099Z" fill="#1D1D1B"/>
<path d="M53.9795 38.6118L53.9905 38.6618L54.0025 38.6708L53.9795 38.6118Z" fill="#1D1D1B"/>
<path d="M56.5072 42.549C56.5728 42.6337 56.6443 42.7135 56.7212 42.788C56.7842 42.851 56.8402 42.902 56.8952 42.951C56.7612 42.813 56.6152 42.669 56.4752 42.5C56.4572 42.487 56.4522 42.487 56.5072 42.549Z" fill="#1D1D1B"/>
<path d="M55.2996 41.0479C55.2436 40.9279 55.1246 40.6889 55.0996 40.6479C55.1486 40.7739 55.2246 40.9049 55.2996 41.0479Z" fill="#1D1D1B"/>
<path d="M57.2432 43.2021L57.2722 43.2271C57.2172 43.1621 57.2222 43.1731 57.2432 43.2021Z" fill="#1D1D1B"/>
<path d="M57.2268 43.1961C57.1268 43.1081 57.0448 43.0441 56.9658 42.9761C57.0788 43.0851 57.1878 43.1811 57.2808 43.2651C57.2608 43.2361 57.2408 43.2151 57.2268 43.1961Z" fill="#1D1D1B"/>
<path d="M54.4885 39.7442C54.5225 39.8182 54.5605 39.8912 54.5985 39.9632C54.5365 39.8372 54.4985 39.7242 54.4485 39.6022C54.3985 39.4802 54.3535 39.3452 54.2995 39.1682C54.2347 39.0057 54.1561 38.8492 54.0645 38.7002C54.2025 39.0802 54.3645 39.4502 54.5295 39.8172L54.4885 39.7442Z" fill="#1D1D1B"/>
<path d="M54.9661 40.7078C55.1174 40.9829 55.2963 41.2419 55.5001 41.4808C55.3391 41.2388 55.2711 41.1338 55.2561 41.1008C55.2411 41.0678 55.2701 41.1108 55.3061 41.1618C55.332 41.2004 55.3622 41.236 55.3961 41.2678C55.3614 41.1845 55.3192 41.1045 55.2701 41.0288C55.3301 41.1288 55.3911 41.2148 55.4491 41.3008C55.5071 41.3868 55.5611 41.4708 55.6171 41.5488C55.5591 41.4618 55.5091 41.3738 55.4561 41.2888C55.4031 41.2038 55.3561 41.1208 55.3101 41.0368C55.3146 41.0445 55.3186 41.0526 55.3221 41.0608C55.3431 41.1068 55.3481 41.1228 55.3221 41.0728L55.3091 41.0528C55.2939 41.0426 55.2804 41.0301 55.2691 41.0158C55.1051 40.7228 55.2511 40.9648 55.3091 41.0528C55.3091 41.0528 55.3191 41.0608 55.3221 41.0608C55.2221 40.8968 55.1161 40.7348 55.0221 40.5618C54.9751 40.4778 54.9221 40.3948 54.8801 40.3088L54.7451 40.0508C54.8992 40.3835 55.0742 40.7052 55.2691 41.0158C55.1271 40.8788 54.8311 40.3668 54.9661 40.7078Z" fill="#1D1D1B"/>
<path d="M60.2257 45.333C60.1957 45.313 60.1987 45.311 60.1967 45.307C60.1267 45.276 60.0997 45.266 60.2257 45.333Z" fill="#1D1D1B"/>
<path d="M59.2239 44.699L59.2009 44.673C59.1829 44.665 59.1949 44.676 59.2239 44.699Z" fill="#1D1D1B"/>
<path d="M60.264 45.271C60.238 45.261 60.212 45.25 60.187 45.239C59.9037 45.086 59.632 44.9126 59.374 44.72C59.5031 44.85 59.6444 44.9672 59.796 45.07C59.9333 45.122 60.0669 45.1831 60.196 45.253C60.408 45.37 60.186 45.272 60.196 45.289C60.342 45.353 60.729 45.513 60.264 45.271Z" fill="#1D1D1B"/>
<path d="M56.9125 43.1678C56.9441 43.1981 56.9775 43.2265 57.0125 43.2528C57.0525 43.2808 57.0515 43.2638 57.0815 43.2818C56.9635 43.1708 56.8425 43.0628 56.7305 42.9448L56.5595 42.7708C56.5035 42.7118 56.4515 42.6498 56.3965 42.5898C56.4465 42.6558 56.4965 42.7248 56.5445 42.7898L56.7015 42.9838V42.9498L56.8225 43.0808L56.9125 43.1678Z" fill="#1D1D1B"/>
<path d="M54.0381 38.582C53.9511 38.416 53.8701 38.246 53.7881 38.075C53.8431 38.209 53.8881 38.345 53.9501 38.475L54.0381 38.582Z" fill="#1D1D1B"/>
<path d="M53.5242 37.2388L53.4092 36.9238L53.4742 37.2048L53.5242 37.2388Z" fill="#1D1D1B"/>
<path d="M48.0172 35.4489C47.9662 35.6039 47.9382 35.7039 47.9662 35.6849L48.0372 35.5699C48.0972 35.2839 48.1482 35.0699 48.1992 34.8809L48.0172 35.4489Z" fill="#1D1D1B"/>
<path d="M51.0935 22.3418C51.0818 22.645 51.0982 22.9486 51.1425 23.2488C51.1295 22.8848 51.1125 22.5918 51.0935 22.3418Z" fill="#1D1D1B"/>
<path d="M39.2928 51.3251C39.4578 51.3821 39.5308 51.4011 39.5298 51.3901C39.3598 51.3321 39.2618 51.2981 39.2928 51.3251Z" fill="#1D1D1B"/>
<path d="M50.9971 21.2949V21.4879C51.0241 21.7529 51.0531 22.0189 51.0761 22.3429C51.0729 21.9922 51.0465 21.6421 50.9971 21.2949Z" fill="#1D1D1B"/>
<path d="M73.2539 49.2169C73.3429 49.2079 73.4909 49.1879 73.7449 49.1489C73.6299 49.1669 73.4349 49.1919 73.2539 49.2169Z" fill="#1D1D1B"/>
<path d="M52.2314 31.8911C52.2414 31.9331 52.2754 32.1581 52.2314 31.8911V31.8911Z" fill="#1D1D1B"/>
<path d="M52.2822 33.2958C52.2765 33.2601 52.2632 33.226 52.2432 33.1958C52.2612 33.227 52.2743 33.2607 52.2822 33.2958Z" fill="#1D1D1B"/>
<path d="M52.2793 32.304C52.2683 32.204 52.2543 32.087 52.2373 31.96C52.2423 32.016 52.2553 32.12 52.2793 32.304Z" fill="#1D1D1B"/>
<path d="M52.2998 32.2629L52.3328 32.4969C52.3458 32.5289 52.3448 32.4989 52.2998 32.2629Z" fill="#1D1D1B"/>
<path d="M52.225 31.871C52.213 31.793 52.196 31.682 52.168 31.498C52.191 31.651 52.21 31.798 52.228 31.932C52.222 31.88 52.221 31.858 52.225 31.871Z" fill="#1D1D1B"/>
<path d="M53.5059 59.541C53.5059 59.531 53.5179 59.517 53.5269 59.498L53.5059 59.541Z" fill="#1D1D1B"/>
<path d="M75.7849 48.793C76.1999 48.706 75.8259 48.693 75.4249 48.686C76.0075 48.6247 76.6042 48.5637 77.2149 48.503C63.7539 47.156 57.6279 45.96 54.4359 40.133C54.4679 40.189 54.4989 40.248 54.5359 40.299L54.5469 40.266C54.3659 39.949 54.2329 39.72 54.3469 39.966C54.1969 39.6847 54.0545 39.393 53.9199 39.091C54.0569 39.342 54.1199 39.371 54.1279 39.272C54.1185 39.0658 54.0849 38.8614 54.0279 38.663C54.0149 38.657 54.0029 38.656 53.9619 38.582C53.9409 38.545 53.9109 38.491 53.8689 38.408C53.8269 38.325 53.7829 38.208 53.7149 38.064C53.7579 38.287 54.2149 39.412 53.9589 38.923C53.8679 38.723 53.8069 38.586 53.7589 38.482C53.728 38.4055 53.7013 38.3274 53.6789 38.248C53.6439 38.132 53.6349 38.066 53.5729 37.867C53.6059 38.042 53.4919 37.791 53.3729 37.519C53.3091 37.3516 53.2305 37.1903 53.1379 37.037C52.6245 35.3762 52.2285 33.6813 51.9529 31.965C51.9649 31.996 51.9719 31.991 51.9679 31.925L51.8809 31.45C51.8589 31.006 52.0989 32.337 52.0229 31.731C52.1659 32.364 52.3469 33.069 52.5099 33.964L52.4739 34.144C52.4459 33.8609 52.3947 33.5807 52.3209 33.306C52.3709 33.49 52.4209 33.835 52.4789 34.185C52.5191 34.491 52.5967 34.7909 52.7099 35.078C52.6719 34.868 52.6439 34.657 52.6099 34.447C52.7879 35.075 53.0569 35.837 53.2719 36.613C53.2389 36.245 53.2049 36.438 53.1339 35.868C53.1409 35.993 53.1119 35.931 53.0649 35.781C53.0179 35.631 52.9519 35.391 52.8979 35.159C52.7779 34.696 52.6899 34.266 52.7219 34.664C52.6996 34.3901 52.6619 34.1176 52.6089 33.848C52.5479 33.5342 52.5035 33.2175 52.4759 32.899C52.4589 32.925 52.4759 33.173 52.3689 32.507C52.3569 32.478 52.3359 32.407 52.3219 32.364C52.3219 32.343 52.3219 32.336 52.3159 32.319V32.356C52.3079 32.328 52.3049 32.325 52.3159 32.37C52.3312 32.484 52.3392 32.5989 52.3399 32.714C52.2577 32.4322 52.1909 32.1461 52.1399 31.857C52.0729 31.507 52.0059 31.157 51.9659 30.974C51.9159 30.574 52.0179 31.137 52.0099 30.917L51.8849 30.385C51.9299 30.325 51.8219 29.319 51.9849 30.251L51.8679 29.409C51.8299 28.909 51.7559 28.225 51.6819 27.809C51.6459 27.409 51.5059 26.809 51.5869 27.151L51.4069 25.828L51.4189 25.815C51.2859 24.505 51.0599 23.124 51.0189 21.615C50.9659 21.174 50.9089 20.715 50.8609 19.978L50.8939 19.831C50.8829 19.731 50.8739 19.624 50.8639 19.5H50.2099C50.1549 20.093 50.0489 20.911 50.0699 21.117C49.8959 21.717 49.7959 23.867 49.6699 24.861L49.7259 24.903C49.6529 25.588 49.6009 26.247 49.5259 27.103L49.5859 27.056C49.5449 27.793 49.3249 28.936 49.1649 30.09C49.1741 29.8951 49.2006 29.7013 49.2439 29.511C48.9359 30.876 48.8939 32.43 48.5489 33.655C48.5137 33.9074 48.4595 34.1568 48.3869 34.401C48.3939 34.372 48.3979 34.347 48.4019 34.325C48.3949 34.356 48.3829 34.403 48.3709 34.451L48.2459 34.872C48.2889 34.746 48.3259 34.625 48.3559 34.519C48.3029 34.756 48.2249 35.119 48.1479 35.468L48.0529 35.605C48.0449 35.633 48.0389 35.656 48.0319 35.685C47.9189 36.023 47.9829 35.966 48.0739 35.792C48.0339 35.969 48.0049 36.133 47.9799 36.26C47.8119 36.516 47.7369 37.178 47.5059 37.523C47.481 37.6501 47.4476 37.7754 47.4059 37.898C47.3449 38.072 47.2729 38.286 47.1939 38.498C47.0619 38.856 46.9189 39.204 46.8819 39.367C46.7919 39.547 46.6919 39.721 46.6029 39.896C46.5139 40.071 46.4169 40.241 46.3399 40.407L46.1849 40.525C46.0619 40.794 45.9229 41.057 45.7799 41.32C45.67 41.4609 45.5486 41.5924 45.4169 41.713C45.3629 41.747 45.4039 41.679 45.5389 41.446C45.3298 41.7724 45.0983 42.0838 44.8459 42.378C44.6799 42.558 44.5459 42.727 44.1459 43.138L44.1549 43.072C43.8448 43.3818 43.5063 43.6617 43.1439 43.908C42.9439 44.028 42.5969 44.241 42.1499 44.497C41.6178 44.7909 41.0704 45.0559 40.5099 45.291C39.8563 45.564 39.1887 45.802 38.5099 46.004C37.8229 46.209 37.1389 46.373 36.5319 46.498C36.7839 46.503 36.4989 46.555 36.1419 46.618C35.8608 46.6451 35.5843 46.7076 35.3189 46.804C35.1699 46.804 34.8259 46.854 35.2189 46.752C33.9819 47.024 33.3339 47.052 32.4819 47.267C32.3319 47.261 32.7429 47.183 32.6099 47.186C32.4363 47.2288 32.2598 47.2586 32.0819 47.275C31.9499 47.275 32.2619 47.225 32.4579 47.18C31.1729 47.38 31.0579 47.48 30.9769 47.575C30.4867 47.5999 29.9999 47.6705 29.5229 47.786C29.2909 47.786 28.9049 47.806 29.7089 47.697L28.1469 47.872C27.7263 47.9024 27.3086 47.9633 26.8969 48.054C26.7519 48.054 26.2619 48.117 26.1429 48.138C25.1229 48.238 25.0329 48.245 24.0319 48.352L24.3109 48.335C24.2423 48.3564 24.1725 48.3738 24.1019 48.387L23.8939 48.356V48.419H23.8639L23.0059 48.519L23.8639 48.595H23.8939V48.659L24.2719 48.639C24.4909 48.666 24.7409 48.699 25.0479 48.727L25.0249 48.733C26.8669 48.985 25.8249 48.786 27.6429 49.054L27.5509 48.993C27.7369 48.903 29.1569 49.24 30.2179 49.337L29.8409 49.259C30.4249 49.296 31.4279 49.616 31.9989 49.718C32.1239 49.746 31.7989 49.704 31.6219 49.685C32.3689 49.826 32.4219 49.82 32.4219 49.794C32.4219 49.768 32.3879 49.725 32.9499 49.805C33.1499 49.874 32.6669 49.848 33.4169 49.981C33.6019 50.026 34.1519 50.09 34.7799 50.181C35.3966 50.2664 36.007 50.3931 36.6069 50.56C36.3939 50.483 36.1799 50.406 36.6969 50.503C36.8969 50.55 37.1189 50.611 37.3619 50.68C37.6049 50.749 37.8619 50.83 38.1079 50.914L38.8379 51.15C39.0679 51.22 39.2779 51.284 39.4559 51.323C39.5469 51.364 39.5809 51.383 39.5819 51.391C39.7279 51.435 39.9129 51.505 40.1199 51.577C40.3269 51.649 40.5449 51.741 40.7599 51.824C40.9749 51.907 41.1779 51.996 41.3489 52.074C41.5199 52.152 41.6619 52.209 41.7489 52.241C41.9566 52.4119 42.1795 52.5636 42.4149 52.694C42.7309 52.885 43.1009 53.124 43.4459 53.367C44.1309 53.857 44.6829 54.39 44.6069 54.44C45.0157 54.8553 45.3905 55.3028 45.7279 55.778L45.6859 55.75C45.9969 56.207 46.1949 56.523 46.3479 56.764C46.4239 56.885 46.4909 56.986 46.5479 57.077C46.6049 57.168 46.6599 57.251 46.7149 57.334C46.8149 57.566 46.7149 57.406 46.6999 57.391C46.7889 57.571 46.8579 57.734 46.9229 57.881C46.9879 58.028 47.0429 58.158 47.0919 58.281C47.1409 58.404 47.1869 58.51 47.2299 58.613C47.2729 58.716 47.3089 58.813 47.3479 58.907C47.5029 59.283 47.6479 59.629 47.8969 60.256L47.8789 60.403C47.9385 60.572 47.9896 60.7439 48.0319 60.918C48.0939 61.168 48.1729 61.483 48.2479 61.837C48.4069 62.544 48.5789 63.4 48.7529 64.161C48.7254 64.1095 48.7059 64.0543 48.6949 63.997C48.8899 64.922 49.0365 65.8566 49.1339 66.797C49.1767 67.467 49.2927 68.1303 49.4799 68.775L49.6679 69.92C49.5119 68.43 49.7859 70.133 49.7499 69.52C49.8329 70.104 49.8559 71.04 49.7669 70.32V70.206C49.6959 70.079 49.7369 70.542 49.7849 71.033C49.8377 71.3612 49.8581 71.6938 49.8459 72.026C50.0219 73.726 50.1529 75.41 50.2769 77.057C50.2575 77.1937 50.2392 77.3303 50.2219 77.467H50.2329C50.2629 77.322 50.2739 77.522 50.3049 77.44V77.503H50.7629V77.467C50.7799 77.302 50.7939 77.138 50.8109 76.973C50.8339 77.267 50.8399 77.411 50.8369 77.467H50.8479C50.8399 77.291 50.8309 77.115 50.8149 76.939C50.8942 76.093 50.9735 75.258 51.0529 74.434L50.9389 74.744L51.0329 73.786C51.0769 73.536 51.1329 73.453 51.0629 74.137C51.124 73.7498 51.1417 73.3571 51.1159 72.966C51.2829 71.63 51.1639 73.497 51.2069 73.086L51.2559 72.528L51.2339 72.653C51.2227 72.2123 51.2444 71.7714 51.2989 71.334C51.3709 70.816 51.3809 71.072 51.4049 70.868C51.4049 70.868 51.4119 70.852 51.4189 70.805C51.4259 70.758 51.4319 70.678 51.4429 70.555L51.5879 69.355L51.4639 69.83C51.4919 69.293 51.6039 68.697 51.4579 69.246C51.5689 68.846 51.7139 67.722 51.8749 66.646C52.0359 65.57 52.2119 64.529 52.2749 64.283C52.3797 63.4829 52.5353 62.6903 52.7409 61.91C52.6719 62.13 52.5629 62.25 52.7649 61.478C52.8059 61.635 52.9159 61.285 53.0559 60.824C53.1804 60.389 53.3379 59.9641 53.5269 59.553C53.4919 59.611 53.5059 59.543 53.5489 59.406C53.5739 59.324 53.6079 59.219 53.6489 59.106C53.6899 58.993 53.7369 58.865 53.7829 58.742C53.9699 58.251 54.1579 57.802 53.9279 58.201C54.2119 57.593 53.9979 58.182 54.2429 57.734C54.5884 56.9343 55.035 56.1821 55.5719 55.496C56.1804 54.7208 56.8835 54.0247 57.6649 53.424C57.6789 53.391 57.3839 53.579 57.7149 53.291C58.0299 53.099 58.3519 52.919 58.6839 52.757C58.8042 52.6757 58.9204 52.5882 59.0319 52.495C59.2226 52.3599 59.4313 52.2522 59.6519 52.175C59.5519 52.209 59.3909 52.261 59.6369 52.131C61.5904 51.2628 63.6371 50.6216 65.7369 50.22C67.8784 49.7836 70.0443 49.4774 72.2229 49.303C71.6339 49.34 72.0229 49.287 72.4689 49.233C72.1769 49.259 72.4689 49.187 72.4079 49.169C73.0139 49.12 73.6189 49.075 74.2259 49.032C74.5929 48.9567 74.9643 48.9046 75.3379 48.876C75.6865 48.8525 76.0331 48.804 76.3749 48.731C76.2629 48.748 76.1489 48.76 76.0599 48.772L75.7849 48.793ZM53.8849 39.022C53.7335 38.68 53.5889 38.324 53.4509 37.954C53.5689 38.205 53.7429 38.627 53.8849 39.022ZM53.3849 37.762H53.3789C53.3639 37.722 53.3499 37.682 53.3359 37.641L53.3849 37.762ZM51.7499 28.762L51.7439 28.74C51.7089 28.272 51.7199 28.438 51.7509 28.763L51.7499 28.762ZM51.1719 24.798C51.3039 25.841 51.1539 25.256 51.1879 25.437C51.2357 26.0321 51.3246 26.6232 51.4539 27.206C51.5644 27.7064 51.6362 28.2146 51.6689 28.726C51.6919 29.377 51.5479 28.768 51.5209 28.916C51.3879 28.069 51.3979 27.607 51.3299 27.031L51.3819 27.744C51.3108 27.3647 51.2604 26.9818 51.2309 26.597C51.2309 26.664 51.2369 26.764 51.2469 26.892C51.1055 25.6253 50.9685 24.2787 50.8359 22.852C50.9339 23.234 51.0559 23.94 51.1729 24.799L51.1719 24.798ZM50.3909 20.66C50.4059 20.693 50.4349 20.599 50.4539 20.525C50.4292 20.8117 50.4049 21.0953 50.3809 21.376C50.3779 21.147 50.3809 20.885 50.3919 20.661L50.3909 20.66ZM50.0659 24.438C50.0725 24.4003 50.0857 24.3641 50.1049 24.331C50.0709 24.68 50.0359 25.023 50.0049 25.361L49.9109 25.374L49.9899 25.505C49.9539 25.8463 49.9179 26.182 49.8819 26.512C49.8119 26.512 49.7569 26.443 49.7439 26.312C49.7589 26.211 49.9899 24.772 50.0659 24.438ZM49.1249 31.232L49.2249 30.302C49.2309 30.552 49.2309 30.995 49.2149 31.489C49.1282 32.0223 49.0379 32.5347 48.9439 33.026C48.9559 32.57 48.9839 32.026 49.0499 31.458L49.1249 31.232ZM46.8789 39.363C46.8738 39.3847 46.8707 39.4068 46.8699 39.429C46.8539 39.436 46.8059 39.526 46.8799 39.364L46.8789 39.363ZM45.7299 41.397C45.7129 41.462 45.7649 41.454 45.8299 41.44C45.6772 41.6513 45.5192 41.856 45.3559 42.054C45.4859 41.838 45.6139 41.619 45.7309 41.398L45.7299 41.397ZM30.7049 47.645C30.8619 47.634 30.7369 47.676 30.5299 47.731C30.6169 47.714 30.6989 47.697 30.7629 47.683C30.9519 47.667 31.0249 47.67 31.0249 47.683L30.3799 47.77L30.5289 47.731L30.2059 47.793L29.9399 47.827C29.7279 47.835 29.5469 47.839 29.4179 47.846C29.8499 47.784 30.2789 47.714 30.7059 47.647L30.7049 47.645ZM51.3689 70.945C51.3989 70.516 51.4019 70.637 51.4049 70.757L51.3689 70.945Z" fill="#1D1D1B"/>
<path d="M52.8291 34.749L52.8431 34.809C52.8371 34.783 52.8321 34.764 52.8291 34.749Z" fill="#1D1D1B"/>
<path d="M52.7902 34.7339C52.7972 34.7209 52.7902 34.6339 52.8152 34.7239L52.7002 34.2139C52.7612 34.4909 52.7712 34.5929 52.7902 34.7339Z" fill="#1D1D1B"/>
<path d="M52.8174 35.4258C52.842 35.7009 52.9015 35.9717 52.9944 36.2318L52.9744 36.1618C53.0594 36.2648 52.9354 35.8488 52.8174 35.4258Z" fill="#1D1D1B"/>
<path d="M53.0518 36.374C53.0858 36.496 53.1198 36.62 53.1518 36.741C53.1838 36.781 53.1148 36.591 53.0518 36.374Z" fill="#1D1D1B"/>
<path d="M52.1078 31.166C52.1878 31.375 51.8718 29.887 52.0428 30.94C52.0578 31.136 52.1088 31.055 52.1078 31.166Z" fill="#1D1D1B"/>
<path d="M52.7323 35.7719L52.7453 35.6169C52.7133 35.5449 52.6843 35.4729 52.6543 35.4009C52.6783 35.5249 52.7053 35.6479 52.7323 35.7719Z" fill="#1D1D1B"/>
<path d="M52.0508 32.394C52.0798 32.612 52.1108 32.829 52.1448 33.046C52.1697 33.1 52.1852 33.1578 52.1908 33.217C52.1208 32.818 52.0618 32.377 52.0508 32.394Z" fill="#1D1D1B"/>
<path d="M52.3178 33.7871C52.2958 33.6751 52.2478 33.4341 52.2178 33.2671C52.2488 33.4751 52.2878 33.6731 52.3178 33.7871Z" fill="#1D1D1B"/>
<path d="M50.993 24.2511C51.02 24.4211 51.05 24.6871 51.056 24.5751L50.978 23.8601C50.952 23.7891 50.958 23.9851 50.993 24.2511Z" fill="#1D1D1B"/>
<path d="M75.7432 48.9409L76.2892 48.8979L75.9342 48.9059L75.7432 48.9409Z" fill="#1D1D1B"/>
<path d="M76.8809 48.675C76.9512 48.6741 77.0214 48.6681 77.0909 48.657C77.1867 48.5998 77.2871 48.5503 77.3909 48.509C77.3309 48.528 77.2419 48.56 77.1459 48.595C77.0597 48.6284 76.9711 48.6552 76.8809 48.675Z" fill="#1D1D1B"/>
</g>
<defs>
<clipPath id="clip0_82199_2830">
<rect width="54.5" height="58" fill="white" transform="translate(23 19.5)"/>
</clipPath>
</defs>
</svg>
