<svg width="29" height="27" viewBox="0 0 29 27" fill="none" xmlns="http://www.w3.org/2000/svg">
<g clip-path="url(#clip0_82199_338)">
<mask id="mask0_82199_338" style="mask-type:luminance" maskUnits="userSpaceOnUse" x="0" y="12" width="26" height="4">
<path d="M24.1754 15.153C24.1754 15.053 24.1754 15.053 24.1754 15.153V15.153ZM25.1754 15.053C24.8754 14.953 24.5754 15.053 24.2754 15.153C24.4754 15.153 25.1754 15.453 25.1754 15.053ZM24.2754 15.753L24.5754 15.653C24.3754 15.553 24.4754 15.753 24.2754 15.753ZM24.2754 15.453V15.353L24.0754 15.453H24.2754ZM14.5754 13.853C14.5754 13.753 14.5754 13.753 14.5754 13.653V13.853ZM14.2754 14.153C14.2754 14.153 14.1754 14.153 14.0754 14.153C14.1754 14.253 14.2754 14.253 14.2754 14.153ZM15.0754 13.853H14.9754C14.9754 13.853 14.9754 13.953 15.0754 13.853ZM19.9754 14.553C20.0754 14.453 20.1754 14.353 20.2754 14.353C19.9754 14.253 20.0754 14.453 19.9754 14.553ZM12.4754 15.353L12.3754 15.253C12.3754 15.253 12.3754 15.353 12.4754 15.353ZM14.3754 15.353C14.3754 15.253 14.3754 15.253 14.3754 15.153V15.353ZM15.3754 14.053L15.4754 13.953C15.3754 13.953 15.3754 14.053 15.3754 14.053ZM11.8754 15.353C11.8754 15.453 11.7754 15.553 11.7754 15.553C11.8754 15.553 11.8754 15.453 11.8754 15.353ZM15.0754 15.253C14.9754 15.253 14.9754 15.253 14.8754 15.353C14.9754 15.353 14.9754 15.353 15.0754 15.253Z" fill="white"/>
<path d="M6.175 15.4531L6.575 15.2531C6.575 15.3531 6.775 15.3531 6.675 15.4531L6.775 15.3531V15.4531C7.475 15.6531 7.775 14.9531 8.575 15.4531L8.875 15.2531C8.975 15.2531 8.975 15.4532 9.175 15.5532C9.075 15.3532 9.375 15.5531 9.375 15.3531C9.475 15.4531 9.375 15.4532 9.375 15.5532C9.775 15.7532 9.975 15.4532 10.375 15.5532C10.175 15.4532 9.875 15.3531 9.675 15.2531C9.975 15.1532 10.075 15.3531 10.375 15.2531L10.275 15.3531C10.475 15.6531 10.775 15.2532 10.875 15.5532C11.075 15.5532 11.175 15.2531 11.375 15.2531V15.5532H11.575V15.3531C11.675 15.3531 11.675 15.3531 11.675 15.4531C11.775 15.2531 11.975 15.3531 12.175 15.2531V15.3531C12.175 15.3531 12.175 15.3531 12.175 15.2531C12.275 15.4532 12.375 15.3531 12.475 15.4531C12.375 15.4531 12.275 15.5531 12.275 15.4531C12.175 15.6531 12.475 15.5532 12.575 15.5532C12.475 15.4532 12.575 15.4531 12.675 15.4531C12.675 15.4531 12.675 15.4532 12.675 15.5532C12.875 15.6532 12.875 15.2532 13.075 15.5532V15.3531L13.275 15.4531C13.175 15.1531 13.475 15.4531 13.475 15.1531C13.675 15.1531 13.475 15.3531 13.575 15.3531C13.775 15.4531 13.975 15.1532 14.075 15.2531C14.175 15.1532 14.375 15.2531 14.475 15.1531V15.2531C14.575 15.2531 14.575 15.1531 14.675 15.1531C14.675 15.1531 14.675 15.1532 14.675 15.2531C14.875 15.1532 15.075 15.1531 15.275 15.1531C15.275 15.2531 15.275 15.3531 15.175 15.3531C15.375 15.4531 15.675 15.1532 15.975 15.2531V15.3531L16.075 15.2531C16.075 15.2531 16.075 15.3531 16.075 15.4531C16.375 15.4531 16.675 15.5531 16.775 15.2531C16.675 15.3531 16.975 15.4532 16.775 15.5532C17.075 15.3532 17.375 15.4531 17.675 15.4531L17.775 15.3531H17.675C17.775 15.3531 17.875 15.2531 17.975 15.2531C17.975 15.3531 18.075 15.4531 18.175 15.4531C18.175 15.2531 18.575 15.6531 18.675 15.4531C18.675 15.4531 18.575 15.4532 18.675 15.5532C19.075 15.5532 19.575 15.3532 20.075 15.5532C20.075 15.2532 20.475 15.3531 20.675 15.1531C20.775 15.3531 20.575 15.2531 20.475 15.3531C20.575 15.3531 20.575 15.5531 20.775 15.4531V15.5532C20.875 15.5532 20.675 15.3531 20.975 15.3531V15.4531L21.075 15.2531C21.575 15.3531 21.875 15.2531 22.375 15.4531C22.375 15.4531 22.375 15.3531 22.275 15.3531C22.475 15.3531 22.575 15.1531 22.875 15.3531V15.4531C23.275 15.5531 23.175 15.3531 23.575 15.2531C23.475 15.2531 23.275 15.3531 23.275 15.1531C23.275 15.0531 23.475 15.0531 23.575 15.1531L23.475 14.9531C23.475 15.0531 23.275 15.0532 23.175 15.0532V14.9531C23.075 15.0531 22.975 14.9532 22.775 15.0532H22.975C22.975 15.2532 22.675 15.0532 22.575 15.0532C22.575 14.8532 22.675 14.9532 22.475 14.7531C22.175 14.6531 22.275 14.9532 22.075 15.0532L22.175 15.1531C22.075 15.1531 22.075 15.3531 21.875 15.2531C21.875 15.1532 21.975 15.1532 21.975 15.0532C21.975 14.9532 21.875 15.2531 21.675 15.1531C21.775 14.9531 21.975 14.9531 22.175 14.9531C22.175 14.8531 22.175 14.8531 22.175 14.7531C21.675 14.9532 21.175 14.9531 20.675 14.8531C20.875 14.6531 20.575 14.8531 20.575 14.6531C20.575 14.8531 20.375 14.6531 20.275 14.7531C20.175 14.5531 20.475 14.6532 20.375 14.5532C20.175 14.5532 19.875 14.8531 19.475 14.7531C19.475 14.6531 19.575 14.6531 19.575 14.6531C19.375 14.6531 19.175 15.0531 18.975 14.7531C19.075 14.6531 19.175 14.5531 19.275 14.4531C19.175 14.4531 19.175 14.4531 19.175 14.3531L19.275 14.2531C18.975 14.1531 19.175 14.5531 18.975 14.6531L18.775 14.4531C18.475 14.3531 18.175 14.3531 18.075 14.6531C17.975 14.6531 17.775 14.6531 17.875 14.4531C17.975 14.2531 17.975 14.0531 18.275 14.1531C18.375 14.3531 18.075 14.3531 18.175 14.3531C18.275 14.3531 18.575 14.4531 18.575 14.3531H18.275C18.275 14.1531 18.375 14.3532 18.475 14.2531C18.375 14.0531 18.175 14.2531 18.075 14.1531C17.875 14.1531 17.875 14.1531 17.575 14.2531C17.575 14.4532 17.675 14.3531 17.875 14.4531C17.475 14.4531 16.975 14.7531 16.475 14.4531L16.675 14.2531C16.475 14.2531 16.275 14.3531 16.275 14.1531C16.475 14.2531 16.375 14.0532 16.475 14.0532C16.475 14.0532 16.575 14.0531 16.475 13.9531C16.375 14.0531 16.175 14.1531 16.075 14.2531C16.175 14.1531 15.975 14.1532 15.975 14.0532C15.875 14.0532 15.975 14.1531 15.975 14.2531C15.875 14.2531 15.775 14.3532 15.675 14.2531C15.575 14.1531 15.775 14.1532 15.775 14.0532L15.375 14.2531C15.375 14.2531 15.275 14.3532 15.275 14.2531C15.175 14.1531 15.275 14.1531 15.375 14.1531C15.075 13.9531 15.075 14.4531 14.775 14.1531L14.675 14.2531V14.1531L14.575 14.2531C14.375 14.3532 14.475 14.0531 14.375 13.9531C14.275 13.9531 14.275 13.8531 14.275 13.8531L14.075 13.9531C13.975 14.1531 13.675 14.1531 13.775 14.4531C13.675 14.4531 13.675 14.3531 13.675 14.3531C13.475 14.3531 13.675 14.1531 13.375 14.1531C13.375 14.0531 13.375 14.1532 13.475 14.0532C13.375 14.0532 13.375 14.0532 13.375 14.0532V13.9531C13.375 14.0531 13.275 14.0532 13.175 14.0532L13.275 13.8531C13.175 13.9531 13.175 13.9531 13.075 13.9531L13.175 13.8531C12.975 13.8531 13.175 14.1531 12.975 13.9531L13.175 14.0532C12.975 14.0532 13.075 14.3531 12.975 14.4531C12.775 14.6531 12.375 14.2531 12.275 14.6531C12.175 14.5531 12.275 14.4531 12.175 14.3531C12.275 14.3531 12.475 14.2532 12.475 14.0532C12.775 13.8532 12.675 14.5531 12.975 14.2531C12.875 14.0531 12.775 14.0531 12.775 14.1531C12.775 14.0531 12.875 13.9531 12.875 13.8531C12.675 13.9531 12.375 13.7531 12.275 13.7531C12.275 13.8532 12.075 13.9531 11.975 13.8531C11.975 13.9531 11.675 14.0531 11.875 14.2531C11.675 14.2531 11.675 13.9531 11.475 14.1531C11.475 13.9531 11.275 14.0531 11.375 13.8531C11.475 14.0531 11.675 13.7531 11.775 13.6531L11.475 13.5532C11.575 13.6532 11.475 13.7531 11.475 13.7531L11.375 13.5532C11.375 13.9532 10.775 13.2531 10.675 13.6531C10.775 13.6531 10.875 13.7532 10.875 13.5532C11.075 13.6532 10.875 13.8531 10.975 13.9531C10.675 14.0531 10.275 13.8532 9.975 14.0532C9.975 13.9532 10.175 13.9531 10.175 13.8531C9.875 13.7531 9.675 14.0531 9.475 14.2531V14.0532C9.275 14.2532 9.375 13.9532 9.175 14.0532C9.175 14.0532 9.275 14.1531 9.175 14.1531C8.975 14.1531 9.075 13.9531 8.975 13.9531C8.775 14.2531 8.775 13.7531 8.575 13.8531V13.7531C8.375 13.8532 7.975 13.5532 7.675 13.5532C7.675 13.5532 7.875 13.5531 7.875 13.7531H7.575C7.575 13.7531 7.375 13.6532 7.475 13.5532H7.575L7.475 13.4531C7.175 13.5531 7.575 13.7531 7.575 13.9531C7.375 13.8531 7.375 14.0532 7.275 14.0532C7.175 13.8532 7.475 13.8531 7.275 13.6531C7.175 13.5531 6.875 13.6531 6.775 13.8531C6.375 13.6531 5.975 13.9531 5.875 13.6531C5.875 13.6531 5.875 13.7531 5.775 13.7531V13.6531C5.475 13.5531 5.575 13.9531 5.475 13.8531C5.475 13.7531 5.475 13.7531 5.475 13.7531C5.175 13.6531 5.075 14.1531 4.775 13.9531V13.8531H4.675L4.875 13.9531C4.775 14.3531 4.375 13.7531 4.175 13.8531C4.175 13.7531 4.375 13.7531 4.275 13.6531C4.075 13.6531 4.175 14.0531 3.975 13.8531C4.075 13.8531 3.975 13.6532 4.075 13.5532C3.975 13.5532 3.875 13.4532 3.775 13.5532L3.675 13.4531C3.575 13.5531 3.475 13.4531 3.375 13.4531V13.3531C3.275 13.7531 3.075 13.3531 2.875 13.3531V13.2531C2.775 13.2531 2.675 13.4531 2.475 13.2531V13.1531C2.375 13.2531 2.075 13.0531 2.075 13.2531C1.975 13.2531 2.175 13.0532 1.975 13.0532C1.975 13.1532 1.875 13.1531 1.775 13.1531C1.775 13.1531 1.775 13.1531 1.675 13.1531C1.675 13.0531 1.675 13.0532 1.775 13.0532C1.775 13.0532 1.775 13.0531 1.775 13.1531V13.0532C1.575 12.9532 1.675 13.1532 1.475 13.0532C1.475 12.9532 1.475 12.9531 1.475 12.8531L0.875 13.0532C0.875 13.1532 0.975 13.1531 0.975 13.3531H1.175C1.275 13.5531 1.075 13.5532 1.075 13.5532H1.175H1.275C1.275 13.9532 1.875 13.9531 1.675 14.1531C1.775 14.1531 1.775 14.0531 1.875 13.9531C1.875 13.9531 1.875 14.0532 1.975 14.0532L1.775 14.1531C2.075 14.1531 1.775 14.3531 2.075 14.4531C2.275 14.3531 2.575 14.8531 2.775 14.8531C3.075 14.8531 2.575 14.6532 2.775 14.5532C2.875 14.5532 2.875 14.6531 2.975 14.6531V14.4531C3.175 14.4531 3.075 14.6532 3.075 14.5532C3.275 14.6532 3.075 14.6531 3.075 14.7531C3.075 14.7531 3.275 14.6531 3.275 14.7531C3.275 14.8531 3.075 14.8531 3.275 14.8531C3.675 14.7531 3.875 14.9531 4.275 14.9531V15.0532C4.275 15.0532 4.375 14.9532 4.375 15.0532V15.1531C4.575 15.0531 4.875 15.0532 5.075 15.0532L4.875 15.2531L5.075 15.1531V15.3531C5.075 15.1531 5.375 15.2531 5.575 15.2531V15.3531L5.675 15.2531V15.3531C5.775 15.3531 5.875 15.1532 6.075 15.2531C6.075 15.1532 6.075 15.3531 6.175 15.4531ZM11.575 15.2531C11.375 15.1532 11.475 15.2531 11.575 15.2531V15.2531ZM20.175 15.3531H19.975C20.075 15.4531 20.175 15.3531 20.175 15.3531C20.175 15.4531 20.175 15.4531 20.175 15.3531ZM8.375 15.0532C8.375 14.8532 8.475 15.0531 8.575 14.9531C8.475 15.0531 8.475 15.2532 8.375 15.0532ZM11.175 15.0532C11.175 15.1532 11.075 15.1532 10.975 15.2531C10.875 15.2531 10.975 15.1532 10.975 15.0532H10.875C10.875 14.8532 11.075 15.1532 11.175 15.0532ZM14.775 15.1531C14.875 15.1531 14.975 15.0532 14.975 15.0532V14.9531C14.875 14.9531 14.675 14.9532 14.675 15.0532C14.675 14.9532 14.675 15.2531 14.775 15.1531ZM9.575 14.7531C9.675 14.7531 9.675 14.4532 9.875 14.5532L9.775 14.6531V14.7531C9.775 14.5531 9.675 14.7531 9.575 14.7531ZM15.975 15.0532C16.075 15.0532 16.175 14.9531 16.175 14.8531C16.175 14.8531 16.175 14.8531 16.175 14.7531C16.175 14.8531 15.975 14.9532 15.975 15.0532C15.875 15.0532 15.875 15.0532 15.975 15.0532ZM15.775 14.8531C15.675 14.8531 15.675 14.6531 15.575 14.7531C15.575 14.8531 15.675 15.1532 15.475 15.0532C15.575 14.8532 15.575 14.7531 15.675 14.6531L15.775 14.8531ZM15.575 15.1531L15.375 15.0532C15.475 14.8532 15.475 15.0531 15.575 15.1531C15.675 15.2531 15.675 15.2531 15.575 15.1531ZM17.275 15.2531C17.275 15.3531 17.275 15.3531 17.175 15.3531L17.275 15.2531C17.175 15.2531 17.075 15.1532 17.275 15.2531ZM15.775 15.1531H15.975C15.975 15.1531 15.775 15.0531 15.775 15.1531ZM16.775 15.0532C16.875 15.0532 16.975 15.0532 17.075 15.0532C17.075 15.1532 16.875 15.1532 16.775 15.0532ZM21.675 15.2531L21.575 15.1531H21.675V15.2531ZM18.575 14.7531C18.875 14.9532 19.075 14.9531 19.275 14.9531C19.375 15.0531 19.175 15.1532 19.175 15.2531C19.175 14.7531 18.975 15.2532 18.775 15.0532C18.775 15.0532 18.875 15.0531 18.875 14.9531C18.775 14.9531 18.775 14.8531 18.675 14.9531V15.0532C18.675 15.0532 18.675 15.0531 18.675 14.9531C18.675 14.8531 18.675 14.8531 18.575 14.7531ZM16.675 14.6531C16.675 14.6531 16.775 14.7531 16.675 14.8531C16.575 14.7531 16.575 14.6531 16.675 14.6531ZM16.675 14.4531L16.475 14.6531L16.575 14.5532L16.375 14.6531C16.375 14.5531 16.475 14.4531 16.575 14.4531C16.575 14.3531 16.675 14.3531 16.675 14.4531ZM13.575 14.5532H13.475C13.575 14.4532 13.675 14.4531 13.775 14.4531C13.575 14.1531 13.775 14.5531 13.475 14.3531C13.775 14.3531 13.575 14.1532 13.575 14.0532C13.575 14.2532 13.175 14.1532 13.375 14.5532C13.375 14.4532 13.575 14.8532 13.575 14.5532ZM6.775 14.0532C6.775 13.8532 7.075 14.0531 7.075 14.1531C7.075 14.0531 6.875 14.0532 6.775 14.0532ZM4.975 14.0532C5.075 14.0532 5.175 13.8532 5.275 14.0532L5.075 14.1531C5.075 14.0531 4.975 14.1532 4.975 14.0532ZM3.675 13.9531V14.1531H3.775L3.675 13.9531ZM3.875 13.6531C3.875 13.6531 3.675 13.6531 3.775 13.7531L3.875 13.6531ZM2.575 13.8531V13.6531H2.475L2.575 13.8531ZM2.675 13.9531V13.8531C2.675 13.8531 2.775 13.7531 2.875 13.8531C2.875 13.9531 2.775 13.8531 2.775 13.9531C2.775 13.9531 2.875 14.0531 2.975 13.9531C2.875 13.7531 2.875 13.7531 2.875 13.6531C2.675 13.5531 2.675 13.7531 2.675 13.8531C2.675 13.8531 2.675 13.8531 2.675 13.9531ZM3.375 14.0532C3.375 13.9532 3.375 13.9532 3.375 14.0532C3.175 13.9532 3.075 13.8531 3.175 13.6531H3.275C3.175 13.6531 3.275 13.6531 3.275 13.7531C3.375 13.8532 3.375 13.7531 3.475 13.6531C3.375 13.7531 3.275 13.8532 3.375 14.0532C3.375 13.9532 3.375 13.9532 3.375 14.0532C3.475 13.9532 3.475 13.9532 3.475 14.0532C3.475 14.0532 3.475 13.9532 3.375 14.0532C3.475 14.0532 3.475 14.0532 3.375 14.0532ZM2.575 14.0532V14.1531H2.475L2.575 14.0532ZM6.375 14.1531C6.375 14.1531 6.575 14.1532 6.575 14.0532L6.675 14.2531C6.575 14.2531 6.475 14.3531 6.575 14.3531C6.375 14.2531 6.375 14.3531 6.375 14.1531ZM11.375 14.3531C11.375 14.4531 11.075 14.2531 11.075 14.4531C10.975 14.2531 11.275 14.3531 11.375 14.3531ZM11.475 14.6531C11.575 14.5531 11.575 14.4532 11.675 14.5532H11.575C11.675 14.6532 11.675 14.6531 11.475 14.6531ZM8.675 14.6531H8.775L8.875 14.5532L8.675 14.6531ZM7.375 14.8531C7.475 14.7531 7.375 14.6531 7.375 14.6531C7.375 14.6531 7.375 14.6531 7.475 14.6531C7.475 14.6531 7.475 14.6531 7.375 14.6531C7.275 14.6531 7.175 14.6531 7.175 14.7531C7.275 14.6531 7.375 14.6531 7.375 14.8531ZM4.575 14.8531C4.675 14.8531 4.675 14.7531 4.775 14.8531C4.675 14.8531 4.575 14.8531 4.575 14.8531ZM8.075 14.9531C8.075 14.8531 8.275 14.8531 8.175 14.7531H8.075C8.175 14.7531 8.075 14.5531 8.275 14.6531H8.175C8.275 14.7531 8.075 14.8531 8.275 14.8531C8.275 14.9531 8.175 15.0531 8.075 14.9531ZM4.375 15.0532C4.475 15.0532 4.375 14.7531 4.575 14.9531C4.475 14.9531 4.575 15.1532 4.375 15.0532Z" fill="white"/>
<path d="M6.575 13.8532C6.575 13.8532 6.475 13.8532 6.375 13.8532C6.475 13.8532 6.575 13.9532 6.575 13.8532ZM22.975 14.5532C23.075 14.2532 22.875 14.4532 22.775 14.4532C22.875 14.4532 22.975 14.6532 22.975 14.5532ZM22.375 14.9532C22.375 14.8532 22.475 14.8532 22.575 14.8532C22.475 14.7532 22.375 14.7532 22.375 14.9532ZM22.975 14.8532C22.875 14.7532 22.675 14.7532 22.575 14.7532C22.675 14.7532 22.775 14.8532 22.975 14.8532ZM20.275 14.6532C20.375 14.4532 20.575 14.5532 20.575 14.5532C20.075 14.3532 20.575 14.2532 20.675 14.1532C20.375 14.2532 20.375 14.4532 20.275 14.6532ZM19.375 14.5532C19.175 14.5532 19.175 14.7532 19.175 14.8532C19.375 14.9532 19.475 14.7532 19.675 14.6532C19.475 14.7532 19.375 14.7532 19.375 14.5532ZM18.575 14.1532C18.575 14.1532 18.675 14.1532 18.675 14.0532H18.375C18.275 14.0532 18.475 14.0532 18.575 14.1532ZM18.075 14.3532C17.875 14.3532 17.875 14.0532 17.775 14.1532L17.875 14.5532L18.075 14.3532ZM17.275 14.1532L17.375 13.7532C17.175 13.8532 17.275 14.1532 17.275 14.1532ZM16.775 13.9532L16.875 13.8532L16.475 13.9532H16.775ZM9.275 13.8532C9.275 14.1532 9.775 14.0532 9.875 14.1532C9.775 13.7532 9.575 14.2532 9.275 13.8532ZM7.075 14.0532L7.475 13.9532C7.075 13.8532 7.375 13.9532 7.075 14.0532Z" fill="white"/>
</mask>
<g mask="url(#mask0_82199_338)">
<path d="M1.375 13.0532C1.675 13.4532 2.275 13.6532 2.575 14.0532C2.675 14.1532 2.775 14.1532 2.975 14.2532C3.775 14.5532 4.175 14.8532 4.775 14.6532C4.875 14.6532 5.275 14.8532 5.375 14.7532C5.675 14.3532 5.675 14.7532 5.975 14.7532C6.175 14.7532 6.375 14.7532 6.575 14.6532C7.175 14.5532 7.675 14.5532 8.275 14.6532C8.975 14.8532 9.375 14.4532 9.775 14.7532C9.875 14.8532 10.075 14.7532 10.175 14.6532C10.275 14.6532 10.475 14.6532 10.475 14.5532C10.575 14.5532 10.675 14.3532 10.775 14.3532C11.475 14.5532 12.075 14.4532 12.875 14.5532C13.075 14.5532 13.275 14.5532 13.475 14.6532C14.175 14.7532 14.375 14.4532 15.175 14.5532C15.375 14.5532 16.075 14.6532 16.275 14.6532C16.875 14.5532 17.075 14.8532 17.575 14.9532C17.775 14.9532 18.075 14.9532 18.275 14.8532C18.475 14.7532 21.975 15.0532 22.175 14.9532" stroke="#1D1D1B" stroke-width="3" stroke-miterlimit="10" stroke-linejoin="round" stroke-dasharray="20 20"/>
</g>
<mask id="mask1_82199_338" style="mask-type:luminance" maskUnits="userSpaceOnUse" x="7" y="7" width="21" height="13">
<path d="M8.37491 19.0529C8.67491 19.0529 8.97491 18.9529 9.17491 18.7529C8.87491 18.7529 8.27491 18.6529 8.37491 19.0529ZM8.97491 18.0529L8.67491 18.2529C8.97491 18.3529 8.87491 18.1529 8.97491 18.0529ZM9.07491 18.4529L9.17491 18.5529L9.27491 18.3529L9.07491 18.4529ZM24.7749 16.6529C24.7749 16.7529 24.7749 16.8529 24.8749 16.8529L24.7749 16.6529ZM25.1749 15.8529L25.2749 15.7529C25.2749 15.7529 25.2749 15.7529 25.1749 15.8529ZM24.0749 16.7529H24.1749C24.1749 16.7529 24.1749 16.7529 24.0749 16.7529ZM16.2749 17.9529C16.1749 18.0529 16.1749 18.1529 16.0749 18.2529C16.3749 18.3529 16.2749 18.0529 16.2749 17.9529ZM26.5749 16.1529V16.0529C26.4749 16.0529 26.4749 16.1529 26.5749 16.1529ZM24.5749 13.9529C24.5749 14.0529 24.5749 14.0529 24.6749 14.0529L24.5749 13.9529ZM25.5749 16.0529C25.4749 16.1529 25.4749 16.1529 25.4749 16.2529C25.4749 16.2529 25.5749 16.1529 25.5749 16.0529ZM25.3749 15.7529C25.2749 15.7529 25.2749 15.7529 25.3749 15.7529V15.7529ZM16.2749 17.9529L16.3749 17.8529C16.2749 17.8529 16.2749 17.8529 16.2749 17.9529ZM10.0749 18.8529C10.1749 18.8529 10.1749 18.7529 10.1749 18.6529C10.1749 18.7529 10.0749 18.7529 10.0749 18.8529ZM12.1749 10.1529C12.2749 10.1529 12.2749 10.1529 12.1749 10.1529C12.1749 10.0529 12.2749 10.0529 12.1749 10.1529Z" fill="white"/>
<path d="M15.8746 14.3529L16.5746 14.1529C16.5746 14.2529 16.8746 14.4529 16.6746 14.5529L16.9746 14.3529V14.5529C18.0746 15.1529 18.9746 14.1529 20.0746 15.0529V15.1529L20.6746 14.9529C20.7746 15.0529 20.8746 15.3529 21.0746 15.4529C20.9746 15.1529 21.4746 15.4529 21.5746 15.2529C21.7746 15.4529 21.5746 15.4529 21.5746 15.5529C22.1746 15.9529 22.6746 15.5529 23.3746 15.9529C22.9746 15.6529 22.6746 15.4529 22.1746 15.2529C22.6746 15.1529 22.7746 15.5529 23.3746 15.5529L23.0746 15.6529C23.3746 16.1529 23.9746 15.5529 24.0746 16.1529C24.3746 16.1529 24.6746 15.7529 25.0746 15.8529L24.9746 16.2529L25.3746 16.3529V16.0529C25.4746 16.0529 25.5746 16.1529 25.5746 16.2529C25.7746 15.9529 26.1746 16.2529 26.5746 16.0529L26.6746 16.2529C26.6746 16.2529 26.6746 16.1529 26.7746 16.1529C26.8746 16.4529 27.1746 16.3529 27.1746 16.6529C27.0746 16.6529 26.7746 16.7529 26.7746 16.6529C26.4746 16.8529 27.1746 16.8529 27.3746 16.9529C27.1746 16.7529 27.3746 16.7529 27.5746 16.7529V16.8529C27.5746 16.8529 27.6746 16.8529 27.6746 16.9529L26.7746 13.1529C26.5746 13.2529 26.6746 13.7529 26.2746 13.3529L26.3746 13.6529L26.0746 13.5529C26.2746 14.1529 25.7746 13.6529 25.8746 14.2529C25.5746 14.3529 25.7746 13.9529 25.6746 14.0529C25.3746 14.0529 25.0746 14.6529 24.8746 14.3529C24.6746 14.6529 24.3746 14.5529 24.2746 14.7529L24.1746 14.5529C24.0746 14.6529 23.9746 14.7529 23.8746 14.7529V14.6529C23.5746 14.8529 23.2746 14.9529 22.8746 15.0529C22.8746 14.8529 22.7746 14.7529 22.9746 14.6529C22.5746 14.4529 22.2746 15.1529 21.7746 15.1529V15.0529L21.3746 14.9529C21.3746 14.8529 21.3746 14.7529 21.2746 14.6529C20.7746 14.7529 20.2746 14.8529 20.1746 15.3529C20.2746 15.2529 19.8746 15.1529 20.0746 14.8529C19.7746 15.2529 19.1746 15.3529 18.6746 15.5529L18.4746 15.7529L18.5746 15.6529C18.3746 15.7529 18.2746 15.8529 18.0746 16.0529C17.9746 15.9529 17.8746 15.7529 17.6746 15.7529C17.7746 16.0529 16.9746 15.6529 16.8746 15.9529C16.7746 15.8529 16.9746 15.8529 16.8746 15.7529C16.2746 15.9529 15.4746 16.5529 14.6746 16.4529C14.8746 17.0529 14.1746 17.0529 13.8746 17.3529C13.6746 17.0529 14.0746 17.1529 14.0746 16.8529C13.8746 16.9529 13.8746 16.4529 13.5746 16.7529C13.5746 16.6529 13.5746 16.6529 13.6746 16.6529C13.4746 16.6529 13.8746 17.0529 13.4746 17.0529L13.3746 16.8529L13.2746 17.2529C12.4746 17.2529 11.9746 17.5529 11.2746 17.4529C11.2746 17.5529 11.3746 17.6529 11.3746 17.6529C11.0746 17.6529 10.8746 18.1529 10.4746 17.9529L10.5746 17.8529C9.97461 17.7529 10.1746 18.2529 9.57461 18.4529C9.67461 18.4529 9.97461 18.2529 10.0746 18.4529C10.0746 18.6529 9.77461 18.6529 9.57461 18.5529L9.77461 18.8529C9.77461 18.6529 10.0746 18.6529 10.1746 18.4529C10.1746 18.4529 10.1746 18.5529 10.1746 18.6529C10.3746 18.5529 10.4746 18.4529 10.6746 18.3529H10.3746C10.3746 18.0529 10.8746 18.2529 10.9746 18.1529C11.0746 18.4529 10.8746 18.4529 11.1746 18.6529C11.7746 18.6529 11.3746 18.2529 11.7746 17.9529L11.6746 17.8529C11.7746 17.7529 11.8746 17.4529 12.1746 17.6529C12.2746 17.8529 12.0746 17.8529 11.9746 18.0529C12.0746 18.1529 12.1746 17.6529 12.3746 17.8529C12.2746 18.1529 12.0746 18.3529 11.6746 18.3529C11.7746 18.4529 11.7746 18.5529 11.7746 18.6529C12.4746 18.1529 13.1746 17.8529 13.9746 17.7529C13.6746 18.2529 14.1746 17.7529 14.1746 18.1529C14.1746 17.8529 14.4746 18.0529 14.6746 17.9529C14.8746 18.2529 14.3746 18.2529 14.5746 18.4529C14.9746 18.2529 15.2746 17.6529 15.8746 17.6529C15.8746 17.7529 15.7746 17.8529 15.7746 17.8529C16.0746 17.6529 16.2746 16.8529 16.6746 17.3529C16.5746 17.5529 16.4746 17.7529 16.3746 17.9529C16.3746 17.9529 16.4746 17.9529 16.5746 18.0529V18.2529C16.9746 18.2529 16.6746 17.7529 16.8746 17.3529L17.2746 17.6529C17.7746 17.7529 18.1746 17.4529 18.2746 16.9529C18.3746 16.9529 18.6746 16.8529 18.6746 17.1529C18.5746 17.5529 18.5746 17.8529 18.0746 17.9529C17.8746 17.6529 18.2746 17.5529 18.1746 17.5529C17.9746 17.6529 17.5746 17.5529 17.4746 17.7529L17.9746 17.6529C18.0746 18.0529 17.7746 17.7529 17.7746 17.9529C18.0746 18.2529 18.1746 17.8529 18.4746 17.9529C18.8746 17.7529 18.7746 17.8529 19.1746 17.6529C19.0746 17.2529 18.9746 17.4529 18.6746 17.3529C19.2746 17.1529 19.8746 16.3529 20.7746 16.7529L20.4746 17.1529C20.7746 17.1529 21.0746 16.7529 21.1746 17.1529C20.8746 17.0529 21.0746 17.3529 20.9746 17.4529C20.9746 17.4529 20.8746 17.5529 20.9746 17.6529C21.1746 17.3529 21.3746 17.1529 21.5746 16.9529C21.4746 17.0529 21.7746 17.1529 21.8746 17.2529C22.0746 17.1529 21.7746 17.0529 21.7746 16.9529C21.8746 16.9529 21.9746 16.5529 22.1746 16.8529C22.3746 17.0529 22.0746 17.1529 22.0746 17.3529L22.5746 16.8529V16.9529C22.5746 16.8529 22.6746 16.7529 22.7746 16.8529C22.8746 16.9529 22.7746 17.0529 22.6746 17.0529C23.1746 17.2529 23.0746 16.3529 23.5746 16.7529L23.6746 16.5529L23.7746 16.6529L23.8746 16.4529C24.1746 16.2529 24.0746 16.7529 24.2746 16.8529C24.3746 16.8529 24.5746 17.0529 24.4746 17.0529L24.7746 16.7529C24.7746 16.4529 25.3746 16.2529 25.0746 15.6529C25.1746 15.6529 25.2746 15.7529 25.2746 15.8529C25.5746 15.7529 25.3746 16.2529 25.7746 16.0529C25.7746 16.1529 25.7746 16.1529 25.6746 16.1529C25.7746 16.1529 25.8746 16.0529 25.8746 16.0529C25.8746 16.1529 25.9746 16.1529 25.9746 16.2529C25.8746 16.0529 26.0746 16.0529 26.1746 16.0529V16.4529C26.1746 16.3529 26.2746 16.1529 26.4746 16.1529C26.4746 16.1529 26.4746 16.1529 26.5746 16.1529V16.4529C26.8746 16.2529 26.3746 15.9529 26.8746 16.0529L26.3746 15.9529C26.7746 15.7529 26.4746 15.3529 26.5746 15.1529C26.7746 14.8529 27.0746 14.9529 27.3746 14.8529V14.7529C27.1746 14.7529 26.9746 14.8529 26.9746 14.9529C26.8746 14.7529 26.9746 14.6529 26.7746 14.4529C26.9746 14.4529 27.2746 14.3529 27.2746 14.0529L27.6746 15.4529C27.2746 15.8529 27.1746 14.6529 26.8746 15.2529C26.9746 15.5529 27.1746 15.4529 27.2746 15.3529C27.3746 15.5529 27.2746 15.7529 27.1746 15.9529C27.3746 15.8529 27.5746 15.8529 27.7746 15.8529L27.1746 13.6529C27.0746 13.5529 26.8746 13.5529 26.7746 13.4529C26.6746 13.5529 26.3746 13.6529 26.2746 13.5529C26.2746 13.7529 25.7746 13.7529 25.9746 14.1529C25.5746 14.1529 25.6746 13.5529 25.3746 13.9529C25.4746 13.6529 25.0746 13.6529 25.2746 13.4529C25.4746 13.7529 25.7746 13.3529 25.9746 13.2529L25.3746 12.9529C25.4746 13.0529 25.3746 13.2529 25.2746 13.2529L25.1746 12.9529C25.1746 13.5529 24.1746 12.2529 23.9746 12.9529C24.1746 12.9529 24.2746 13.2529 24.3746 12.8529C24.6746 13.1529 24.3746 13.3529 24.4746 13.5529C23.9746 13.6529 23.1746 13.1529 22.6746 13.4529C22.7746 13.2529 22.9746 13.3529 22.9746 13.0529C22.5746 12.8529 22.0746 13.3529 21.6746 13.4529L21.7746 13.1529C21.3746 13.3529 21.5746 12.9529 21.1746 13.0529C21.1746 13.0529 21.2746 13.2529 21.1746 13.2529C20.8746 13.1529 21.0746 12.9529 20.8746 12.8529C20.4746 13.2529 20.6746 12.4529 20.0746 12.6529V12.5529C19.6746 12.6529 19.0746 12.0529 18.5746 11.9529C18.5746 12.0529 18.9746 12.0529 18.9746 12.3529H18.3746C18.3746 12.2529 18.0746 12.1529 18.1746 12.0529C18.2746 12.0529 18.3746 12.1529 18.3746 12.1529L18.2746 11.9529C17.7746 12.0529 18.3746 12.4529 18.3746 12.7529C18.0746 12.5529 17.9746 12.8529 17.7746 12.8529C17.6746 12.5529 18.0746 12.5529 17.8746 12.2529C17.6746 12.0529 17.1746 12.1529 16.9746 12.4529C16.6746 11.6529 15.8746 12.0529 15.7746 11.4529C15.7746 11.4529 15.6746 11.6529 15.5746 11.5529L15.6746 11.4529C15.2746 11.1529 15.2746 11.8529 15.0746 11.6529C15.0746 11.5529 15.1746 11.5529 15.1746 11.4529C14.6746 11.1529 14.3746 11.9529 13.8746 11.4529C13.8746 11.3529 13.8746 11.3529 13.9746 11.3529C13.9746 11.2529 13.8746 11.2529 13.7746 11.3529L13.9746 11.6529C13.8746 11.9529 13.3746 10.9529 12.8746 10.9529C12.8746 10.8529 13.2746 10.9529 13.0746 10.7529C12.7746 10.6529 12.7746 11.3529 12.4746 10.9529C12.6746 10.9529 12.5746 10.5529 12.7746 10.5529C12.5746 10.4529 12.3746 10.2529 12.3746 10.4529C12.2746 10.3529 12.2746 10.3529 12.2746 10.2529C12.0746 10.3529 11.8746 10.0529 11.6746 9.95293V9.85293C11.3746 10.3529 11.1746 9.75293 10.8746 9.65293L10.9746 9.45293C10.7746 9.55293 10.4746 9.45293 10.3746 9.25293L10.4746 9.05293C10.2746 9.15293 9.97461 8.65293 9.77461 8.95293C9.67461 8.85293 9.97461 8.65293 9.67461 8.45293C9.57461 8.55293 9.37461 8.55293 9.27461 8.45293C9.27461 8.45293 9.27461 8.35293 9.17461 8.35293C9.17461 8.25293 9.27461 8.15293 9.27461 8.25293C9.37461 8.25293 9.27461 8.25293 9.27461 8.35293L9.37461 8.25293C9.27461 8.05293 9.27461 8.35293 8.97461 8.15293C8.97461 7.95293 9.07461 7.95293 9.17461 7.85293C9.17461 7.85293 8.87461 7.85293 8.67461 7.75293H8.17461C8.17461 7.85293 8.27461 8.05293 8.07461 8.15293L8.37461 8.35293C8.47461 8.65293 8.17461 8.55293 7.97461 8.55293L8.17461 8.65293V8.75293L8.37461 8.85293C7.87461 8.95293 8.87461 9.55293 8.27461 9.55293C8.37461 9.55293 8.57461 9.55293 8.67461 9.45293C8.97461 9.45293 8.87461 9.65293 8.97461 9.75293H8.57461C9.17461 10.0529 8.47461 10.0529 8.87461 10.4529C9.37461 10.5529 9.57461 11.3529 9.87461 11.5529C10.3746 11.7529 9.67461 11.1529 10.0746 11.1529C10.3746 11.2529 10.1746 11.3529 10.3746 11.5529L10.4746 11.2529C10.7746 11.3529 10.4746 11.5529 10.6746 11.5529C10.8746 11.8529 10.5746 11.6529 10.4746 11.8529C10.6746 11.7529 10.8746 11.8529 10.9746 11.9529C10.9746 12.0529 10.6746 11.9529 10.8746 12.0529C11.6746 12.1529 11.8746 12.6529 12.5746 12.8529L12.4746 12.9529C12.5746 12.9529 12.5746 12.8529 12.6746 12.9529V13.0529C13.0746 13.0529 13.5746 13.1529 13.9746 13.2529L13.7746 13.3529L14.1746 13.2529V13.5529C14.2746 13.2529 14.7746 13.6529 15.1746 13.6529V13.8529L15.3746 13.7529L15.2746 13.9529C15.4746 13.9529 15.7746 13.7529 16.0746 13.9529C15.8746 13.8529 15.8746 14.1529 15.8746 14.3529ZM25.4746 15.8529H25.5746C25.5746 15.9529 25.4746 15.9529 25.4746 15.8529H25.2746C25.2746 15.6529 25.3746 15.8529 25.4746 15.8529ZM15.1746 16.6529L15.3746 16.5529C15.2746 16.5529 15.1746 16.6529 15.1746 16.5529C15.1746 16.5529 15.0746 16.5529 15.1746 16.6529ZM24.8746 13.8529L24.9746 13.7529L25.0746 13.9529L24.8746 13.8529ZM19.9746 14.5529C20.0746 14.2529 20.1746 14.6529 20.3746 14.5529C20.2746 14.5529 20.1746 14.8529 19.9746 14.5529ZM24.8746 15.3529C24.8746 15.5529 24.5746 15.5529 24.5746 15.6529C24.4746 15.5529 24.5746 15.4529 24.6746 15.3529C24.5746 15.3529 24.5746 15.3529 24.4746 15.3529C24.4746 14.9529 24.6746 15.5529 24.8746 15.3529ZM24.5746 14.4529L24.6746 14.2529H24.5746V14.4529ZM23.5746 14.5529C23.3746 14.6529 23.2746 14.7529 23.3746 14.9529C23.3746 14.9529 23.3746 15.0529 23.4746 15.0529C23.6746 14.9529 23.9746 14.9529 23.9746 14.6529C23.7746 14.8529 23.6746 14.2529 23.5746 14.5529ZM22.1746 14.4529C22.2746 14.4529 22.4746 13.9529 22.8746 14.3529L22.6746 14.4529H22.7746V14.6529C22.6746 14.1529 22.2746 14.4529 22.1746 14.4529ZM21.7746 15.3529C21.5746 15.4529 21.4746 15.7529 21.5746 15.9529C21.4746 15.7529 21.7746 15.4529 21.8746 15.2529C21.8746 15.3529 21.8746 15.3529 21.7746 15.3529ZM22.0746 15.6529C22.1746 15.6529 22.2746 15.9529 22.3746 15.6529C22.2746 15.4529 22.1746 15.0529 22.4746 15.0529C22.3746 15.4529 22.4746 15.5529 22.1746 15.8529L22.0746 15.6529ZM22.2746 14.8529L22.6746 14.9529C22.6746 15.3529 22.4746 14.9529 22.2746 14.8529H22.1746C22.1746 14.8529 22.1746 14.8529 22.2746 14.8529ZM19.7746 15.5529L19.8746 15.4529C19.8746 15.3529 19.8746 15.3529 19.9746 15.3529L19.8746 15.4529C19.8746 15.5529 20.0746 15.6529 19.7746 15.5529ZM21.9746 14.9529L21.6746 15.0529C21.7746 15.1529 21.9746 15.1529 21.9746 14.9529ZM20.4746 15.6529C20.2746 15.6529 20.1746 15.7529 19.9746 15.7529C20.0746 15.5529 20.3746 15.4529 20.4746 15.6529ZM12.8746 17.4529L13.0746 17.6529L12.8746 17.7529V17.4529ZM15.1746 17.3529H15.2746L15.3746 17.4529L15.1746 17.3529ZM17.7746 17.0529C17.7746 17.0529 17.6746 17.0529 17.6746 16.9529C17.3746 16.8529 17.0746 16.8529 16.7746 16.9529C16.5746 16.8529 16.8746 16.5529 16.8746 16.4529C17.0746 17.3529 17.1746 16.3529 17.4746 16.5529C17.4746 16.6529 17.2746 16.6529 17.2746 16.7529C17.3746 16.8529 17.4746 16.8529 17.5746 16.7529C17.5746 16.6529 17.5746 16.6529 17.5746 16.6529V16.7529C17.5746 16.8529 17.5746 16.8529 17.6746 16.9529L17.7746 17.0529ZM20.8746 16.3529C20.8746 16.2529 20.7746 16.2529 20.8746 16.0529C20.9746 16.1529 20.9746 16.2529 20.8746 16.3529C20.8746 16.3529 20.8746 16.4529 20.7746 16.4529C20.7746 16.4529 20.8746 16.4529 20.8746 16.3529ZM20.8746 16.8529L21.1746 16.4529L21.0746 16.6529L21.2746 16.4529C21.3746 16.6529 21.2746 16.8529 21.0746 16.8529C20.9746 16.8529 20.9746 16.8529 20.8746 16.8529ZM25.5746 15.0529H25.7746C25.6746 15.1529 25.5746 15.2529 25.3746 15.3529C25.8746 15.8529 25.3746 15.2529 25.8746 15.3529C25.3746 15.4529 25.7746 15.7529 25.8746 15.9529C25.8746 15.5529 26.4746 15.6529 26.0746 15.0529C25.9746 15.1529 25.4746 14.5529 25.5746 15.0529ZM17.4746 12.2529C17.5746 11.9529 17.9746 12.3529 17.9746 12.5529C17.8746 12.3529 17.6746 12.3529 17.4746 12.2529ZM14.3746 11.4529C14.5746 11.5529 14.7746 11.2529 14.8746 11.6529H14.4746C14.3746 11.5529 14.2746 11.6529 14.3746 11.4529ZM12.0746 10.6529L11.9746 10.9529H12.0746V10.6529ZM12.4746 10.4529C12.3746 10.4529 12.1746 10.4529 12.2746 10.5529L12.4746 10.4529ZM10.1746 9.85293L10.3746 9.55293L10.1746 9.45293V9.85293ZM10.2746 10.0529C10.2746 10.0529 10.3746 9.95293 10.3746 9.85293C10.4746 9.75293 10.5746 9.85293 10.6746 9.95293C10.6746 10.0529 10.5746 9.95293 10.4746 9.95293C10.5746 9.95293 10.5746 10.1529 10.7746 10.1529C10.6746 9.95293 10.7746 9.95293 10.7746 9.75293C10.3746 9.45293 10.3746 9.75293 10.3746 9.95293C10.2746 9.95293 10.2746 10.0529 10.2746 10.0529ZM11.4746 10.6529C11.4746 10.6529 11.3746 10.5529 11.3746 10.4529C11.1746 10.2529 10.9746 10.1529 11.1746 9.95293L11.3746 10.0529C11.2746 10.0529 11.2746 10.0529 11.2746 10.1529C11.3746 10.3529 11.4746 10.1529 11.6746 10.1529C11.5746 10.2529 11.3746 10.2529 11.3746 10.5529C11.4746 10.5529 11.4746 10.6529 11.5746 10.6529C11.5746 10.6529 11.6746 10.6529 11.6746 10.7529V10.8529C11.6746 10.7529 11.5746 10.7529 11.5746 10.7529C11.5746 10.6529 11.5746 10.7529 11.4746 10.6529ZM10.0746 10.2529C10.0746 10.2529 10.0746 10.3529 9.97461 10.4529H9.87461C9.77461 10.2529 9.97461 10.1529 10.0746 10.2529ZM16.6746 12.2529C16.6746 12.2529 17.0746 12.3529 17.0746 12.1529L17.1746 12.4529C16.9746 12.3529 16.8746 12.5529 16.8746 12.6529C16.6746 12.4529 16.5746 12.5529 16.6746 12.2529ZM25.4746 14.3529C25.3746 14.4529 24.9746 14.1529 24.8746 14.4529C24.6746 13.9529 25.2746 14.1529 25.4746 14.3529ZM25.6746 14.7529C25.7746 14.6529 25.7746 14.3529 25.9746 14.6529C25.8746 14.7529 25.7746 14.5529 25.7746 14.6529C25.7746 14.8529 25.7746 14.8529 25.6746 14.7529ZM20.5746 13.9529L20.8746 14.0529L20.9746 13.8529L20.5746 13.9529ZM18.2746 13.7529H18.4746L18.3746 13.6529C18.3746 13.5529 18.2746 13.4529 18.3746 13.4529C18.2746 13.4529 17.9746 13.3529 18.0746 13.5529C18.1746 13.4529 18.3746 13.5529 18.3746 13.7529H18.2746ZM13.2746 12.5529C13.3746 12.5529 13.3746 12.4529 13.5746 12.6529C13.4746 12.7529 13.2746 12.6529 13.2746 12.5529ZM19.4746 14.2529C19.4746 14.0529 19.7746 14.2529 19.6746 13.9529H19.4746C19.6746 14.0529 19.5746 13.5529 19.7746 13.8529L19.5746 13.7529C19.7746 13.8529 19.3746 14.0529 19.6746 14.1529C19.8746 14.2529 19.5746 14.3529 19.4746 14.2529ZM12.8746 12.8529C13.0746 12.8529 12.9746 12.4529 13.2746 12.7529C13.0746 12.7529 13.0746 13.1529 12.8746 12.8529Z" fill="white"/>
<path d="M12.875 10.5531C12.875 10.5531 12.775 10.4531 12.675 10.4531C12.775 10.5531 12.875 10.5531 12.875 10.5531ZM26.275 13.4531C26.275 13.4531 26.275 13.5531 26.375 13.5531C26.275 13.5531 26.275 13.5531 26.275 13.4531ZM10.375 19.0531C10.375 19.3531 10.475 19.0531 10.575 19.0531C10.475 19.0531 10.375 18.9531 10.375 19.0531ZM10.375 18.7531C10.475 18.7531 10.575 18.7531 10.775 18.7531C10.675 18.7531 10.475 18.6531 10.375 18.7531ZM12.775 18.2531C12.775 18.4531 12.475 18.3531 12.475 18.3531C12.975 18.4531 12.475 18.6531 12.475 18.8531C12.775 18.7531 12.675 18.5531 12.775 18.2531ZM13.375 18.0531H13.275C13.275 18.0531 13.275 18.0531 13.375 18.0531ZM13.575 18.1531C13.675 18.0531 13.675 17.8531 13.775 17.7531C13.575 17.6531 13.475 17.9531 13.375 18.0531C13.475 18.0531 13.575 17.9531 13.575 18.1531ZM18.675 18.0531C18.675 18.0531 18.575 18.0531 18.575 18.1531L18.875 18.0531C18.975 18.0531 18.775 18.0531 18.675 18.0531ZM19.475 17.3531C19.675 17.2531 19.675 17.5531 19.775 17.4531L19.675 17.1531L19.475 17.3531ZM20.675 17.4531V17.8531C20.775 17.7531 20.675 17.4531 20.675 17.4531ZM21.475 17.5531L21.375 17.6531L21.675 17.4531L21.475 17.5531ZM21.675 12.8531C21.675 13.1531 22.075 13.1531 22.275 13.2531C22.075 12.8531 21.875 13.2531 21.675 12.8531ZM13.275 10.8531L13.675 10.9531C13.375 10.6531 13.675 10.8531 13.275 10.8531Z" fill="white"/>
</mask>
<g mask="url(#mask1_82199_338)">
<path d="M8.67461 7.85291C8.57461 8.25291 9.07461 9.0529 9.57461 9.6529C9.77461 9.9529 10.2746 10.4529 10.6746 10.6529C11.2746 11.0529 11.6746 11.1529 12.2746 11.5529C12.7746 11.8529 13.3746 12.2529 13.9746 12.1529C14.1746 12.1529 14.6746 12.3529 14.8746 12.3529C15.3746 12.4529 15.4746 12.5529 15.9746 12.6529C16.1746 12.6529 16.3746 12.6529 16.5746 12.7529L17.8746 13.2529C18.9746 13.4529 19.2746 13.7529 20.1746 13.8529C20.4746 13.8529 20.7746 13.9529 21.0746 14.0529C21.1746 14.0529 21.2746 14.1529 21.3746 14.1529C21.5746 14.2529 21.7746 14.1529 21.9746 14.1529C22.6746 14.0529 23.2746 14.0529 23.9746 14.1529C24.5746 14.2529 26.1746 13.7529 26.7746 14.6529C27.8746 16.4529 24.3746 15.4529 23.4746 15.7529C22.9746 15.9529 22.3746 16.1529 21.7746 16.3529C20.5746 16.7529 22.5746 16.0529 17.7746 16.8529C16.9746 16.9529 16.6746 16.8529 15.7746 17.2529C15.2746 17.4529 14.6746 17.5529 14.1746 17.5529C14.1746 17.6529 13.8746 17.5529 13.8746 17.5529C13.6746 17.5529 13.8746 17.8529 13.7746 17.8529C13.5746 17.8529 13.4746 17.8529 13.2746 17.8529C11.5746 17.8529 9.97461 18.4529 8.47461 19.0529" stroke="#1D1D1B" stroke-width="3" stroke-miterlimit="10" stroke-linejoin="round" stroke-dasharray="42 42"/>
</g>
</g>
<defs>
<clipPath id="clip0_82199_338">
<rect width="28" height="25.5" fill="white" transform="translate(0.875 0.953125)"/>
</clipPath>
</defs>
</svg>
