<svg width="275" height="74" viewBox="0 0 275 74" fill="none" xmlns="http://www.w3.org/2000/svg">
<g clip-path="url(#clip0_82199_247)">
<mask id="mask0_82199_247" style="mask-type:luminance" maskUnits="userSpaceOnUse" x="1" y="0" width="274" height="73">
<path d="M209.182 5.79464C208.854 5.57241 208.854 5.94279 208.772 5.94279C209.346 6.16502 209.264 5.72056 209.182 5.79464Z" fill="white"/>
<path d="M258.291 8.31308H258.127L259.029 8.60938L258.291 8.31308Z" fill="white"/>
<path d="M262.39 11.7946C262.39 11.4242 262.062 11.1279 261.57 10.8316C261.078 10.5353 260.668 10.239 260.258 9.79458V9.57236H259.603C260.094 9.94273 260.668 10.3131 261.16 10.6835C261.652 10.9798 262.062 11.3502 262.39 11.7946Z" fill="white"/>
<path d="M263.374 15.5725C263.456 15.3503 263.948 15.8688 262.964 15.054C262.964 15.128 262.964 15.128 262.964 15.2021C263.21 15.2762 263.292 15.4243 263.374 15.5725Z" fill="white"/>
<path d="M263.046 14.0908C262.636 13.7204 263.21 14.4612 263.046 14.0908V14.0908Z" fill="white"/>
<path d="M264.849 17.128L264.521 16.9058C264.357 16.7577 264.193 16.6836 264.193 16.6836C264.193 16.8317 264.521 17.3503 264.357 17.2762C264.849 17.7206 264.849 17.5725 264.849 17.128Z" fill="white"/>
<path d="M265.588 17.4986L265.26 17.2764C265.26 17.2764 265.342 17.4245 265.588 17.4986Z" fill="white"/>
<path d="M264.604 16.6836L265.259 17.2021C265.259 17.054 265.423 16.9799 265.013 16.9799C265.177 16.9058 264.931 16.8317 264.604 16.6836Z" fill="white"/>
<path d="M264.439 16.1651C264.275 15.7947 263.947 15.3503 264.603 15.7947C263.619 14.7576 263.455 15.2021 264.439 16.1651Z" fill="white"/>
<path d="M263.046 11.5723L262.718 11.0538L262.227 10.8315C262.473 10.9797 262.882 11.7204 263.046 11.5723Z" fill="white"/>
<path d="M267.063 21.1281C267.227 21.1281 267.227 20.7577 267.309 20.6837L266.899 20.3133C267.063 20.5355 267.227 21.054 267.063 21.1281Z" fill="white"/>
<path d="M267.391 20.6839L267.965 21.2765C267.637 20.6839 267.473 20.6098 267.391 20.6839Z" fill="white"/>
<path d="M266.161 17.2021L265.014 16.3873L266.325 17.4244L266.161 17.2021Z" fill="white"/>
<path d="M268.539 23.943L268.129 23.6467L268.867 24.1652L268.539 23.943Z" fill="white"/>
<path d="M269.359 25.8688C269.031 25.6465 269.113 26.3873 268.867 26.1651C269.113 26.6095 269.441 26.9799 269.769 27.2762C269.523 26.8317 269.359 26.3873 269.359 25.8688Z" fill="white"/>
<path d="M268.539 22.6096C268.457 22.8318 268.457 23.0541 268.539 23.2763L268.703 22.9059L268.539 22.6096Z" fill="white"/>
<path d="M268.703 22.9058C268.785 23.128 268.867 23.2761 268.949 23.4984C268.949 23.4243 268.867 23.2021 268.703 22.9058Z" fill="white"/>
<path d="M267.146 19.2764C267.555 19.5727 268.293 20.3134 268.047 19.3504C267.637 19.2023 267.801 19.7208 267.146 19.2764Z" fill="white"/>
<path d="M268.703 21.9429L268.539 21.5726C268.457 21.3503 268.375 21.2022 268.375 21.2022C268.293 21.2763 268.293 21.4244 268.047 21.2763C268.047 21.2763 268.211 21.4244 268.375 21.6466L268.703 21.9429Z" fill="white"/>
<path d="M269.031 22.3134L268.703 22.0171L268.867 22.3134H269.031Z" fill="white"/>
<path d="M270.096 26.4617C270.342 26.758 270.588 27.1283 270.67 27.4987C270.588 27.0543 270.506 26.6098 270.26 26.1654C270.096 26.0913 269.85 26.0172 270.096 26.4617Z" fill="white"/>
<path d="M271.736 32.0172L271.818 31.9431H271.736V32.0172Z" fill="white"/>
<path d="M270.261 25.943C270.179 25.6467 270.097 25.4245 269.851 25.2763C270.015 25.4986 270.097 25.7949 270.261 26.0171C270.261 26.0912 270.342 26.0912 270.261 25.943Z" fill="white"/>
<path d="M270.753 29.1282C270.753 28.906 270.753 28.6838 270.753 28.5356C270.671 28.6838 270.671 29.0542 270.753 29.1282Z" fill="white"/>
<path d="M269.522 24.9058C269.44 24.9798 269.44 24.9798 269.522 24.9058V24.9058Z" fill="white"/>
<path d="M269.522 24.906C269.604 25.0541 269.768 25.1282 269.932 25.2763C269.85 25.1282 269.686 24.906 269.604 24.7578C269.522 24.8319 269.522 24.8319 269.522 24.906Z" fill="white"/>
<path d="M274.114 33.1283C273.95 33.1283 273.786 32.9061 273.622 32.5357C273.458 32.1653 273.458 31.7209 273.54 31.3505C273.13 30.6098 272.228 31.2764 271.736 32.0172C271.9 32.0172 271.982 32.0172 272.31 32.758C272.474 32.4616 272.392 30.9061 272.802 31.5727C273.212 32.6098 272.884 32.4616 272.72 32.9802C273.048 32.4616 273.458 34.3135 274.032 34.0172L273.704 33.0543C273.868 33.0543 274.032 33.3506 274.114 33.1283Z" fill="white"/>
<path d="M271.49 30.3875L271.408 30.0912C271.408 30.4616 271.408 30.906 271.244 31.2764C271.49 31.795 271.654 31.869 271.736 31.869L271.572 31.0542C271.572 30.7579 271.49 30.5357 271.408 30.2394L271.49 30.3875Z" fill="white"/>
<path d="M270.999 28.4618C271.409 28.61 271.737 29.3507 271.983 28.8322C271.655 27.8692 271.491 28.2396 271.163 27.721C271.737 29.2026 270.835 27.2766 270.999 28.4618C270.917 28.1655 270.753 27.9433 270.671 27.647C270.753 27.9433 270.753 28.1655 270.753 28.4618V28.3877C270.753 28.3137 270.753 28.3137 270.753 28.3877C270.835 28.3877 270.917 28.4618 270.999 28.4618C271.081 28.9063 270.917 28.5359 270.835 28.4618C270.835 28.4618 270.835 28.4618 270.753 28.4618C270.835 28.684 270.999 28.9063 271.081 29.2026L271.409 29.9433C271.245 29.4248 271.163 28.9063 270.999 28.4618Z" fill="white"/>
<path d="M269.113 19.7949C269.113 19.7949 269.113 19.869 269.031 19.869C269.195 19.9431 269.277 19.9431 269.113 19.7949Z" fill="white"/>
<path d="M269.359 20.5355C269.113 20.4614 268.949 20.2392 268.867 20.0911C268.785 19.7207 269.031 20.017 269.113 19.9429C268.867 19.7947 268.457 19.3503 268.703 20.017L268.785 20.0911C269.031 20.6837 269.113 21.6466 268.949 21.5726C269.195 21.2022 269.359 20.9059 269.359 20.5355Z" fill="white"/>
<path d="M270.507 24.5356C270.507 24.5356 270.671 24.8319 270.835 25.1282C270.999 25.4245 271.163 25.7209 271.163 25.7209V24.9801L270.999 25.0542C270.835 24.3134 270.671 24.6097 270.507 24.5356Z" fill="white"/>
<path d="M271.572 32.2395L271.162 32.0913L271.49 32.3876C271.654 32.5358 271.818 32.758 271.818 32.758C271.818 32.6839 271.736 32.5358 271.736 32.4617L271.572 32.2395Z" fill="white"/>
<path d="M271.818 34.0172H271.49L271.736 34.4617L271.818 34.0172Z" fill="white"/>
<path d="M6.68048 52.9064L6.35254 52.6101C6.43452 52.7583 6.59849 52.8323 6.68048 52.9064Z" fill="white"/>
<path d="M8.73041 55.6472H8.89437C8.7304 55.5732 8.64842 55.5732 8.73041 55.6472Z" fill="white"/>
<path d="M192.949 67.7956C192.293 67.6474 191.473 67.4252 191.637 67.7215L191.883 68.0178C192.211 67.8696 192.621 67.7956 192.949 67.7956Z" fill="white"/>
<path d="M95.8799 68.6104L95.9619 68.7586L96.4538 68.6104H95.8799Z" fill="white"/>
<path d="M91.6168 69.7213L90.8789 69.2769C91.1249 69.425 91.3708 69.5732 91.6168 69.7213Z" fill="white"/>
<path d="M1.84325 35.3506L1.51531 34.832C1.43332 35.5728 1.67928 35.2765 1.84325 35.3506Z" fill="white"/>
<path d="M268.375 52.0918C268.047 52.3881 267.801 52.6844 267.555 53.0548C268.047 52.6103 268.539 52.3881 268.375 52.0918Z" fill="white"/>
<path d="M10.4519 51.9434C10.2879 51.7953 10.124 51.7212 10.042 51.7953C10.2879 51.9434 10.4519 52.0175 10.4519 51.9434Z" fill="white"/>
<path d="M266.735 54.3139C266.817 54.2398 266.899 54.1657 266.981 54.1657C267.145 53.7953 267.309 53.499 267.555 53.2027C267.145 53.425 266.899 53.8694 266.735 54.3139Z" fill="white"/>
<path d="M154.99 1.05371C155.072 1.05371 155.072 1.05371 155.154 1.12779C155.154 1.05371 155.072 1.05371 154.99 1.05371Z" fill="white"/>
<path d="M210.084 5.94273C209.92 5.94273 209.592 5.86865 209.346 5.86865C209.592 5.94273 209.838 5.94273 210.084 5.94273Z" fill="white"/>
<path d="M271.573 41.2766C271.491 41.2025 271.573 40.9062 271.573 41.2766V41.2766Z" fill="white"/>
<path d="M271.572 40.7581L271.654 40.4618C271.654 40.3877 271.572 40.4618 271.572 40.7581Z" fill="white"/>
<path d="M271.49 41.7951C271.49 41.5729 271.572 41.4247 271.572 41.2025C271.572 41.2766 271.49 41.2766 271.49 41.2766C271.49 41.4247 271.49 41.5729 271.49 41.7951Z" fill="white"/>
<path d="M18.4863 10.0168H18.5683C18.8143 9.64645 18.6503 9.72052 18.4863 10.0168Z" fill="white"/>
<path d="M159.991 72.8327C160.401 72.5364 160.975 72.3882 161.549 72.5364L160.975 71.6475L159.991 72.8327Z" fill="white"/>
<path d="M6.27077 45.7211C6.27077 46.0915 6.35275 46.4619 6.43474 46.9063C5.45092 46.5359 4.5491 46.0915 3.72925 45.573C3.31933 45.3507 3.07338 45.3507 2.90941 45.9433C4.5491 45.8693 5.69688 46.9063 6.92664 47.9434C8.2384 48.9804 9.7961 49.9434 11.3538 49.7953C11.4358 50.0175 11.5998 50.3138 11.7637 50.536C11.5178 50.2397 11.3538 50.2397 11.0259 50.0175C11.3538 50.7582 12.2556 50.9064 13.4034 51.0545C14.7152 51.2027 15.9449 51.5731 17.0927 52.1657C17.9126 52.7583 18.2405 53.2027 17.1747 52.9064C17.1747 52.9064 17.9126 53.2027 18.7324 53.425L20.3721 53.9435C21.028 54.3139 20.3721 54.3139 19.7162 53.9435L21.7658 54.7583C22.8316 55.2028 23.9794 55.5731 23.9794 55.5731H23.8974C24.8812 55.7213 26.8489 56.0917 27.8327 56.2398C28.5705 56.7583 27.0128 56.0917 27.0128 56.3139L30.0463 56.9806C30.4562 57.4991 27.7507 56.9806 26.111 56.388C26.029 57.1287 26.6849 57.2769 27.8327 57.4991C29.4724 57.7954 31.1121 58.3139 32.5878 59.0547L29.8003 58.388C30.1282 59.2769 32.5058 59.7954 34.7194 60.9066C34.3094 60.5362 30.8661 58.4621 34.3914 59.2028C35.5392 59.7214 36.851 60.0177 38.1627 60.1658C37.4249 60.4621 39.1465 60.8325 41.2781 61.351L40.1303 61.7214C42.6719 62.1658 42.9998 61.9436 44.7215 62.0918C47.181 62.7584 47.017 63.1288 47.017 63.5733C51.0343 64.6103 45.2954 62.3881 50.3784 63.4251C51.9361 63.8696 53.5758 64.1659 55.1335 64.4622C56.8552 64.7585 58.7408 64.9066 61.1184 65.2029C63.4139 65.7955 60.2165 65.4252 60.8724 65.6474L63.7419 65.7215C64.3157 65.7955 63.9058 65.8696 63.7419 65.9437C65.8734 66.1659 64.6437 65.4992 67.8411 65.9437C69.3988 65.5733 73.0061 67.6474 77.6792 67.5733C78.4171 67.8696 76.8594 67.7956 76.8594 68.0178C82.6803 68.3141 81.7784 68.3882 86.7795 68.3882L88.5012 68.7585L90.2228 69.1289C87.8453 68.4622 91.8625 68.4622 95.2239 68.3882C94.404 68.0919 93.7482 67.8696 93.2562 67.7215C93.2562 67.7215 94.568 67.7956 95.7978 67.8696L98.3393 68.0178C98.8312 68.1659 98.1753 68.24 97.1915 68.3882C97.6014 68.3882 97.9294 68.3882 98.1753 68.3882C99.733 68.7585 98.5852 68.9067 97.1095 69.0548C96.6176 68.9067 96.1257 68.7585 95.6338 68.6104C94.1581 68.7585 92.6824 68.9808 92.6004 69.2771C93.1743 69.2771 93.7482 69.2771 94.404 69.2771C93.9941 69.3511 93.7482 69.3511 93.8301 69.4252C94.404 69.4993 94.9779 69.4252 95.5518 69.4252L96.2077 70.0919L96.6996 69.8697C96.6996 69.8697 98.2573 70.0919 99.897 70.3141C101.537 70.5363 103.094 70.7586 103.094 70.7586C108.341 70.6104 113.015 70.0919 120.721 70.3141C118.589 70.6104 119.983 70.9808 119.573 71.4252C117.77 70.8326 113.506 71.2771 109.571 70.9067C111.621 71.129 110.965 71.2771 110.391 71.3512C110.391 71.3512 112.277 71.3512 114.08 71.3512C115.884 71.3512 117.77 71.3512 117.77 71.3512C117.36 71.7215 119.081 71.7215 120.885 72.0179C119.901 71.203 126.46 71.7956 129.493 71.6475C129.575 71.9438 128.756 72.166 125.23 71.9438C128.919 72.6845 130.641 71.2771 134.33 71.8697C133.757 71.7956 133.183 71.7956 132.609 71.9438C134.74 71.7956 139.577 72.0919 138.43 72.3142H137.528C140.397 72.4623 144.824 72.5364 148.678 72.4623C152.449 72.3882 155.646 72.166 156.056 71.8697C156.138 71.9438 155.318 72.6845 154.991 72.8327L156.63 72.4623L160.074 71.6475C161.303 71.3512 162.533 71.0549 163.435 70.8326L164.911 70.4623C164.091 71.0549 167.944 72.3142 163.189 72.7586C165.239 72.8327 167.206 72.8327 169.256 72.6105C168.272 72.5364 166.714 71.8697 167.944 71.7956C171.633 72.3142 170.486 72.0919 174.995 72.4623C173.519 72.3882 174.749 71.4252 176.962 71.3512C176.716 71.4993 177.536 72.2401 176.798 72.3882L179.34 71.7956C180.652 71.4993 181.881 71.203 181.881 71.203C180.57 71.4253 182.045 71.9438 183.439 72.0919C182.783 71.9438 188.276 71.7956 189.67 71.6475H187.21C193.523 71.3512 192.375 70.0178 198.278 69.4993C197.704 69.7215 197.458 70.7586 200.656 70.5363C201.148 70.24 202.214 69.5734 203.607 68.8326C205.329 67.9437 207.133 67.277 209.018 66.8326L210.248 66.9807L211.888 66.6104C212.708 66.3881 213.527 66.24 213.527 66.24C212.216 67.0548 210.904 67.7215 209.428 68.3141C207.543 69.1289 205.657 69.7956 203.689 70.3882C206.149 70.3141 204.673 70.6104 207.952 70.166C209.428 70.24 206.477 70.7586 205.493 70.8326L209.592 70.4623C211.642 70.3141 213.609 70.0178 213.609 70.0178C213.117 69.7956 214.429 69.4993 215.741 69.1289C217.053 68.7585 218.364 68.4622 217.955 68.3141C217.955 68.3141 216.151 68.7585 214.183 69.1289L211.56 69.4993C210.822 69.6474 210.33 69.7215 210.33 69.7215C209.838 69.4993 210.658 68.9808 212.216 68.4622C213.117 68.1659 214.101 67.8696 215.085 67.6474C216.315 67.3511 217.463 67.1289 218.692 66.9807C220.332 66.9807 219.02 67.9437 219.348 68.0919C220.168 67.7956 220.988 67.5733 221.89 67.4252C222.792 67.203 223.611 67.0548 224.513 66.9807L222.71 67.6474C225.989 67.277 226.399 66.24 230.498 65.9437C231.728 65.7215 235.089 65.7955 234.761 65.4992C231.81 65.4251 228.285 63.9436 228.613 63.277L232.22 62.9066C234.024 62.7584 235.909 62.4621 236.811 62.4621C239.434 62.3881 236.401 64.0177 238.697 63.9436C238.451 63.7955 239.107 63.4251 239.353 63.277C240.746 63.0547 239.762 63.7214 242.058 63.0547C241.32 62.5362 246.813 61.7214 242.222 62.3881C244.108 61.6473 244.927 61.7955 247.305 60.9806C245.747 60.9806 246.977 59.4991 248.371 58.6843C248.863 58.7584 249.355 58.8324 249.847 58.7584C250.83 58.388 251.814 58.0917 252.634 57.7954C253.454 57.4991 254.192 57.2028 254.93 56.9806C256.487 56.462 257.963 55.8694 259.357 55.1287C260.013 55.0546 261.816 54.3879 261.898 54.8324C261.98 54.3879 262.308 53.9435 262.718 53.7213C265.669 52.9805 260.996 54.8324 263.784 54.3879C263.046 54.1657 264.932 52.9064 265.342 52.0916C264.522 52.1657 263.784 52.462 263.21 52.9805C262.636 53.4249 262.144 53.9435 261.734 54.462C260.832 54.3139 260.423 53.7953 260.505 53.2027C260.668 52.3138 261.078 51.5731 261.734 50.8323C263.128 49.4249 263.784 50.4619 263.784 50.1656C265.506 48.9064 265.342 48.2397 265.096 47.7212C264.85 47.2026 264.85 46.6841 266.325 45.647C268.293 44.9063 268.949 45.7952 270.015 45.7211C269.605 46.9063 267.555 47.4249 266.899 48.1656L268.457 47.2767C268.375 47.9434 267.883 48.536 267.227 48.8323C267.801 48.6101 268.375 48.2397 268.867 47.8693C269.523 47.3508 270.097 46.7582 270.671 46.1656C271.818 44.8322 272.802 43.3507 273.868 42.3137C273.622 41.9433 273.376 41.2025 272.72 41.4988L272.638 42.1655C271.326 42.7581 271.736 40.8321 270.835 41.647C270.507 40.7581 269.605 39.721 270.425 38.4617L271.982 38.2395C271.572 38.2395 270.917 39.0543 271.326 39.4247C270.835 38.9062 273.622 37.4988 271.654 36.9062L270.589 37.7951C270.179 37.3506 269.687 36.8321 269.195 36.3136C268.703 35.9432 268.375 35.3506 268.457 34.758C267.063 35.2765 268.703 34.9802 267.063 35.795C268.047 35.4247 268.211 36.1654 268.211 36.758C268.211 37.3506 268.129 38.0173 269.277 37.4247C267.227 38.1654 268.293 38.758 266.325 39.7951C266.817 39.7951 267.391 39.4247 266.899 40.3877C267.063 40.4618 267.145 40.5358 267.227 40.6099C267.309 40.684 267.309 40.684 267.227 40.6099C267.473 40.3877 267.801 40.2395 268.129 40.1655C269.195 40.684 268.457 42.0914 268.867 42.61C268.293 43.1285 268.457 42.3877 267.719 42.61L268.129 43.3507C266.981 43.3507 265.506 44.61 265.588 43.3507L265.26 43.8692C265.178 44.0915 265.014 44.2396 264.85 44.3878C263.866 44.8322 263.128 45.4989 262.718 46.3878C261.98 46.8322 262.554 47.7952 262.226 47.2767C262.226 47.2767 262.144 47.3508 262.062 47.573C261.98 47.7952 261.816 48.0175 261.652 48.1656L260.914 49.0545H260.668C259.685 49.8693 258.783 50.7582 257.799 51.6471C256.241 52.7583 254.52 53.5731 252.634 54.0176C252.224 54.3139 251.896 54.5361 251.404 54.9065C250.666 55.2768 249.847 55.6472 249.027 55.8694H247.879C246.895 56.3139 245.911 56.6843 244.927 56.9806C243.78 57.3509 242.796 57.6472 242.878 57.8695C240.992 57.8695 239.107 58.5361 236.975 59.2028L233.778 60.2399C232.712 60.5362 231.728 60.8325 230.826 60.9806L231.482 61.351C230.334 61.6473 229.186 61.8695 228.121 62.2399C227.055 62.6103 225.825 62.9066 224.431 63.277L225.169 63.5733C223.53 64.0177 221.89 64.3881 220.168 64.5363L216.889 64.9066C215.741 65.0548 214.593 65.2029 213.527 65.3511C214.265 65.1289 215.003 64.9807 215.741 64.9807C214.265 64.9807 212.79 65.1289 211.314 65.3511C209.92 65.5733 208.608 65.7955 207.297 66.0918C204.673 66.6844 201.886 67.0548 199.18 67.1289C198.196 67.3511 197.131 67.4252 196.065 67.4252C196.147 67.4252 196.229 67.4252 196.393 67.3511C196.229 67.3511 196.065 67.3511 195.901 67.4252C195.245 67.4252 194.589 67.4252 193.933 67.4252C194.507 67.4252 195.163 67.4993 195.573 67.4993C194.589 67.5733 193.113 67.7956 191.72 67.9437L190.818 67.6474L190.49 67.7215C188.932 67.7215 189.424 68.0178 190.408 68.24C189.752 68.3141 189.178 68.4622 188.604 68.6104C186.964 68.0919 184.751 69.1289 182.701 68.5363C181.308 68.8326 179.914 68.9808 178.52 69.1289C176.634 69.3511 174.831 69.5734 174.585 69.8697C174.503 69.7956 174.011 69.7956 174.831 69.7215C173.191 69.6474 171.469 69.7215 169.83 69.9437L168.928 69.4993C168.928 69.4993 168.026 69.7215 167.124 69.8697L165.321 70.24C162.943 70.0178 161.959 69.8697 164.173 69.4252C158.762 70.0919 159.746 69.7215 155.073 70.3141L155.318 70.0178C153.597 70.0178 150.891 70.4623 149.908 70.166C148.022 69.8697 143.349 69.7956 137.938 69.6474C132.527 69.4993 126.46 69.203 121.787 68.6845C123.099 69.7215 117.606 68.0178 116.786 68.6845C116.376 68.4622 115.146 68.24 116.786 68.1659C111.785 68.0919 109.817 67.3511 106.128 67.6474C105.718 67.4252 107.358 67.4252 107.03 67.277C106.374 67.3511 105.636 67.277 104.98 67.203C104.57 67.0548 105.8 67.0548 106.62 67.0548C101.783 66.6844 100.717 67.277 99.815 67.8696C98.0113 67.3511 96.0437 67.203 94.1581 67.4993C93.5022 67.203 92.3544 66.8326 95.3878 67.1289C93.7482 66.9067 85.5497 65.7215 84.8119 66.1659C83.91 65.9437 83.0082 65.8696 82.0244 65.8696C78.4171 65.3511 78.0891 65.277 74.5638 64.7585L75.4656 64.9807C73.252 65.277 72.3502 64.6844 69.3988 64.2399L69.5628 64.1659C63.8238 62.6844 66.4473 63.8696 61.1184 62.314L60.8724 62.6844C59.8886 62.9807 58.7408 62.6103 57.3471 62.0918C55.7894 61.4251 54.1497 60.9806 52.428 60.6843L53.2478 61.1288C52.264 61.0547 51.2802 60.6103 50.6243 59.9436C50.1324 59.351 49.4766 58.9065 48.7387 58.5361C48.4928 58.388 49.5585 58.6102 50.2144 58.6843C46.6891 57.2028 48.5747 58.9806 45.0494 58.1658C44.9674 57.7954 47.181 57.8695 45.1314 57.2028C44.8035 56.9806 42.8358 56.6843 40.7042 56.3139C38.5726 55.9435 36.3591 55.3509 35.6212 54.7583C35.7032 55.1287 35.8671 55.425 34.1455 55.0546C31.8499 54.3879 30.7841 52.536 27.5867 52.2397C27.5047 52.0916 27.5867 52.0175 27.6687 52.0175C25.865 51.499 22.8316 50.1656 21.2739 49.8693C21.9298 49.573 21.6838 49.2027 21.11 48.7582C20.3721 48.2397 19.5522 47.7952 18.7324 47.4249C16.9287 46.5359 15.453 45.573 17.2567 45.4248C17.0927 45.3507 17.0107 45.2026 16.8468 45.1285C16.6828 44.9063 16.4368 44.6841 16.1909 44.3878L15.535 43.647C15.453 43.5729 15.2891 43.4248 15.2071 43.2766H15.617C15.0431 41.8692 13.8953 41.4248 12.9115 40.9062C13.0755 40.5359 13.4854 40.8321 13.7314 40.8321C13.7314 40.3136 13.7314 39.8692 13.7314 39.5729C13.8133 39.2766 13.7314 38.9803 13.6494 38.684C13.4854 38.3877 13.3214 38.0914 13.0755 37.8691C12.8295 37.5728 12.5836 37.2025 12.1736 36.758L13.4034 36.6099C13.2394 36.4617 13.3214 36.2395 13.4854 35.8691C13.7314 35.4987 14.1413 35.1284 14.4692 34.6098C14.7972 34.1654 15.371 33.6468 15.699 33.0542C15.8629 32.832 16.0269 32.5357 16.1089 32.2394C16.2729 32.0172 16.3549 31.7209 16.4368 31.4246C16.5188 31.4246 16.7648 31.4987 16.7648 31.7209C16.9287 30.5357 19.0603 29.2023 20.946 28.1653C22.7496 27.0541 24.2254 26.1652 22.8316 25.4986L22.9956 25.2763C23.1596 25.0541 23.2415 24.906 23.4055 24.7578L24.1434 24.0171C20.7 25.7949 22.9136 23.4245 20.946 24.0911C22.0118 23.3504 25.3731 22.4615 23.9794 23.3504L23.5695 23.4245C24.8812 24.0911 28.4885 21.3503 29.7183 21.7207C33.6536 19.9429 37.7528 18.4614 41.934 17.2762C46.4431 15.9428 51.2802 14.8317 56.0353 13.7206L54.9695 13.6465L53.7398 13.2021C53.7398 13.2021 54.5596 12.9798 55.4614 12.8317L57.1831 12.4613C58.3309 12.3872 59.1507 12.5354 56.6912 13.0539C58.4949 13.0539 60.2165 11.9428 60.1345 11.7946C65.3815 11.0539 59.3967 12.7576 60.8724 12.4613L62.84 12.0169H62.2661C63.4959 11.4983 63.168 11.202 66.3654 10.6835C68.4969 10.4613 67.9231 10.8317 68.7429 10.6835C68.8249 10.6835 69.0708 10.6835 69.9727 10.4613C69.9727 10.4613 71.1205 10.239 72.2682 10.0909L74.6458 9.72052L72.1862 9.64645C73.9079 9.12792 76.6134 8.97977 73.744 8.83162C75.8755 8.90569 80.3847 8.31309 84.8119 7.79456C89.239 7.27604 93.5022 6.75751 94.65 6.75751C97.8474 6.09083 101.209 5.72046 104.488 5.5723C103.422 5.5723 102.439 5.12785 105.882 4.90563C105.39 6.01676 112.441 4.90563 115.556 5.49823C112.851 5.12785 125.148 4.90563 120.967 4.3871C123.836 4.31302 121.295 4.75748 123.59 4.90563C130.231 4.23895 138.676 4.6834 147.038 4.46117C147.202 4.31302 145.726 4.0908 147.53 3.86857L152.039 4.53525C153.679 4.46118 153.597 3.72042 156.63 4.23895C156.22 4.0908 155.564 3.94265 156.712 3.86857C164.993 4.23895 173.519 4.31302 182.127 4.53525C190.572 4.6834 199.016 5.20193 207.379 6.23898C205.247 5.86861 206.805 5.94268 208.526 6.01676C207.461 5.86861 208.772 5.64638 208.608 5.49823L215.331 6.38713C216.889 5.94268 222.874 6.83158 223.939 6.38713L221.644 6.31306C225.005 5.94268 218.283 4.75748 219.102 4.0908C215.413 4.53525 210.74 2.60929 204.755 3.27597C203.607 3.05374 205.903 3.12782 205.329 2.90559C203.197 3.12782 201.066 3.12782 198.934 2.83152L199.344 2.75744C190.408 2.46114 186.8 1.94261 176.716 1.42409L177.372 1.79446C176.143 1.72039 174.995 1.64631 173.765 1.42409C171.141 1.94261 179.832 1.64631 177.372 2.16484C174.667 1.57224 162.123 2.09077 160.238 1.27594C156.876 1.27594 161.139 1.72039 157.86 1.64631L156.958 1.42409L156.056 1.72039C153.843 1.64631 152.777 1.35001 152.695 1.12779C153.269 1.12779 154.253 1.05371 154.827 1.05371C151.957 0.75741 146.71 1.12779 145.726 1.05371L149.006 1.20186C139.823 1.42409 128.51 1.35001 119.819 2.31299L120.557 2.46114C113.998 3.12782 115.064 2.53522 107.849 3.12782L108.095 3.05374C106.374 3.35005 104.652 3.57227 102.848 3.72042C104.488 3.35005 99.0771 3.64635 101.291 3.20189C94.404 4.16487 97.9294 3.72042 93.9121 4.83155L92.6824 4.60933C91.1247 5.12785 89.5669 5.49823 87.9273 5.64638C90.5508 5.05378 85.2218 5.49823 88.0912 4.83155C85.1398 4.90563 82.2703 5.20193 79.4009 5.86861C77.5152 6.31306 75.4656 6.53528 73.498 6.38713C71.3664 7.49826 80.3027 5.86861 78.745 6.31306C80.6306 6.31306 76.7774 7.20196 74.4818 7.49826C73.0881 7.57234 71.6943 7.64641 70.3006 7.57234C68.087 7.57234 65.7915 7.72049 63.6599 8.16494C64.2338 8.09087 64.1518 8.01679 64.7257 7.94271C62.3481 8.01679 61.0364 8.75754 58.0029 8.97977C57.4291 9.64645 54.7236 9.57237 55.3794 10.165L60.0526 9.05384C58.8228 9.42422 57.839 9.86867 56.5272 10.3131C54.8056 10.9057 53.0019 11.3502 51.1982 11.5724C51.7721 11.202 52.428 10.9057 53.0839 10.6835C51.4442 10.8317 50.7883 11.3502 49.1486 11.4983C48.7387 11.202 50.0505 10.8317 51.8541 10.4613C53.5758 10.0909 55.2155 9.64645 56.8552 9.12792C54.8875 9.20199 52.0181 10.6835 52.346 9.7946C52.0181 10.3872 50.7063 10.6094 49.1486 10.9057C47.6729 11.202 45.8692 11.5724 44.8034 12.2391L44.3115 11.9428C43.6557 12.3132 42.9178 12.6095 42.18 12.8317L42.9178 12.0169C41.0322 13.0539 36.9329 13.128 34.9653 14.091C40.1303 12.5354 37.0969 14.091 39.8024 13.6465C34.6374 15.9428 33.8995 14.0169 27.6687 16.4614C28.3246 16.091 31.604 15.4243 30.5382 16.0169C29.0624 16.4614 27.5047 16.8317 25.947 17.1281C22.0118 18.8318 27.5047 17.1281 26.357 17.9429C23.8154 18.2392 24.8812 18.9059 23.6515 19.6466L22.6677 19.4244C17.9126 21.2763 23.6515 20.3874 19.3063 22.017C19.3063 21.8689 19.3063 21.6466 19.3063 21.4985C19.3063 21.2763 19.3883 20.98 19.3883 20.98L18.6504 21.4985C18.4045 21.6466 18.1585 21.7948 17.9945 22.017L17.1747 21.5726C16.2729 22.8319 15.2891 23.0541 13.4034 24.0911C14.5512 23.943 15.1251 24.5356 13.8133 25.4986C12.2556 26.0912 13.2394 24.98 11.6817 26.3875C11.4358 26.0171 10.8619 25.4986 12.7475 25.0541C12.5016 24.98 12.5016 24.6837 12.2556 24.5356C10.37 25.1282 9.71412 26.3134 9.05824 26.8319C9.38618 26.6097 9.63213 26.4615 10.0421 26.3134C10.0421 26.3134 9.7961 26.8319 9.55015 27.4245C9.38618 27.943 9.30419 28.5357 9.30419 28.5357C8.56633 28.832 8.48435 28.5356 8.40236 28.2393C8.07443 28.6838 8.32038 28.9801 7.82847 29.6468C7.00863 29.4246 6.02482 29.3505 6.51672 28.4616C6.35275 28.8319 6.18878 29.1283 6.02482 29.4986C5.86085 30.0172 5.69688 30.5357 5.69688 30.5357C5.20497 30.6098 3.72925 31.4987 3.56528 31.2024C2.90941 31.7209 2.99139 32.4616 2.90941 33.2765C2.99139 33.8691 3.15536 34.6839 2.49949 35.4247C2.74544 35.5728 2.90941 35.795 2.90941 36.0173C2.4175 37.4247 1.18773 38.758 2.99139 40.4618L1.59766 41.4988C2.49949 42.8322 3.23734 40.0914 4.79505 42.3137C6.18878 43.7952 3.64727 42.9803 3.4833 43.5729C4.13917 43.8692 5.20497 44.3137 6.1068 44.9063C6.51672 45.1285 6.84466 45.4989 7.1726 45.8693C7.50054 46.1656 7.6645 46.5359 7.74649 46.9063C7.1726 46.61 6.68069 46.1656 6.27077 45.7211ZM34.3094 59.2028C33.4076 59.0547 31.522 58.7584 31.44 58.4621C32.4238 58.3139 33.4896 58.6102 34.3094 59.2028ZM101.455 69.6474C100.471 69.6474 99.569 69.5734 98.5852 69.2771C99.569 69.3511 100.553 69.4252 101.455 69.6474ZM265.014 45.4989C264.112 46.0915 264.44 45.8693 265.014 45.4989V45.4989ZM266.489 44.2396C266.407 44.0915 266.243 44.0915 266.079 44.1655C266.325 44.2396 266.161 44.5359 265.751 44.9063C266.161 44.8322 266.489 44.6841 266.489 44.2396ZM68.9069 10.6094L68.087 10.6835C69.5627 10.239 69.2348 10.4613 68.9069 10.6094Z" fill="white"/>
<path d="M92.7646 69.5733C92.6826 69.4992 92.6826 69.4251 92.6826 69.3511C92.6006 69.3511 92.5186 69.4251 92.7646 69.5733Z" fill="white"/>
<path d="M1.92573 35.4247C1.92573 35.3506 1.92573 35.3506 1.84375 35.3506L1.92573 35.4247Z" fill="white"/>
<path d="M263.046 64.4624C262.882 64.5365 262.636 64.6106 262.472 64.6846C262.472 64.6846 262.636 64.6846 263.046 64.4624Z" fill="white"/>
<path d="M271.654 37.3506L271.736 38.0914C271.736 37.8691 271.736 37.6469 271.9 37.4247C271.818 37.4247 271.654 37.5728 271.654 37.3506Z" fill="white"/>
<path d="M273.212 29.721C273.13 29.6469 273.13 29.4987 273.048 29.3506L272.884 29.4247C273.048 29.9432 273.294 30.2395 273.212 29.721Z" fill="white"/>
<path d="M272.966 36.4617C273.294 36.3876 273.13 35.8691 273.048 35.3506V35.4247C272.557 35.3506 272.802 35.8691 272.966 36.4617Z" fill="white"/>
<path d="M273.048 35.1284C273.048 34.9802 273.048 34.758 273.048 34.6098C272.802 34.6098 272.966 34.8321 273.048 35.1284Z" fill="white"/>
<path d="M271.654 42.61C271.818 42.3877 271.244 42.3877 271.408 42.2396C271.08 41.8692 271.572 44.0174 271.654 42.61Z" fill="white"/>
<path d="M274.032 36.0173L273.622 36.2395L273.95 36.5358L274.032 36.0173Z" fill="white"/>
<path d="M273.54 40.8321C273.54 40.8321 273.622 40.6099 273.622 40.3877L273.704 39.9432C273.622 39.9432 273.622 39.8692 273.622 39.721C273.54 40.2395 273.376 40.8321 273.54 40.8321Z" fill="white"/>
<path d="M273.622 39.5729C273.704 39.3506 273.622 39.0543 273.622 38.8321C273.54 39.1284 273.54 39.3506 273.622 39.5729Z" fill="white"/>
<path d="M274.114 37.4248L274.032 37.7211V38.3878L274.114 37.4248Z" fill="white"/>
<path d="M270.589 51.0545L270.261 52.0175C270.343 52.1657 270.507 51.9434 270.671 51.5731C270.671 51.2768 270.835 50.9805 270.589 51.0545Z" fill="white"/>
<path d="M272.885 48.314C272.721 48.5362 272.639 48.5362 272.475 48.6843L272.967 48.8325L272.885 48.314Z" fill="white"/>
<path d="M271.818 51.4252C271.9 51.5733 271.49 52.9067 272.064 51.7215C271.982 51.5733 272.31 50.6103 271.818 51.4252Z" fill="white"/>
<path d="M260.751 64.4619L260.997 64.3138L260.505 63.7212L260.751 64.4619Z" fill="white"/>
<path d="M196.147 71.6475C197.541 71.4993 196.311 71.129 197.623 71.0549C197.869 70.8327 196.557 71.129 196.885 70.9067C196.065 71.2771 195.573 71.2771 196.147 71.6475Z" fill="white"/>
<path d="M196.721 70.9067C196.885 70.8327 196.967 70.7586 197.131 70.6845C196.967 70.7586 196.803 70.8327 196.721 70.9067Z" fill="white"/>
<path d="M224.104 6.83158L224.923 7.12788L224.431 6.75751L224.104 6.83158Z" fill="white"/>
<path d="M257.881 6.60934L257.963 7.12787L258.537 6.83157C258.373 6.75749 258.045 6.7575 257.881 6.60934Z" fill="white"/>
<path d="M13.4852 62.3881L13.6491 62.314C13.6491 62.1658 13.4852 62.0177 13.1572 61.7214L13.4852 62.3881Z" fill="white"/>
<path d="M5.69727 52.2397L5.77925 52.4619L5.94322 51.9434L5.69727 52.2397Z" fill="white"/>
<path d="M1.43359 42.9063C1.51558 43.2766 1.67955 43.7211 1.76153 44.1656C1.43359 43.2766 2.00748 42.684 1.43359 42.9063Z" fill="white"/>
</mask>
<g mask="url(#mask0_82199_247)">
<path d="M225.743 5.57229C224.104 5.64637 222.464 5.64637 220.824 5.42414C212.462 4.53524 207.133 5.27599 199.754 4.38709C194.753 3.79448 186.801 3.72041 181.8 3.20188C168.026 1.6463 154.335 2.68335 140.479 2.97966C134.085 3.12781 128.018 4.16486 121.623 4.01671C105.39 3.64633 88.8292 6.4612 72.8423 8.97976C48.9028 12.8317 15.6171 20.9059 7.58266 33.5728C7.00877 38.9062 6.8448 39.4247 9.22235 43.3507C11.9278 47.7952 13.7315 48.0915 15.4532 48.8323C23.3237 52.462 30.7023 57.7213 39.4746 58.8324C43.4918 59.351 47.5091 61.2028 51.5263 61.7954C62.0203 63.351 72.5143 66.8326 82.9263 66.9066C86.6976 66.9066 88.9112 66.6844 92.5185 67.6474C95.7159 68.5363 98.8313 67.4993 102.029 68.3141C104.652 68.9808 107.44 68.1659 110.145 68.1659C114.49 68.1659 121.049 70.166 125.394 70.3882C137.692 70.9067 140.807 71.6475 150.318 70.6104C161.385 69.4252 173.109 69.9437 184.095 68.7585C189.506 68.1659 194.835 67.6474 200.246 67.0548C214.593 65.4992 229.351 63.8696 242.304 58.1658C244.846 57.0546 247.961 55.7213 250.421 56.9806C251.732 56.388 253.208 56.2398 254.602 55.7213C260.751 53.499 267.391 46.5359 269.359 44.4618C270.999 40.3877 270.753 36.0913 271.081 30.6838C271.409 24.6096 268.457 18.8318 265.588 13.2761C263.866 10.0168 261.488 7.79455 257.799 6.53527C255.422 5.72044 253.126 4.68339 250.584 4.46116C247.141 4.09078 246.403 4.68339 242.222 4.90561C238.697 5.12784 234.106 4.16486 230.58 4.90561C228.941 5.20191 227.383 5.42414 225.743 5.57229Z" stroke="#202020" stroke-width="10.9101" stroke-miterlimit="10" stroke-dasharray="545.51 545.51"/>
</g>
</g>
<defs>
<clipPath id="clip0_82199_247">
<rect width="273.828" height="72.5938" fill="white" transform="translate(0.859375 0.609375)"/>
</clipPath>
</defs>
</svg>
