<svg width="391" height="390" viewBox="0 0 391 390" fill="none" xmlns="http://www.w3.org/2000/svg">
<path d="M4.57031 116V12.875H45.8203V32.7969H25.5469V52.8945H45V72.2891H25.5469V95.9023H47.168V116H4.57031Z" fill="#202020"/>
<path d="M53.9766 116V12.875H75.1875L84.6797 62.2695V12.875H104.602V116H84.4453L74.1328 64.4375V116H53.9766Z" fill="#202020"/>
<path d="M136.594 116.938C131.945 116.938 127.707 116.039 123.879 114.242C120.051 112.445 117.004 109.789 114.738 106.273C112.512 102.719 111.398 98.3633 111.398 93.207V67.3672H131.789V91.9766C131.789 93.7734 132.141 95.2188 132.844 96.3125C133.586 97.4062 134.758 97.9531 136.359 97.9531C139.445 97.9531 140.988 96.0586 140.988 92.2695V12.875H161.789V90.2188C161.789 95.6875 160.715 100.434 158.566 104.457C156.418 108.441 153.449 111.527 149.66 113.715C145.871 115.863 141.516 116.938 136.594 116.938Z" fill="#202020"/>
<path d="M194.32 116.938C186.078 116.938 179.77 114.457 175.395 109.496C171.059 104.496 168.891 97.2891 168.891 87.875V38.8906C168.891 30.0625 171.039 23.3633 175.336 18.793C179.672 14.2227 186 11.9375 194.32 11.9375C202.641 11.9375 208.949 14.2227 213.246 18.793C217.582 23.3633 219.75 30.0625 219.75 38.8906V87.875C219.75 97.2891 217.562 104.496 213.188 109.496C208.852 114.457 202.562 116.938 194.32 116.938ZM194.496 97.9531C197.621 97.9531 199.184 94.9258 199.184 88.8711V38.5391C199.184 33.4609 197.66 30.9219 194.613 30.9219C191.176 30.9219 189.457 33.5195 189.457 38.7148V88.9883C189.457 92.1914 189.848 94.4961 190.629 95.9023C191.41 97.2695 192.699 97.9531 194.496 97.9531Z" fill="#202020"/>
<path d="M240.551 116V82.0742L224.086 12.875H244.535L250.277 47.7969L256.02 12.875H276.41L260.004 82.0742V116H240.551Z" fill="#202020"/>
<path d="M4.57031 246V142.875H25.1953V228.422H46.4062V246H4.57031Z" fill="#202020"/>
<path d="M51.3359 246V142.875H71.2578V246H51.3359Z" fill="#202020"/>
<path d="M79.4609 246V142.875H120.711V162.973H100.203V179.379H119.656V199.242H100.203V246H79.4609Z" fill="#202020"/>
<path d="M127.336 246V142.875H168.586V162.797H148.312V182.895H167.766V202.289H148.312V225.902H169.934V246H127.336Z" fill="#202020"/>
<path d="M229.359 246.938C219.945 246.938 213.148 244.594 208.969 239.906C204.828 235.219 202.758 227.758 202.758 217.523V207.445H223.148V220.336C223.148 222.719 223.5 224.594 224.203 225.961C224.945 227.289 226.215 227.953 228.012 227.953C229.887 227.953 231.176 227.406 231.879 226.312C232.621 225.219 232.992 223.422 232.992 220.922C232.992 217.758 232.68 215.121 232.055 213.012C231.43 210.863 230.336 208.832 228.773 206.918C227.25 204.965 225.121 202.699 222.387 200.121L213.129 191.332C206.215 184.809 202.758 177.348 202.758 168.949C202.758 160.16 204.789 153.461 208.852 148.852C212.953 144.242 218.871 141.938 226.605 141.938C236.059 141.938 242.758 144.457 246.703 149.496C250.688 154.535 252.68 162.191 252.68 172.465H231.703V165.375C231.703 163.969 231.293 162.875 230.473 162.094C229.691 161.312 228.617 160.922 227.25 160.922C225.609 160.922 224.398 161.391 223.617 162.328C222.875 163.227 222.504 164.398 222.504 165.844C222.504 167.289 222.895 168.852 223.676 170.531C224.457 172.211 226 174.145 228.305 176.332L240.199 187.758C242.582 190.023 244.77 192.426 246.762 194.965C248.754 197.465 250.355 200.395 251.566 203.754C252.777 207.074 253.383 211.137 253.383 215.941C253.383 225.629 251.586 233.227 247.992 238.734C244.438 244.203 238.227 246.938 229.359 246.938Z" fill="#202020"/>
<path d="M259.305 246V142.875H279.227V246H259.305Z" fill="#202020"/>
<path d="M287.43 246V142.875H314.676C320.379 142.875 324.891 144.145 328.211 146.684C331.57 149.223 333.973 152.836 335.418 157.523C336.863 162.211 337.586 167.797 337.586 174.281C337.586 180.531 336.98 185.98 335.77 190.629C334.559 195.238 332.391 198.812 329.266 201.352C326.18 203.891 321.785 205.16 316.082 205.16H307.703V246H287.43ZM307.703 186.645H308.875C312.703 186.645 315.047 185.57 315.906 183.422C316.766 181.273 317.195 178.109 317.195 173.93C317.195 170.023 316.766 167.016 315.906 164.906C315.086 162.758 313.113 161.684 309.988 161.684H307.703V186.645Z" fill="#202020"/>
<path d="M4.57031 376V272.875H32.5195C40.0195 272.875 45.4688 274.711 48.8672 278.383C52.3047 282.016 54.0234 288.031 54.0234 296.43V300.941C54.0234 305.785 53.1445 309.711 51.3867 312.719C49.668 315.727 47.0312 317.699 43.4766 318.637C48.125 319.809 51.2305 322.562 52.793 326.898C54.3945 331.195 55.1953 336.449 55.1953 342.66C55.1953 349.34 54.5703 355.18 53.3203 360.18C52.0703 365.18 49.8047 369.066 46.5234 371.84C43.2422 374.613 38.5742 376 32.5195 376H4.57031ZM24.7266 311.723H28.9453C30.8594 311.723 32.0898 310.98 32.6367 309.496C33.1836 308.012 33.457 306.234 33.457 304.164V293.793C33.457 290.473 31.9922 288.812 29.0625 288.812H24.7266V311.723ZM26.7773 357.836C32.1289 357.836 34.8047 355.297 34.8047 350.219V337.328C34.8047 334.398 34.3555 332.094 33.457 330.414C32.5977 328.695 30.957 327.836 28.5352 327.836H24.7266V357.719C25.5859 357.797 26.2695 357.836 26.7773 357.836Z" fill="#202020"/>
<path d="M74.4727 376V342.074L58.0078 272.875H78.457L84.1992 307.797L89.9414 272.875H110.332L93.9258 342.074V376H74.4727Z" fill="#202020"/>
<path d="M168.172 376.938C158.758 376.938 151.961 374.594 147.781 369.906C143.641 365.219 141.57 357.758 141.57 347.523V337.445H161.961V350.336C161.961 352.719 162.312 354.594 163.016 355.961C163.758 357.289 165.027 357.953 166.824 357.953C168.699 357.953 169.988 357.406 170.691 356.312C171.434 355.219 171.805 353.422 171.805 350.922C171.805 347.758 171.492 345.121 170.867 343.012C170.242 340.863 169.148 338.832 167.586 336.918C166.062 334.965 163.934 332.699 161.199 330.121L151.941 321.332C145.027 314.809 141.57 307.348 141.57 298.949C141.57 290.16 143.602 283.461 147.664 278.852C151.766 274.242 157.684 271.938 165.418 271.938C174.871 271.938 181.57 274.457 185.516 279.496C189.5 284.535 191.492 292.191 191.492 302.465H170.516V295.375C170.516 293.969 170.105 292.875 169.285 292.094C168.504 291.312 167.43 290.922 166.062 290.922C164.422 290.922 163.211 291.391 162.43 292.328C161.688 293.227 161.316 294.398 161.316 295.844C161.316 297.289 161.707 298.852 162.488 300.531C163.27 302.211 164.812 304.145 167.117 306.332L179.012 317.758C181.395 320.023 183.582 322.426 185.574 324.965C187.566 327.465 189.168 330.395 190.379 333.754C191.59 337.074 192.195 341.137 192.195 345.941C192.195 355.629 190.398 363.227 186.805 368.734C183.25 374.203 177.039 376.938 168.172 376.938Z" fill="#202020"/>
<path d="M198.117 376V272.875H218.039V376H198.117Z" fill="#202020"/>
<path d="M226.242 376V272.875H253.488C259.191 272.875 263.703 274.145 267.023 276.684C270.383 279.223 272.785 282.836 274.23 287.523C275.676 292.211 276.398 297.797 276.398 304.281C276.398 310.531 275.793 315.98 274.582 320.629C273.371 325.238 271.203 328.812 268.078 331.352C264.992 333.891 260.598 335.16 254.895 335.16H246.516V376H226.242ZM246.516 316.645H247.688C251.516 316.645 253.859 315.57 254.719 313.422C255.578 311.273 256.008 308.109 256.008 303.93C256.008 300.023 255.578 297.016 254.719 294.906C253.898 292.758 251.926 291.684 248.801 291.684H246.516V316.645Z" fill="#202020"/>
</svg>
