<svg width="84" height="65" viewBox="0 0 84 65" fill="none" xmlns="http://www.w3.org/2000/svg">
<rect width="84" height="65" fill="#FBED81"/>
<g clip-path="url(#clip0_82199_121)">
<mask id="mask0_82199_121" style="mask-type:luminance" maskUnits="userSpaceOnUse" x="16" y="30" width="47" height="6">
<path d="M61.2777 32.9458C61.3107 32.927 61.3455 32.9117 61.3817 32.8999C61.2707 32.8794 61.2184 32.8779 61.2777 32.9458Z" fill="white"/>
<path d="M62.7519 32.7643C62.2905 32.7045 61.8217 32.7507 61.3809 32.8993C61.7449 32.9736 62.7597 33.3293 62.7519 32.7643Z" fill="white"/>
<path d="M61.415 33.8684L61.8675 33.717C61.5451 33.5516 61.6589 33.8224 61.415 33.8684Z" fill="white"/>
<path d="M61.4717 33.3426L61.401 33.1304L61.1846 33.3242L61.4717 33.3426Z" fill="white"/>
<path d="M42.3245 31.5004C42.3589 31.3966 42.3518 31.2837 42.3047 31.1851L42.3245 31.5004Z" fill="white"/>
<path d="M41.6508 32.1868C41.5798 32.2125 41.5064 32.231 41.4316 32.2419C41.47 32.2479 41.5092 32.2462 41.5469 32.2367C41.5845 32.2273 41.6199 32.2103 41.6508 32.1868Z" fill="white"/>
<path d="M43.1461 31.5322L42.9375 31.5004C43.0021 31.532 43.075 31.5431 43.1461 31.5322Z" fill="white"/>
<path d="M52.7959 32.246C52.9479 32.0997 53.0943 31.9674 53.2067 31.8762C52.8029 31.7044 52.8524 32.0481 52.7959 32.246Z" fill="white"/>
<path d="M38.2256 34.5682L38.1351 34.3999C38.1019 34.4756 38.0934 34.5491 38.2256 34.5682Z" fill="white"/>
<path d="M41.9211 34.3504C41.9083 34.2721 41.8809 34.1968 41.8405 34.1284C41.8233 34.1407 41.8068 34.1539 41.791 34.168L41.9211 34.3504Z" fill="white"/>
<path d="M43.7744 31.7987L43.7914 31.8157L43.9279 31.7145C43.8324 31.6813 43.7829 31.711 43.7744 31.7987Z" fill="white"/>
<path d="M37.0601 34.6934C37.0047 34.8094 36.9696 34.934 36.9561 35.0619C37.0162 35.0245 37.0602 34.966 37.0794 34.8978C37.0987 34.8297 37.0918 34.7567 37.0601 34.6934Z" fill="white"/>
<path d="M41.4355 32.2339V32.241L41.4638 32.2353C41.4532 32.2333 41.4468 32.2368 41.4355 32.2339Z" fill="white"/>
<path d="M43.1486 34.168C43.0695 34.1948 42.9938 34.214 42.9111 34.25C42.9321 34.2603 42.9549 34.2663 42.9782 34.2678C43.0015 34.2692 43.0249 34.266 43.047 34.2584C43.069 34.2508 43.0894 34.2389 43.1068 34.2234C43.1243 34.2078 43.1385 34.189 43.1486 34.168Z" fill="white"/>
<path d="M52.8628 32.1599L52.7363 32.2865C52.7691 32.2841 52.7999 32.27 52.8231 32.2467C52.8463 32.2235 52.8604 32.1927 52.8628 32.1599Z" fill="white"/>
<path d="M59.8713 32.5133C59.7114 32.5034 59.6987 32.6236 59.6973 32.741C59.7784 32.6859 59.8395 32.606 59.8713 32.5133Z" fill="white"/>
<path d="M17.2708 32.7593L17.21 32.765C17.2198 32.7692 17.2305 32.7708 17.2411 32.7698C17.2517 32.7689 17.2619 32.7652 17.2708 32.7593Z" fill="white"/>
<path d="M23.1391 32.1599C23.1614 32.1178 23.1765 32.0721 23.1837 32.0249C23.1207 31.9831 23.113 32.0602 23.1391 32.1599Z" fill="white"/>
<path d="M26.1999 35.3952L26.8805 34.9804C26.9384 35.1373 27.2924 35.1775 27.098 35.3606L27.3362 35.087L27.3574 35.268C28.6534 35.5649 29.3834 34.231 30.7868 34.9846L30.7812 35.0524L31.3924 34.6191C31.5337 34.6629 31.6475 34.979 31.8885 35.0899C31.7048 34.752 32.2898 35.0432 32.3528 34.7498C32.5542 34.8848 32.403 34.9754 32.3903 35.1097C33.1541 35.4228 33.564 34.8573 34.3689 35.0785C33.9353 34.8366 33.4665 34.6639 32.9796 34.5667C33.5364 34.3618 33.7208 34.6989 34.3427 34.5845L34.077 34.7428C34.5321 35.2362 35.0027 34.4501 35.2381 35.0121C35.6076 34.9252 35.8047 34.3604 36.3009 34.4508L36.216 34.9457L36.6478 34.9464L36.5736 34.6078C36.6244 34.5956 36.6779 34.6015 36.7248 34.6245C36.7718 34.6474 36.8093 34.686 36.8308 34.7336C37.0337 34.3441 37.4986 34.5533 37.8315 34.2529L37.917 34.419C37.9398 34.3807 37.9583 34.3399 37.9721 34.2975C38.1226 34.5894 38.4208 34.4805 38.5014 34.7505C38.3863 34.8163 38.1205 34.9733 38.1028 34.793C37.852 35.1287 38.5508 34.9754 38.7678 34.9761C38.4993 34.8205 38.7876 34.7739 38.9035 34.7074C38.9345 34.7526 38.8964 34.7753 38.8943 34.8396C39.3423 35.022 39.2844 34.1667 39.6942 34.7534L39.6914 34.4381L40.0624 34.6679C39.9445 34.0381 40.5005 34.6057 40.4158 34.0204C40.7789 34.002 40.4503 34.3802 40.567 34.313C40.9372 34.4359 41.405 33.8606 41.5895 34.1568C41.8354 33.9391 42.1887 34.0762 42.4085 33.9497L42.4884 34.219C42.6036 34.1532 42.7265 34.0204 42.865 34.0671C42.873 34.1053 42.8664 34.1451 42.8466 34.1787C43.2517 34.0475 43.6759 33.9854 44.1016 33.9949C44.1186 34.1744 44.1434 34.2868 43.9207 34.3512C44.3632 34.6043 44.8599 34.0055 45.4648 34.1045L45.4549 34.236L45.7298 34.0161C45.681 34.1088 45.7482 34.1956 45.7715 34.308C46.3453 34.3646 47.0337 34.3547 47.201 33.8196C47.0767 33.9526 47.524 34.1426 47.2505 34.3583C47.7374 33.9971 48.4787 34.0812 49.0835 33.9907L49.066 33.973L49.2977 33.8429L49.3281 33.8889L49.1649 33.9815C49.3964 33.9523 49.6136 33.8537 49.7881 33.6988C49.8699 33.8678 49.989 34.0159 50.1365 34.132C50.0665 33.7949 50.9358 34.4409 51.1611 34.0656C51.2227 34.1568 51.0432 34.1313 51.1753 34.2465C51.9434 34.1992 53.0061 33.8048 53.9935 34.0784C53.9249 33.4273 54.7432 33.6111 55.1764 33.3106C55.3848 33.6973 54.9354 33.5051 54.8641 33.7928C55.1276 33.7115 55.0259 34.2671 55.4626 33.9674C55.4556 34.0352 55.4846 34.0798 55.3784 34.077C55.6626 34.108 55.2159 33.6019 55.6746 33.7285L55.7495 33.9999L55.9389 33.6478C56.8603 33.8316 57.579 33.6372 58.4171 33.9341C58.4503 33.8741 58.403 33.7419 58.2892 33.6648C58.6426 33.6832 58.9606 33.2406 59.4199 33.5234L59.335 33.6323C60.029 33.8811 59.9195 33.3206 60.6608 33.2392C60.4819 33.2103 60.1286 33.3969 60.0248 33.0795C60.0488 32.8802 60.4452 32.9191 60.6084 33.0824L60.4671 32.7205C60.4041 32.9402 60.1152 32.9071 59.9195 33.0109C59.9717 32.9827 59.9696 32.907 59.9767 32.8378C59.8085 32.9522 59.5492 32.9417 59.2942 33.0314L59.6933 33.0689C59.61 33.4224 59.0383 33.0456 58.9132 33.1749C58.8453 32.837 59.0941 32.8908 58.8009 32.6131C58.1246 32.4766 58.5005 32.9586 57.9535 33.2513L58.0843 33.3679C57.8977 33.4061 57.8179 33.7603 57.485 33.5023C57.4412 33.2774 57.6582 33.2852 57.7436 33.1771C57.6539 33.0406 57.4751 33.5701 57.213 33.3361C57.3282 33.0272 57.7783 32.912 58.1054 32.9227C58.0429 32.8221 58.0196 32.7021 58.0397 32.5855C57.1314 32.9451 56.1517 33.0876 55.1786 33.0017C55.5912 32.589 54.9601 32.994 54.9785 32.5487C54.9757 32.8611 54.6131 32.5593 54.3779 32.6858C54.2012 32.345 54.8471 32.4327 54.5827 32.198C54.0981 32.2716 53.5518 32.8802 52.8748 32.7515C52.891 32.618 53.0394 32.5996 53.0472 32.5338C52.6345 32.6328 52.2507 33.4054 51.8403 32.8817C52 32.6907 52.1957 32.4851 52.3787 32.302C52.2773 32.2866 52.1828 32.2413 52.1073 32.1719L52.2092 31.9288C51.6714 31.846 51.9278 32.4575 51.7081 32.7635L51.3131 32.4179C51.0653 32.3054 50.7843 32.2901 50.5257 32.3749C50.2672 32.4597 50.0498 32.6385 49.9167 32.876C49.8072 32.8724 49.3741 32.8633 49.48 32.5522C49.6751 32.1309 49.7443 31.8424 50.3281 31.8326C50.4786 32.1245 49.9633 32.1605 50.1422 32.1868C50.3654 32.1274 50.8502 32.3592 50.988 32.0955L50.3668 32.1245C50.2729 31.6743 50.6234 32.1083 50.6856 31.8863C50.4361 31.5223 50.1733 31.9196 49.8708 31.7118L49.9089 31.6906C49.4256 31.7725 49.4744 31.68 49.02 31.8729C49.0821 32.2773 49.2447 32.1245 49.5167 32.2878C48.714 32.2907 47.7926 33.0527 46.8223 32.3422L47.2243 31.991C46.9056 31.9182 46.4654 32.2907 46.3771 31.7725C46.7594 31.9372 46.539 31.6191 46.6937 31.5322L46.7247 31.5774C46.7629 31.5562 46.8789 31.4912 46.7806 31.4213C46.534 31.654 46.2442 31.8363 45.9277 31.9577C46.0294 31.8447 45.722 31.6814 45.6704 31.6028C45.4054 31.687 45.7185 31.8277 45.7715 31.9867C45.623 32.0065 45.445 32.2949 45.2571 32.0221C44.9928 31.793 45.4648 31.7803 45.4881 31.5788L44.7235 31.945L44.7313 31.8778C44.7208 31.9019 44.7054 31.9235 44.6859 31.9412C44.6665 31.9589 44.6435 31.9722 44.6185 31.9804C44.5936 31.9885 44.5671 31.9913 44.541 31.9885C44.5149 31.9857 44.4897 31.9774 44.467 31.9641C44.342 31.7824 44.527 31.7415 44.6677 31.7873C44.1596 31.5138 44.0232 32.3881 43.5173 31.8298L43.3066 31.9924C43.2741 31.9471 43.2113 31.8559 43.2495 31.8347L43.0502 32.0115C42.6325 32.1846 42.8388 31.6276 42.6643 31.535L42.6876 31.5385C42.5329 31.4756 42.3908 31.3124 42.477 31.2643L42.0523 31.5053L42.053 31.4961C41.9428 31.8283 41.258 31.911 41.405 32.5091C41.2672 32.4631 41.1379 32.3521 41.1768 32.2667C40.8298 32.3055 41.1528 31.8015 40.6008 31.8955C40.5741 31.781 40.6454 31.8071 40.7238 31.7625C40.5712 31.7513 40.5189 31.7923 40.509 31.8559C40.4884 31.7743 40.4553 31.6963 40.4108 31.6248C40.4595 31.8489 40.2109 31.8022 40.0716 31.7562L40.1853 31.3753C40.0949 31.5548 40.0172 31.5986 39.7685 31.552L39.8659 31.306C39.4963 31.393 39.9586 31.8227 39.4377 31.6156L39.9183 31.8418C39.4384 31.9273 39.7147 32.4016 39.5465 32.6251C39.1127 33.0039 38.3127 32.3268 38.0929 33.0894C37.9735 32.8413 38.018 32.7515 37.8216 32.548C37.9575 32.5235 38.0818 32.456 38.1765 32.3555C38.2711 32.2549 38.331 32.1267 38.3473 31.9896C38.8936 31.61 38.724 32.9135 39.2887 32.3317C39.1783 32.0178 38.96 32.0158 38.7996 32.1719C38.7176 31.9019 38.9176 31.7245 39.0391 31.5887C38.6717 31.7401 38.0166 31.4043 37.7756 31.446C37.6873 31.5909 37.4167 31.7937 37.2591 31.7139C37.3248 31.921 36.7362 32.0772 37.0358 32.5027C36.6281 32.6137 36.6238 31.9153 36.3228 32.4101C36.3977 32.0524 35.9871 32.162 36.0903 31.8467C36.3108 32.1606 36.6521 31.6453 36.8188 31.4205L36.1503 31.2409C36.3249 31.3307 36.156 31.5562 36.0797 31.5944L35.9284 31.3018C36.0034 32.0214 34.7116 30.8056 34.5993 31.6417C34.7843 31.5979 35.0133 31.8439 35.0162 31.4622C35.4281 31.6637 35.0706 32.0016 35.2988 32.2497C34.8013 32.5423 33.8339 32.0892 33.3506 32.6321C33.4078 32.4066 33.6947 32.4291 33.6502 32.1358C33.1598 31.9804 32.7725 32.6575 32.3146 32.929L32.3167 32.5466C31.9591 32.8859 32.111 32.4116 31.6673 32.5486C31.6977 32.5946 31.7952 32.7289 31.685 32.7289C31.2921 32.7091 31.5733 32.4165 31.2914 32.3253C30.9472 32.9128 30.967 31.9429 30.4321 32.2631L30.4413 32.1309C30.0229 32.3825 29.276 31.87 28.7439 31.8071C28.806 31.8976 29.1728 31.8021 29.2146 32.1634L28.5905 32.2815C28.5276 32.1917 28.2421 32.1719 28.3672 31.9676C28.4442 31.9216 28.5474 31.9882 28.6153 32.0108L28.4789 31.8248C27.922 32.0327 28.647 32.3634 28.729 32.7055C28.3792 32.5961 28.3488 32.9346 28.1326 32.936C27.9467 32.5989 28.4549 32.5515 28.0937 32.1903C27.857 32.0114 27.2902 32.2872 27.1581 32.63C26.6507 31.8467 25.8741 32.5105 25.7116 31.904C25.7434 31.9486 25.6883 32.1761 25.5158 32.0871L25.5646 31.9295C25.048 31.6658 25.2636 32.4963 24.952 32.367C24.925 32.2525 25.0022 32.208 25.0135 32.0722C24.3775 31.9479 24.265 32.8534 23.5782 32.5041C23.5839 32.4363 23.586 32.3705 23.6573 32.3896C23.6644 32.3218 23.557 32.3247 23.3995 32.4851L23.6693 32.7056C23.5365 33.4309 22.7578 32.4285 22.3119 32.6398C22.3204 32.5069 22.6842 32.4752 22.4454 32.2985C22.1232 32.3041 22.3494 33.0689 21.8745 32.7169C22.0257 32.6236 21.8822 32.2695 22.0278 32.1903C21.7684 32.15 21.5409 31.9479 21.5197 32.2278C21.4803 32.206 21.446 32.176 21.4193 32.1398C21.3926 32.1035 21.3741 32.0619 21.365 32.0179C21.2582 32.2362 20.9657 32.0962 20.7799 32.0377L20.7868 31.9033C20.6569 32.6301 20.2802 31.962 19.8824 32.0136L19.8979 31.81C19.7481 31.9033 19.5495 32.1585 19.1779 31.8729L19.2683 31.6213C19.0739 31.8072 18.5298 31.4382 18.4273 31.8248C18.3242 31.7598 18.5355 31.3675 18.1405 31.357C18.0918 31.5173 17.8295 31.6821 17.667 31.46C17.638 31.3477 17.65 31.2112 17.7837 31.3223C17.8543 31.3421 17.8182 31.3653 17.8126 31.4347L17.8988 31.2523C17.5532 31.0791 17.7038 31.4375 17.3561 31.3329C17.2572 31.1999 17.4084 31.1025 17.4176 30.9702L16.3428 31.4488C16.3661 31.629 16.5377 31.716 16.4877 31.9429L16.9102 31.9995C17.1773 32.2879 16.778 32.3423 16.6282 32.437L16.9144 32.4532C16.9356 32.4829 16.9392 32.5218 16.918 32.5388L17.1243 32.5148C16.665 32.9346 17.838 33.0392 17.313 33.3708C17.3923 33.3343 17.462 33.2798 17.5165 33.2115C17.571 33.1433 17.6087 33.0632 17.6268 32.9777C17.884 32.8802 17.8719 33.0817 18.0048 33.1947L17.6606 33.4768C18.2782 33.3468 17.6755 33.7928 18.1949 33.9829C18.679 33.7433 19.2188 34.6354 19.5051 34.6517C20.0449 34.5697 19.2062 34.3201 19.5065 34.1298C19.7983 34.0769 19.7064 34.33 19.917 34.3908L19.9488 33.9829C20.2767 33.9079 20.0619 34.3661 20.2173 34.2034C20.5565 34.4452 20.17 34.3625 20.182 34.6785C20.2244 34.5865 20.4894 34.4205 20.6547 34.5774C20.6816 34.6919 20.3205 34.7208 20.5664 34.7604C21.3735 34.5187 21.6971 34.9612 22.4518 34.8778L22.4355 35.0807C22.5118 35.034 22.5549 34.9428 22.6525 35.005L22.644 35.138C23.076 34.9841 23.5297 34.8996 23.9881 34.8877L23.7888 35.1393L24.1718 34.8396L24.2121 35.2009C24.2756 34.8403 24.8699 35.0531 25.2721 34.9337L25.3272 35.1613L25.5533 35.0213L25.5053 35.1811C25.759 35.1521 25.9689 34.7668 26.3094 34.9422C26.0982 34.8778 26.1419 35.2383 26.1999 35.3952ZM36.7171 34.5364L36.828 34.5215C36.8139 34.5369 36.7948 34.547 36.774 34.5499C36.7533 34.5529 36.7322 34.5486 36.7142 34.5378L36.5354 34.5654C36.5079 34.3526 36.6118 34.4932 36.7171 34.5364ZM53.5885 33.7992L53.2946 33.8358C53.3624 33.8598 53.5567 33.7532 53.503 33.9101C53.5405 33.8867 53.6507 33.8896 53.5885 33.7992ZM35.7828 32.3367L35.8748 32.1542L36.0317 32.379L35.7828 32.3367ZM33.3653 32.3585L33.593 32.2228L33.6255 32.2681L33.3951 32.4037L33.3653 32.3585ZM30.5084 34.4487C30.5763 34.0515 30.7557 34.4544 30.9154 34.2904C30.926 34.2727 30.9409 34.2579 30.9586 34.2473C30.9463 34.2636 30.9317 34.2781 30.9154 34.2904C30.8392 34.4261 30.7946 34.7774 30.5113 34.4459L30.5084 34.4487ZM36.0076 34.115C36.057 34.3399 35.7667 34.3844 35.7144 34.5427C35.5737 34.4967 35.7031 34.2954 35.7165 34.1603C35.6472 34.1377 35.6083 34.1596 35.5306 34.2048C35.4698 33.7285 35.8034 34.3604 36.0076 34.115ZM41.8129 33.7907L41.6121 33.9688L41.6835 33.9921L41.8129 33.7907ZM43.0572 33.9596C43.1193 33.9647 43.1817 33.9531 43.2378 33.926C43.294 33.8989 43.3419 33.8573 43.3766 33.8055C43.4112 33.7536 43.4314 33.6935 43.435 33.6312C43.4387 33.569 43.4256 33.5069 43.3972 33.4514C43.1759 33.5129 42.8176 33.4655 42.7506 33.756C42.8445 33.5757 42.7802 34.1801 43.0537 33.9631L43.0572 33.9596ZM32.9075 33.7794C33.0601 33.6889 33.1796 33.1693 33.5873 33.4386L33.3598 33.5743L33.429 33.5969L33.4106 33.7992C33.3527 33.259 33.0538 33.756 32.9075 33.7794ZM45.3058 33.5651C45.3656 33.5542 45.4222 33.5302 45.4718 33.495C45.5213 33.4598 45.5625 33.4141 45.5925 33.3612C45.6225 33.3083 45.6405 33.2495 45.6453 33.1888C45.6501 33.1282 45.6416 33.0673 45.6203 33.0103C45.7065 33.2139 45.3213 33.4294 45.1221 33.6075C45.1977 33.563 45.238 33.5425 45.3058 33.5651ZM45.0945 33.1813C44.9553 33.1353 44.9433 32.8887 44.7454 33.064C44.8324 33.2669 44.8507 33.7603 44.4691 33.5976C44.6529 33.2399 44.638 33.0598 44.9448 32.8859L45.0945 33.1813ZM44.6755 33.91L44.202 33.7518C44.3356 33.3199 44.472 33.7517 44.6755 33.91L44.8296 33.9624C44.8016 33.9652 44.7733 33.962 44.7467 33.9531C44.72 33.9442 44.6955 33.9298 44.6748 33.9108L44.6755 33.91ZM47.8504 33.8344L47.7565 33.9454C47.7848 34.0062 47.7805 34.0628 47.6435 34.077L47.7565 33.9454C47.6951 33.8302 47.5056 33.6973 47.8469 33.8365L47.8504 33.8344ZM45.0902 33.8797L45.493 33.8401C45.3531 33.7907 45.0753 33.6966 45.0902 33.8797ZM47.0075 33.5552C47.2003 33.5588 47.3926 33.5772 47.5826 33.6104C47.4993 33.7178 47.0957 33.7554 47.0096 33.5531L47.0075 33.5552ZM56.502 33.469L56.3176 33.1955L56.5742 33.1806L56.502 33.469ZM53.7193 33.0392L53.5723 33.0576L53.4784 32.9212L53.7193 33.0392ZM50.5463 32.7777C50.5712 32.7829 50.5944 32.7944 50.6136 32.8111C50.6328 32.8279 50.6474 32.8492 50.6559 32.8732C51.0014 33.0561 51.3923 33.1353 51.7816 33.1014C51.9441 33.264 51.6261 33.5002 51.5414 33.609C51.5032 32.6914 51.1364 33.6422 50.8092 33.322C50.8587 33.23 51.0325 33.2626 51.0509 33.1269C51.001 33.0841 50.9402 33.0561 50.8752 33.0461C50.8103 33.0361 50.7439 33.0445 50.6834 33.0703C50.6749 33.1353 50.6495 33.1863 50.6107 33.1842C50.6125 33.1607 50.6201 33.138 50.6328 33.1181C50.6454 33.0982 50.6629 33.0818 50.6834 33.0703C50.693 33.0039 50.684 32.9361 50.6573 32.8746C50.6142 32.85 50.5764 32.8171 50.5463 32.7777ZM46.6654 32.7324C46.6294 32.8138 46.7954 32.9191 46.599 33.0293C46.5746 32.9797 46.5679 32.9232 46.58 32.8692C46.5921 32.8152 46.6222 32.767 46.6654 32.7324C46.6796 32.7014 46.7213 32.6766 46.8209 32.6518C46.7624 32.6632 46.7084 32.6912 46.6654 32.7324ZM46.7558 32.2476L46.3163 32.6208L46.4463 32.4214L46.1347 32.5918C46.135 32.5194 46.1546 32.4484 46.1914 32.3861C46.2283 32.3238 46.2811 32.2725 46.3444 32.2375C46.4076 32.2024 46.4791 32.1848 46.5515 32.1866C46.6238 32.1884 46.6943 32.2094 46.7558 32.2476ZM45.4238 32.4915L45.9814 32.3677L45.9757 32.4172L46.0125 32.4129L45.9538 32.637L45.9757 32.4172L45.4238 32.4915ZM40.7408 32.9473L40.4559 32.9212C40.6021 32.7987 40.7892 32.7363 40.9796 32.7466C40.538 32.1139 40.8956 32.859 40.343 32.606C40.9146 32.6123 40.603 32.2186 40.5189 31.9648C40.4899 32.3317 39.7027 32.1153 40.0978 32.8725C40.2567 32.7205 40.6913 33.4181 40.7408 32.9473ZM37.0421 32.7438L36.7107 32.8095L37.0725 32.7883L37.0421 32.7438ZM27.4047 32.6039C27.4337 32.2638 27.9828 32.5741 28.0012 32.7537C27.9072 32.6201 27.6535 32.6463 27.4047 32.6039ZM23.9485 32.7218C24.1562 32.7883 24.3393 32.3535 24.5195 32.7572L24.1485 32.9219C24.0496 32.7876 23.9294 32.9288 23.9485 32.7218ZM21.4088 32.6808L21.3742 33.0887L21.4872 33.018L21.4088 32.6808ZM21.7295 32.2186C21.6576 32.1974 21.3996 32.2942 21.5282 32.4723L21.7295 32.2186ZM19.1552 32.5939L19.216 32.2306L19.0387 32.2129L19.1552 32.5939ZM19.387 32.8371C19.4287 32.7954 19.4287 32.7119 19.4188 32.6202C19.4853 32.5212 19.6266 32.4829 19.8004 32.5777C19.8224 32.7579 19.6894 32.6476 19.6125 32.695C19.6824 32.7155 19.8181 32.8258 19.9304 32.7558C19.7035 32.444 19.811 32.4426 19.7255 32.1719C19.2867 32.0157 19.3947 32.3613 19.4202 32.6187C19.4001 32.6513 19.387 32.6878 19.3819 32.7258C19.3768 32.7638 19.3797 32.8024 19.3905 32.8392L19.387 32.8371ZM20.8137 32.9227C20.7637 32.8797 20.7244 32.8257 20.6986 32.765C20.4216 32.6702 20.141 32.5819 20.329 32.2539L20.5735 32.2921C20.4661 32.2935 20.4993 32.3381 20.4936 32.4059C20.6979 32.5367 20.7523 32.3098 20.8632 32.2398C20.825 32.3697 20.5947 32.5367 20.6965 32.7614C20.77 32.7865 20.842 32.816 20.912 32.8498C20.9416 32.8046 20.9826 32.7791 21.0639 32.8901L21.0576 32.9586C21.018 32.9116 20.9682 32.8744 20.912 32.8498C20.8873 32.8944 20.864 32.9515 20.8137 32.9227ZM19.2591 33.1163C19.2534 33.1842 19.3185 33.2732 19.2761 33.3651L19.1652 33.4365C18.9602 33.3035 19.1164 33.1403 19.2612 33.1142L19.2591 33.1163ZM26.5547 32.8661C26.5921 32.8427 26.9843 32.8604 26.9298 32.6322L27.1157 32.9678C26.908 32.9014 26.7751 33.1757 26.8783 33.2421C26.684 33.0421 26.5667 33.1792 26.5575 32.8633L26.5547 32.8661ZM36.4599 32.7664C36.3779 32.8795 35.8246 32.6315 35.8564 33.059C35.5779 32.584 36.1836 32.6737 36.4613 32.7636L36.4599 32.7664ZM36.6295 33.2385C36.6688 33.227 36.7094 33.2201 36.7503 33.2181C36.8803 33.1262 36.7835 32.7848 37.0895 32.9706C37.045 33.0604 36.9107 32.9473 36.8704 33.0343C36.9369 33.2505 36.8874 33.2083 36.7531 33.2153C36.7358 33.2278 36.7159 33.2363 36.6948 33.24C36.6737 33.2436 36.6521 33.2424 36.6316 33.2364L36.6295 33.2385ZM31.1225 33.6294L31.408 33.6507L31.5132 33.3318L31.1225 33.6294ZM28.5389 34.0353L28.7594 33.9659L28.6569 33.8988C28.6365 33.816 28.5616 33.6959 28.6125 33.6394C28.6497 33.6344 28.6856 33.6223 28.7184 33.604C28.6993 33.6022 28.6799 33.6044 28.6617 33.6105C28.6434 33.6166 28.6267 33.6264 28.6125 33.6394C28.445 33.6655 28.2259 33.6444 28.2634 33.8811C28.3107 33.7872 28.6287 33.7872 28.6505 33.9674L28.5389 34.0353ZM23.1019 34.342C23.2143 34.272 23.2199 34.2041 23.4566 34.3816C23.4014 34.4156 23.3364 34.4301 23.272 34.4228C23.2075 34.4155 23.1481 34.3875 23.1019 34.342ZM29.9565 34.2713C29.9367 34.0904 30.254 34.1561 30.0957 33.9313L29.9558 33.8875C30.1678 33.9582 29.9608 33.4372 30.2956 33.6818L30.1211 33.6613C30.3607 33.7723 29.943 34.0232 30.2936 34.1334C30.4314 34.1794 30.1247 34.359 29.9508 34.2699L29.9565 34.2713ZM22.8108 34.8439C22.9923 34.7951 22.8165 34.3236 23.1931 34.5434C22.9713 34.6142 23.1161 35.0418 22.8108 34.8439ZM28.204 35.0078L28.2358 35.0524L28.4612 34.9132L28.4302 34.8693L28.204 35.0078Z" fill="white"/>
<path d="M24.2525 32.4066C24.216 32.3908 24.1766 32.3824 24.1368 32.3819C24.097 32.3814 24.0574 32.3888 24.0205 32.4037C24.0969 32.4195 24.1757 32.4205 24.2525 32.4066Z" fill="white"/>
<path d="M37.3652 31.5571C37.3761 31.5898 37.3934 31.62 37.4163 31.6458C37.4392 31.6716 37.467 31.6925 37.4982 31.7071C37.4709 31.6443 37.4243 31.5918 37.3652 31.5571Z" fill="white"/>
<path d="M37.9727 31.4198L38.0038 31.4184L38.0229 31.3909L37.9727 31.4198Z" fill="white"/>
<path d="M59.5289 32.1098C59.6222 31.7322 59.3422 32.0405 59.1973 32.0327C59.3423 32.0405 59.4589 32.3128 59.5289 32.1098Z" fill="white"/>
<path d="M58.541 32.7054C58.5722 32.6492 58.6159 32.6009 58.6688 32.5642C58.7216 32.5276 58.7821 32.5035 58.8457 32.4939C58.7496 32.4784 58.6569 32.5144 58.541 32.7054Z" fill="white"/>
<path d="M59.4284 32.5763C59.2453 32.4963 59.0438 32.4679 58.8457 32.4943C58.9949 32.5162 59.1512 32.6696 59.4284 32.5763Z" fill="white"/>
<path d="M55.4679 32.4862C55.5916 32.2563 55.9629 32.3942 55.9629 32.3942C55.1659 32.1446 56.0109 31.953 56.0314 31.7769C55.5866 31.8427 55.6518 32.1411 55.4679 32.4862Z" fill="white"/>
<path d="M54.5088 32.5725C54.5842 32.5736 54.6584 32.5917 54.7258 32.6255C54.6964 32.6002 54.6614 32.5822 54.6236 32.5729C54.5859 32.5637 54.5466 32.5636 54.5088 32.5725Z" fill="white"/>
<path d="M54.1803 32.3335C53.9349 32.3809 53.9059 32.6461 53.8359 32.849C54.1923 33.0512 54.2927 32.6312 54.5105 32.5732C54.3267 32.5619 54.1541 32.5846 54.1803 32.3335Z" fill="white"/>
<path d="M49.9376 31.5431C49.9906 31.5155 50.1335 31.5211 50.1016 31.372L49.6689 31.355C49.5162 31.4384 49.8436 31.5099 49.9376 31.5431Z" fill="white"/>
<path d="M48.9025 32.0616C48.5645 32.0786 48.6515 31.696 48.498 31.7802L48.6388 32.2886L48.9025 32.0616Z" fill="white"/>
<path d="M49.4268 34.0204L49.518 33.9702L49.4062 33.9857L49.4268 34.0204Z" fill="white"/>
<path d="M47.4782 31.7345L47.5807 31.1738C47.3262 31.3124 47.4301 31.7628 47.4782 31.7345Z" fill="white"/>
<path d="M46.4536 31.4022L46.6134 31.231L46.0215 31.3887L46.4536 31.4022Z" fill="white"/>
<path d="M45.3225 31.5829L45.237 31.4619L44.8389 31.5984L45.3225 31.5829Z" fill="white"/>
<path d="M32.1904 32.0356C32.2484 32.5136 32.8834 32.3128 33.1146 32.4351C32.824 31.8348 32.6182 32.6374 32.1904 32.0356Z" fill="white"/>
<path d="M24.9062 32.6135L25.5307 32.4926C24.9742 32.3137 25.3891 32.4925 24.9062 32.6135Z" fill="white"/>
</mask>
<g mask="url(#mask0_82199_121)">
<path d="M16.7666 31.1084C17.5661 32.9078 21.3637 33.8075 22.8627 33.9074C23.5623 34.0074 24.4617 33.5076 25.1613 33.6076C25.561 33.7075 25.7609 34.4073 26.2606 34.3073C26.6603 34.3073 26.9601 34.2073 27.3599 34.1074C28.9588 33.7075 30.7577 33.5076 32.4566 33.7075C33.356 33.8075 34.1555 33.3077 34.955 33.1077C35.5547 33.0078 36.3541 33.3077 37.0537 33.2077C38.153 33.0078 39.2523 33.3077 40.2517 33.2077C41.9506 33.1077 43.5496 33.1077 45.2485 33.0078C46.5477 32.9078 47.8468 33.2077 49.0461 33.3077C50.2453 33.4076 51.4445 33.4076 52.6438 33.4076C55.0423 33.4076 57.4407 33.3077 59.8392 33.3077" stroke="#202020" stroke-width="3.99865" stroke-miterlimit="10" stroke-linejoin="round" stroke-dasharray="41.99 41.99"/>
</g>
<mask id="mask1_82199_121" style="mask-type:luminance" maskUnits="userSpaceOnUse" x="37" y="22" width="30" height="18">
<path d="M39.5619 38.9453C39.5368 38.9723 39.5088 38.9965 39.4785 39.0174C39.5817 39.0146 39.6276 38.9997 39.5619 38.9453Z" fill="white"/>
<path d="M38.2985 39.4783C38.725 39.4291 39.1316 39.2705 39.4787 39.0179C39.145 39.0264 38.1832 38.8921 38.2985 39.4783Z" fill="white"/>
<path d="M39.2627 38.02L38.8936 38.2816C39.2089 38.3792 39.0542 38.1211 39.2627 38.02Z" fill="white"/>
<path d="M39.3115 38.5811L39.4161 38.7834L39.5689 38.5316L39.3115 38.5811Z" fill="white"/>
<path d="M62.185 35.1338C62.1765 35.2482 62.2064 35.3621 62.2699 35.4576L62.185 35.1338Z" fill="white"/>
<path d="M62.7617 33.9236C62.8172 33.8794 62.8771 33.8413 62.9406 33.8098C62.8734 33.8118 62.8374 33.848 62.7617 33.9236Z" fill="white"/>
<path d="M61.2529 35.3018L61.441 35.282C61.378 35.2658 61.3112 35.2728 61.2529 35.3018Z" fill="white"/>
<path d="M49.8944 37.426C49.7912 37.6155 49.6914 37.7888 49.6094 37.9118C49.9969 37.991 49.8845 37.6452 49.8944 37.426Z" fill="white"/>
<path d="M64.8267 34.3068L64.7587 34.1328C64.7149 34.1978 64.698 34.2658 64.8267 34.3068Z" fill="white"/>
<path d="M61.791 31.1201C61.8182 31.1962 61.8584 31.267 61.9098 31.3294C61.9198 31.311 61.9332 31.2962 61.9445 31.2736L61.791 31.1201Z" fill="white"/>
<path d="M60.4109 35.1627L60.3946 35.1464L60.2949 35.29C60.3839 35.2984 60.4236 35.2588 60.4109 35.1627Z" fill="white"/>
<path d="M63.2852 34.2501C63.2152 34.3494 63.1639 34.4605 63.1338 34.5781C63.1654 34.5667 63.1944 34.5491 63.2191 34.5264C63.2439 34.5036 63.2639 34.4762 63.278 34.4457C63.2921 34.4152 63.2999 34.3822 63.3012 34.3486C63.3024 34.3151 63.297 34.2816 63.2852 34.2501Z" fill="white"/>
<path d="M62.9687 33.8007L62.9644 33.7964L62.9404 33.8106C62.9517 33.8106 62.9552 33.8043 62.9687 33.8007Z" fill="white"/>
<path d="M60.4551 31.7042C60.5173 31.6547 60.5781 31.6151 60.6425 31.555C60.6203 31.5517 60.5976 31.553 60.5759 31.5589C60.5542 31.5647 60.534 31.5749 60.5164 31.5889C60.4988 31.6029 60.4843 31.6204 60.4738 31.6402C60.4632 31.66 60.4569 31.6818 60.4551 31.7042Z" fill="white"/>
<path d="M49.8955 37.4261C49.9238 37.3723 49.9528 37.3188 49.9825 37.2656C49.9181 37.2861 49.8983 37.3469 49.8955 37.4261Z" fill="white"/>
<path d="M40.8799 39.0647C41.0207 39.0357 41.0059 38.9091 40.9874 38.7861C40.9253 38.8666 40.888 38.9634 40.8799 39.0647Z" fill="white"/>
<path d="M37.6513 24.474L37.5898 24.4507C37.598 24.4586 37.6076 24.4647 37.6182 24.4687C37.6288 24.4727 37.64 24.4745 37.6513 24.474Z" fill="white"/>
<path d="M43.5225 26.2625C43.5539 26.2326 43.5792 26.1968 43.5968 26.1571C43.5423 26.1027 43.5211 26.1677 43.5225 26.2625Z" fill="white"/>
<path d="M49.1121 32.1535L50.1134 31.8588C50.1594 32.0702 50.6279 32.232 50.3303 32.3952L50.7042 32.1302L50.6979 32.36C52.3896 33.1234 53.5781 31.6559 55.3003 32.9756L55.2826 33.0583L56.1568 32.6829C56.3349 32.7749 56.4345 33.1998 56.7334 33.4012C56.5461 32.9311 57.2676 33.4492 57.3977 33.1C57.64 33.3213 57.4274 33.3941 57.3885 33.5588C58.3425 34.1511 58.9714 33.5545 59.9938 34.0444C59.4627 33.6283 58.8753 33.2897 58.2492 33.0385C59.0131 32.929 59.2026 33.3997 60.0412 33.4174L59.6661 33.5454C60.1875 34.2819 60.926 33.416 61.15 34.1815C61.6467 34.1652 61.9952 33.5128 62.6319 33.7539L62.4446 34.3498L63.012 34.4621L62.9661 34.0203C63.0364 34.0187 63.1053 34.0397 63.1628 34.0801C63.2203 34.1206 63.2633 34.1785 63.2856 34.2452C63.612 33.8112 64.1872 34.1914 64.672 33.8973L64.7603 34.1272C64.7945 34.0864 64.8241 34.0421 64.8487 33.9949C65.0013 34.3993 65.4097 34.3371 65.4755 34.6955C65.3144 34.7505 64.9426 34.8792 64.9455 34.6488C64.5659 35.0057 65.5072 34.9902 65.7907 35.046C65.4579 34.7781 65.8478 34.7979 66.009 34.7428C66.0436 34.8071 65.9899 34.8255 65.9729 34.9089C66.0302 34.9465 66.0957 34.9698 66.1638 34.9768L64.6211 29.5261C64.2967 29.6711 64.4748 30.474 63.9067 29.8887L64.0042 30.3227L63.5053 30.1333C63.8353 30.9582 63.0219 30.3652 63.2982 31.1392C62.887 31.282 63.1483 30.6571 63.0354 30.7858C62.5717 30.7377 62.2092 31.6785 61.9068 31.3322C61.6913 31.7104 61.2413 31.6347 61.0256 31.8786L60.8511 31.5343C60.7381 31.6616 60.6391 31.8877 60.4645 31.8644C60.4436 31.8151 60.4384 31.7605 60.4498 31.7082C60.0335 32.0156 59.561 32.2384 59.059 32.3642C58.9848 32.1232 58.9226 31.9761 59.16 31.8177C58.5749 31.6114 58.1828 32.5918 57.4542 32.6449L57.4281 32.4561L57.1786 32.847C57.2047 32.7105 57.1037 32.6067 57.0436 32.4603C56.3688 32.5699 55.5759 32.7975 55.5392 33.5821C55.6437 33.3616 55.0643 33.2485 55.3215 32.8583C54.8678 33.5058 53.9838 33.6181 53.3125 33.9334L53.3365 33.9574L53.1061 34.2077L53.0552 34.1567L53.2178 33.9801C52.949 34.1003 52.7254 34.3031 52.5797 34.559C52.4419 34.359 52.2607 34.1928 52.0497 34.0727C52.2292 34.5137 51.0349 33.8959 50.8829 34.4763C50.7862 34.3696 51.0003 34.3519 50.8145 34.2338C49.943 34.5399 48.8218 35.4016 47.597 35.3217C47.8599 36.1898 46.8663 36.194 46.4424 36.7313C46.089 36.2632 46.6692 36.3926 46.6685 35.9777C46.3851 36.1679 46.3483 35.3747 45.9244 35.9161C45.9131 35.8215 45.8664 35.7678 45.9915 35.7402C45.6517 35.7819 46.3131 36.3446 45.7456 36.3057L45.5817 35.9565L45.4643 36.498C44.34 36.5184 43.5613 36.9978 42.5013 36.8379C42.5018 36.909 42.5235 36.9782 42.5636 37.0369C42.6036 37.0955 42.6602 37.1409 42.7261 37.1673C42.3091 37.2451 42.0618 37.9435 41.4491 37.6925L41.5184 37.5186C40.6393 37.3787 40.922 38.1153 40.0803 38.444C40.2959 38.432 40.6569 38.0735 40.8654 38.4772C40.893 38.7578 40.4195 38.8201 40.1841 38.644L40.445 39.1028C40.4598 38.7797 40.804 38.7437 41.0032 38.5444C40.9503 38.5973 40.9699 38.6991 40.9848 38.7988C41.2151 38.6179 41.4646 38.4631 41.729 38.3372L41.2555 38.3867C41.2555 37.8778 42.0258 38.2298 42.1359 38.0163C42.3091 38.4595 42.0045 38.4574 42.4243 38.7529C43.2511 38.7429 42.6794 38.1909 43.2341 37.6318L43.0497 37.5108C43.2575 37.4034 43.2504 36.893 43.7097 37.1489C43.8234 37.4438 43.5684 37.4982 43.4998 37.6714C43.6432 37.8318 43.7019 37.0536 44.0737 37.2953C44.0204 37.5102 43.9041 37.7042 43.7396 37.8524C43.5751 38.0006 43.37 38.0961 43.1508 38.1266C43.2543 38.2518 43.3141 38.4074 43.3211 38.5697C44.3153 37.9809 45.3209 37.1602 46.5356 37.1511C46.1702 37.8375 46.7921 37.0966 46.896 37.7123C46.8105 37.2847 47.3179 37.5887 47.5561 37.3434C47.8585 37.7562 47.0826 37.8325 47.4521 38.0707C47.9942 37.8212 48.457 36.8251 49.2796 36.7983C49.2993 36.9864 49.1327 37.0557 49.1417 37.1496C49.5905 36.8917 49.8166 35.7141 50.4441 36.3078C50.3134 36.6181 50.1459 36.9596 49.9869 37.2642C50.0499 37.2452 50.1544 37.2663 50.3403 37.359L50.2922 37.7236C50.9409 37.6742 50.4703 36.9122 50.6335 36.4266L51.1917 36.7786C51.3591 36.8091 51.5308 36.8057 51.6968 36.7686C51.8628 36.7315 52.0197 36.6615 52.1581 36.5626C52.2965 36.4637 52.4136 36.338 52.5026 36.193C52.5915 36.048 52.6504 35.8865 52.6758 35.7183C52.8037 35.6893 53.3089 35.5684 53.2764 36.0279C53.174 36.6647 53.1775 37.084 52.5026 37.2755C52.2461 36.9157 52.8312 36.7136 52.6192 36.7347C52.3754 36.8896 51.7479 36.7114 51.6631 37.1185L52.3762 36.8888C52.615 37.4784 52.0822 36.9892 52.0744 37.3123C52.4701 37.7349 52.6616 37.1122 53.0729 37.3031L53.0334 37.3427C53.5697 37.0889 53.5408 37.2225 54.0141 36.8195C53.8241 36.2845 53.6793 36.5439 53.316 36.404C54.2467 36.1516 55.0883 34.8177 56.4217 35.49L56.0599 36.0965C56.4507 36.0972 56.8499 35.4475 57.1058 36.129C56.6154 36.023 56.9638 36.3899 56.8097 36.558L56.7588 36.507C56.7185 36.5474 56.6062 36.674 56.7398 36.7383C56.9487 36.3518 57.2316 36.0103 57.5723 35.7331C57.4873 35.9197 57.8895 36.0505 57.9764 36.1375C58.257 35.9374 57.8541 35.8441 57.7432 35.6454C57.9086 35.5705 58.028 35.1188 58.3262 35.4327C58.698 35.6631 58.1594 35.8314 58.1913 36.1148L58.9643 35.3754L58.9749 35.4694C59.0025 35.333 59.1169 35.2072 59.2547 35.2687C59.454 35.4779 59.2519 35.5953 59.0759 35.5734C59.7473 35.7897 59.6413 34.5456 60.3946 35.1492L60.5882 34.8594C60.6398 34.911 60.7423 35.0136 60.702 35.058L60.8794 34.7519C61.3097 34.3809 61.2398 35.21 61.4687 35.2808L61.4404 35.285C61.6376 35.321 61.851 35.4977 61.7669 35.5932L62.1846 35.1231L62.1874 35.1344C62.2142 34.6439 62.9809 34.3109 62.6284 33.5383C62.8015 33.5559 62.9795 33.6648 62.9662 33.797C63.3534 33.6316 63.135 34.4268 63.7427 34.1187C63.8056 34.2649 63.718 34.255 63.6417 34.3413C63.819 34.3053 63.8686 34.2345 63.8615 34.144C63.909 34.247 63.9708 34.3427 64.0452 34.4283C63.9202 34.1364 64.2219 34.1201 64.3963 34.1378L64.3823 34.6976C64.3802 34.643 64.3902 34.5886 64.4117 34.5384C64.4332 34.4882 64.4656 34.4434 64.5065 34.4072C64.5474 34.371 64.5958 34.3443 64.6483 34.3292C64.7007 34.314 64.7559 34.3106 64.8098 34.3194L64.7723 34.6891C65.1731 34.4494 64.5088 34.0112 65.1709 34.1223L64.5455 33.9673C65.0712 33.6917 64.607 33.1311 64.7313 32.7707C64.9723 32.3543 65.5058 32.4638 65.8754 32.3261L65.8196 32.1387C65.6877 32.1114 65.5504 32.1337 65.4339 32.2014C65.3174 32.2691 65.2301 32.3774 65.1885 32.5056C65.0691 32.1655 65.1406 32.0645 64.9129 31.7592C65.0874 31.7686 65.2597 31.7175 65.4009 31.6146C65.5421 31.5117 65.6436 31.3633 65.6881 31.1943L65.7058 31.1767L66.2973 33.2711C65.7935 33.9164 65.5871 32.1182 65.1207 33.0908C65.3447 33.486 65.5964 33.4167 65.7333 33.1509C65.7886 33.2942 65.8087 33.4487 65.7919 33.6013C65.775 33.754 65.7218 33.9004 65.6366 34.0282C65.9139 33.8649 66.2393 33.8027 66.5574 33.8521L65.633 30.5935C65.4399 30.4856 65.2314 30.4081 65.0148 30.3637C64.8776 30.5235 64.4961 30.7073 64.2989 30.5695C64.3569 30.8437 63.559 30.8925 63.8841 31.4961C63.3336 31.5321 63.434 30.6584 62.964 31.1992C63.1131 30.7674 62.5647 30.7999 62.7414 30.4323C62.983 30.8833 63.5074 30.3234 63.759 30.0845L62.9103 29.688C63.1245 29.8456 62.8707 30.0838 62.7626 30.1185L62.6043 29.7114C62.5923 30.6295 61.0879 28.7769 60.808 29.789C61.056 29.7799 61.3182 30.1482 61.3804 29.6718C61.8891 30.0308 61.3649 30.363 61.6298 30.7284C60.9331 30.966 59.7367 30.1538 59.0181 30.703C59.1283 30.4373 59.4993 30.5398 59.488 30.1623C58.8697 29.8393 58.2563 30.5829 57.6125 30.8013L57.6852 30.3354C57.1645 30.6627 57.4365 30.1135 56.8338 30.1665C56.8662 30.2315 56.9723 30.4252 56.8288 30.3963C56.3165 30.267 56.7278 29.9729 56.3779 29.7883C55.8331 30.4295 56.0126 29.2264 55.2615 29.483L55.2988 29.3169C54.7095 29.5176 53.8149 28.6807 53.1287 28.4566C53.1959 28.586 53.692 28.5675 53.687 29.0292L52.8525 29.0072C52.7853 28.8779 52.4143 28.7755 52.6128 28.5555C52.7189 28.5203 52.844 28.6298 52.9301 28.6765L52.7902 28.4178C52.0292 28.5245 52.9209 29.1352 52.9676 29.5764C52.5274 29.3438 52.4313 29.7579 52.1464 29.6994C51.9606 29.2306 52.6361 29.3085 52.2193 28.7641C51.9415 28.4764 51.1579 28.6637 50.9183 29.042C50.3954 27.9279 49.2584 28.5125 49.1651 27.7123C49.1969 27.7766 49.0824 28.041 48.8761 27.877L48.9715 27.6995C48.3553 27.2118 48.4662 28.2997 48.0853 28.0388C48.0789 27.8912 48.1871 27.8579 48.2273 27.6989C47.4302 27.3356 47.0819 28.4007 46.2629 27.7243C46.2869 27.6452 46.3081 27.5646 46.3936 27.6162C46.4183 27.5363 46.2784 27.5009 46.0338 27.6367L46.3335 28.0014C45.9809 28.8292 45.2072 27.3243 44.574 27.3977C44.6269 27.2458 45.1032 27.349 44.8404 27.0465C44.4221 26.9263 44.504 27.9187 43.9817 27.3031C44.2058 27.2571 44.1196 26.7778 44.3301 26.7468C44.0051 26.5898 43.7705 26.2575 43.6623 26.5778C43.6189 26.5378 43.5842 26.4893 43.5603 26.4353C43.5365 26.3813 43.5241 26.323 43.5238 26.2639C43.3232 26.4717 42.9868 26.1777 42.7684 26.03L42.8222 25.8759C42.4292 26.6661 42.1558 25.7027 41.6321 25.579L41.7191 25.3506C41.5555 25.4276 41.369 25.4406 41.1964 25.3869C41.0238 25.3333 40.8775 25.217 40.7863 25.0608L40.9905 24.8226C40.6795 24.9358 40.1361 24.2338 39.8606 24.6042C39.7588 24.4769 40.1673 24.156 39.686 23.9305C39.6403 23.9762 39.5836 24.0094 39.5214 24.0267C39.4592 24.0441 39.3936 24.0451 39.3309 24.0296C39.2682 24.0141 39.2105 23.9826 39.1636 23.9383C39.1166 23.8939 39.0819 23.8382 39.0628 23.7765C39.0748 23.6386 39.1433 23.4966 39.2626 23.6938C39.3419 23.756 39.2874 23.7609 39.2556 23.828L39.4344 23.6775C39.0818 23.2908 39.1214 23.7673 38.7391 23.4542C38.6776 23.2512 38.8953 23.2371 38.9652 23.095C38.9652 23.095 38.5886 23.0816 38.2127 23.0392L37.4473 22.9692C37.3879 23.17 37.5632 23.3679 37.3929 23.5778L37.8918 23.9016C38.0939 24.3738 37.5695 24.1801 37.335 24.1843L37.6882 24.3823C37.701 24.4274 37.6875 24.4706 37.6523 24.4734L37.9236 24.5794C37.1378 24.7236 38.6027 25.5966 37.7696 25.6015C37.8777 25.6204 37.9889 25.6107 38.0921 25.5734C38.1954 25.5361 38.2871 25.4725 38.3582 25.3888C38.7327 25.4383 38.6217 25.6525 38.754 25.8512L38.1766 25.9409C39.0507 26.1848 38.0507 26.2887 38.6578 26.8152C39.4054 26.8647 39.7609 28.1421 40.151 28.3329C40.9205 28.5528 39.8768 27.7957 40.3601 27.7589C40.7743 27.8593 40.5538 28.094 40.8159 28.2742L41.0131 27.8339C41.4844 27.9279 41.0244 28.3258 41.2943 28.2269C41.6668 28.6828 41.1692 28.3845 41.0689 28.7422C41.1821 28.6854 41.311 28.6681 41.4352 28.6929C41.5594 28.7178 41.6718 28.7834 41.7544 28.8793C41.7544 29.0207 41.2442 28.8723 41.5672 29.0426C42.7564 29.1748 43.0539 29.8442 44.1202 30.0895L44.0333 30.3178C44.1528 30.2959 44.2397 30.2089 44.3584 30.3305L44.3004 30.4846C44.9465 30.4955 45.5891 30.5825 46.2148 30.744L45.8749 30.9695L46.4748 30.7568L46.4381 31.2063C46.6226 30.7985 47.373 31.2791 47.9468 31.2735L47.9688 31.5654L48.3051 31.4778L48.2019 31.6573C48.5517 31.7089 48.9192 31.3074 49.3432 31.6354C49.0853 31.4862 49.0683 31.9415 49.1121 32.1535ZM63.1675 33.973L63.318 33.9822C63.2693 34.0197 63.217 34.0055 63.1675 33.973L62.928 33.961C62.9209 33.6881 63.0346 33.8924 63.1675 33.973ZM48.1504 35.577L48.4811 35.437C48.3962 35.4257 48.2012 35.6307 48.2202 35.3996C48.1815 35.4426 48.0529 35.471 48.1504 35.577ZM62.2771 30.9802L62.4255 30.7823L62.5972 31.104L62.2771 30.9802ZM59.1063 30.3844L59.4229 30.2769L59.4597 30.3419L59.136 30.4508L59.1063 30.3844ZM55.0296 32.2314C55.183 31.7557 55.3533 32.3064 55.5935 32.1409C55.6091 32.1206 55.6295 32.1045 55.6529 32.0942C55.6355 32.1126 55.6155 32.1284 55.5935 32.1409C55.4628 32.2957 55.3477 32.7219 55.0296 32.2314ZM62.2998 33.2605C62.3302 33.5554 61.9422 33.5349 61.8489 33.7187C61.6722 33.6253 61.875 33.4098 61.9096 33.2409C61.8213 33.1949 61.7683 33.2126 61.6602 33.2486C61.6503 32.6435 61.9945 33.5179 62.299 33.2613L62.2998 33.2605ZM61.7648 31.9098L61.9415 31.6016L61.8518 31.5924L61.7648 31.9098ZM60.2773 32.0758C60.1979 32.1009 60.1259 32.145 60.0674 32.2043C60.009 32.2635 59.9659 32.3362 59.9419 32.4159C59.918 32.4956 59.9139 32.58 59.9299 32.6617C59.946 32.7434 59.9818 32.8199 60.0342 32.8846C60.2724 32.7255 60.697 32.6766 60.6864 32.2576C60.6384 32.5332 60.5324 31.6865 60.2773 32.0758ZM58.2831 32.0378C58.495 31.967 58.7368 31.3478 59.2321 31.7952L58.9141 31.9012L59.0004 31.948L58.9445 32.196C58.948 31.5054 58.4774 32.0455 58.2831 32.0378ZM57.8039 33.3313C57.7339 33.3745 57.6731 33.4311 57.6252 33.498C57.5773 33.5649 57.5432 33.6406 57.5248 33.7209C57.5065 33.8011 57.5043 33.8841 57.5184 33.9652C57.5325 34.0463 57.5625 34.1237 57.6069 34.193C57.4472 33.9413 57.8252 33.5222 58.0032 33.2168C57.9326 33.2973 57.8888 33.3412 57.8039 33.3313ZM58.1637 33.7915C58.3376 33.8113 58.4237 34.1477 58.6018 33.8424C58.4399 33.5914 58.2717 32.9227 58.7601 33.0224C58.6548 33.5716 58.7276 33.8112 58.423 34.1484L58.1637 33.7915ZM58.4272 32.6612L59.0216 32.7269C58.9947 33.3659 58.71 32.8139 58.4272 32.6612L58.2337 32.6386C58.2654 32.6264 58.2995 32.6221 58.3332 32.626C58.367 32.63 58.3992 32.642 58.4272 32.6612ZM54.7859 33.759L54.8615 33.5772C54.8105 33.5023 54.7979 33.4232 54.9541 33.3631L54.8615 33.5772C54.9646 33.7215 55.2283 33.8438 54.7859 33.759ZM57.958 32.8323L57.505 33.0125C57.6817 33.0393 58.0308 33.0803 57.9566 32.8379L57.958 32.8323ZM55.8402 33.8904C55.6167 33.9454 55.3887 33.9804 55.1589 33.995C55.2261 33.8162 55.6812 33.6381 55.8402 33.8904ZM44.8595 36.9024L45.1513 37.2226L44.8566 37.318L44.8595 36.9024ZM48.221 36.65L48.387 36.5814L48.5347 36.7405L48.221 36.65ZM51.9776 36.0492C51.9454 36.0481 51.9141 36.0384 51.8868 36.0212C51.8596 36.0039 51.8375 35.9796 51.8227 35.9509C51.3753 35.8056 50.8916 35.8176 50.4519 35.9849C50.2152 35.8145 50.5169 35.3897 50.5833 35.2144C50.8921 36.4606 51.0391 35.0411 51.5147 35.384C51.4851 35.5198 51.2695 35.5374 51.29 35.7247C51.3575 35.7687 51.4377 35.7894 51.5181 35.7835C51.5985 35.7776 51.6747 35.7456 51.7352 35.6922C51.726 35.6011 51.7416 35.5233 51.7862 35.5141C51.7914 35.5457 51.7895 35.5781 51.7807 35.6089C51.7718 35.6397 51.7563 35.6681 51.7352 35.6922C51.743 35.7844 51.7734 35.8727 51.8227 35.9509C51.8795 35.9731 51.9306 36.0072 51.974 36.0499L51.9776 36.0492ZM56.4861 34.9041C56.5038 34.7803 56.2783 34.6878 56.4791 34.4728C56.5223 34.5362 56.546 34.6108 56.5472 34.6874C56.5485 34.7641 56.5272 34.8394 56.4861 34.9041C56.4791 34.9493 56.4401 34.9995 56.3292 35.061C56.3938 35.0252 56.4465 34.9714 56.4811 34.9061L56.4861 34.9041ZM56.5243 35.5969L56.9228 34.9479L56.8317 35.2611L57.1369 34.9274C57.1677 35.0157 57.174 35.1108 57.155 35.2024C57.1361 35.294 57.0926 35.3788 57.0293 35.4476C56.966 35.5165 56.8851 35.5669 56.7954 35.5934C56.7057 35.6199 56.6105 35.6215 56.52 35.5982L56.5243 35.5969ZM57.9898 34.8376L57.3828 35.1861L57.3736 35.1161L57.3326 35.1345L57.3305 34.8156L57.3694 35.1232L57.9898 34.8376ZM63.2552 32.7106L63.5937 32.6549C63.5343 32.7568 63.455 32.8456 63.3603 32.9159C63.2657 32.9863 63.1578 33.0367 63.0431 33.0641C63.7449 33.7887 63.1061 32.8839 63.819 33.0499C63.1534 33.2324 63.6381 33.6663 63.812 33.9873C63.7336 33.4748 64.708 33.5151 64.019 32.6054C63.8791 32.8711 63.1654 32.054 63.253 32.7156L63.2552 32.7106ZM63.8714 31.8115L63.4262 31.8101L63.9039 31.8751L63.8714 31.8115ZM51.2533 29.0845C51.35 28.6709 52.015 29.2116 52.0087 29.4399C51.9076 29.2498 51.5721 29.2081 51.2533 29.0845ZM46.7002 28.1252C46.9645 28.2849 47.2938 27.8142 47.4437 28.3711L46.9187 28.4426C46.8176 28.2412 46.6323 28.3641 46.7002 28.1252ZM43.3896 27.0628L43.2207 27.5216L43.3917 27.4918L43.3896 27.0628ZM43.9437 26.6641C43.8567 26.6097 43.4955 26.6146 43.6101 26.8776L43.9437 26.6641ZM40.4973 25.8704L40.7128 25.4935L40.4938 25.3818L40.4973 25.8704ZM40.7071 26.264C40.7771 26.2378 40.8082 26.1461 40.8286 26.0378C40.9502 25.9615 41.1466 25.9898 41.336 26.1891C41.3007 26.4041 41.17 26.2138 41.0506 26.2244C41.1332 26.2831 41.2711 26.4789 41.442 26.4592C41.2555 25.9897 41.3975 26.0413 41.3813 25.6914C40.8796 25.29 40.8908 25.7353 40.8286 26.0393C40.7913 26.0628 40.7602 26.095 40.7381 26.1332C40.7159 26.1713 40.7033 26.2142 40.7014 26.2583L40.7071 26.264ZM42.5367 27.0677C42.4867 26.9964 42.4534 26.9147 42.4391 26.8288C42.1077 26.5849 41.7755 26.3489 42.1253 26.0626L42.4313 26.2272C42.2914 26.1764 42.3197 26.2442 42.2907 26.3199C42.5134 26.5708 42.6554 26.3326 42.8208 26.3001C42.731 26.4365 42.3812 26.5206 42.437 26.8252C42.5268 26.8938 42.6151 26.961 42.69 27.0289C42.7437 26.9893 42.8045 26.9737 42.8765 27.1448L42.8462 27.2218C42.8081 27.1473 42.7549 27.0816 42.69 27.0289C42.6391 27.0712 42.591 27.1292 42.5367 27.0677ZM40.4301 26.4987C40.3969 26.5715 40.4478 26.7073 40.3559 26.7849L40.1813 26.7998C39.9595 26.5354 40.2307 26.4479 40.4301 26.4987ZM50.0936 29.1544C50.1473 29.1374 50.659 29.2746 50.6307 28.9848L50.8159 29.4526C50.5531 29.3113 50.3304 29.6089 50.4526 29.7213C50.2301 29.4096 50.0484 29.546 50.0936 29.1544ZM63.1032 31.6921C62.9809 31.8143 62.2913 31.3592 62.2672 31.902C61.9704 31.2375 62.7513 31.5068 63.1018 31.6907L63.1032 31.6921ZM63.2545 32.3269C63.309 32.323 63.3638 32.3255 63.4177 32.3346C63.6014 32.2526 63.5272 31.8009 63.8996 32.1098C63.8276 32.2102 63.6692 32.0349 63.5972 32.1366C63.6501 32.4215 63.593 32.3586 63.4177 32.3346C63.3912 32.3453 63.3628 32.3501 63.3343 32.3485C63.3058 32.3469 63.278 32.339 63.253 32.3254L63.2545 32.3269ZM55.9624 31.3789L56.3335 31.4815L56.5186 31.1139L55.9624 31.3789ZM52.497 31.1825L52.7994 31.1555L52.6772 31.0445C52.6645 30.9357 52.5868 30.7661 52.6623 30.7088C52.7108 30.713 52.7596 30.7087 52.8065 30.6961C52.7345 30.6819 52.6885 30.6883 52.6623 30.7088C52.4412 30.701 52.1521 30.607 52.1592 30.9123C52.2348 30.8127 52.6581 30.8996 52.6539 31.1245L52.497 31.1825ZM45.1633 29.7404C45.3336 29.703 45.3591 29.6238 45.6347 29.9292C45.5463 29.9466 45.4547 29.938 45.3711 29.9045C45.2874 29.8711 45.2153 29.8141 45.1633 29.7404ZM54.3202 31.861C54.3237 31.6313 54.73 31.7973 54.5618 31.4779L54.3845 31.3853C54.6494 31.5245 54.4636 30.8255 54.8642 31.2205L54.6382 31.1471C54.9357 31.35 54.3449 31.5507 54.7881 31.7818C54.9632 31.8737 54.535 32.0194 54.3202 31.861ZM44.6227 30.2118C44.8849 30.2323 44.7796 29.6025 45.229 30.0152C44.9102 30.0117 44.9881 30.5829 44.6227 30.2118ZM51.8751 32.2879L51.9098 32.3522L52.2356 32.2454L52.2016 32.1818L51.8751 32.2879Z" fill="white"/>
<path d="M44.5544 26.8182C44.4904 26.7671 44.41 26.7409 44.3281 26.7446C44.3988 26.7819 44.4753 26.8068 44.5544 26.8182Z" fill="white"/>
<path d="M64.1875 30.4062C64.1943 30.4406 64.208 30.4731 64.2277 30.502C64.2473 30.5309 64.2727 30.5556 64.3021 30.5745C64.2821 30.5079 64.2421 30.4492 64.1875 30.4062Z" fill="white"/>
<path d="M64.9863 30.3624L65.0167 30.3659L65.0393 30.3433L64.9863 30.3624Z" fill="white"/>
<path d="M41.258 39.4031C41.251 39.8175 41.4362 39.4314 41.565 39.4045C41.4362 39.4314 41.2842 39.179 41.258 39.4031Z" fill="white"/>
<path d="M42.0115 38.5513C41.9978 38.6136 41.9704 38.6721 41.9312 38.7225C41.8921 38.773 41.8422 38.814 41.7852 38.8427C41.8701 38.8342 41.95 38.7727 42.0115 38.5513Z" fill="white"/>
<path d="M41.2578 38.8951C41.435 38.9346 41.6202 38.916 41.786 38.8421C41.6531 38.8505 41.4827 38.7325 41.2578 38.8951Z" fill="white"/>
<path d="M44.7517 38.0453C44.6887 38.3133 44.3359 38.2603 44.3359 38.2603C45.084 38.3267 44.3811 38.7297 44.3974 38.9185C44.775 38.7418 44.6584 38.4483 44.7517 38.0453Z" fill="white"/>
<path d="M45.5738 37.7244C45.5079 37.7419 45.4385 37.7409 45.373 37.7216C45.4029 37.7407 45.4376 37.7512 45.473 37.7517C45.5085 37.7522 45.5435 37.7427 45.5738 37.7244Z" fill="white"/>
<path d="M45.9109 37.8928C46.1167 37.7846 46.0877 37.5011 46.1103 37.2748C45.7575 37.1496 45.7525 37.6114 45.5723 37.7266C45.7377 37.6913 45.8841 37.6256 45.9109 37.8928Z" fill="white"/>
<path d="M53.4316 37.4458C53.3913 37.4875 53.2654 37.5172 53.322 37.6658L53.706 37.5745C53.8212 37.4494 53.5207 37.4571 53.4316 37.4458Z" fill="white"/>
<path d="M54.5273 36.3773C54.8193 36.2748 54.8229 36.6941 54.9395 36.5675L54.7105 36.0739L54.5273 36.3773Z" fill="white"/>
<path d="M53.2914 33.8995L53.2207 33.9702L53.3183 33.9263L53.2914 33.8995Z" fill="white"/>
<path d="M56.1914 36.4895L56.219 37.0969C56.412 36.8897 56.2303 36.4506 56.1914 36.4895Z" fill="white"/>
<path d="M57.4995 36.5538L57.3955 36.7723L57.8785 36.4576L57.4995 36.5538Z" fill="white"/>
<path d="M58.7676 35.9097L58.8652 36.0157L59.1877 35.7725L58.7676 35.9097Z" fill="white"/>
<path d="M57.4815 29.7183C57.4737 30.1787 58.132 30.1058 58.347 30.2671C58.137 29.6455 57.8266 30.3632 57.4815 29.7183Z" fill="white"/>
<path d="M45.1514 27.1893L45.792 27.2558C45.2794 26.9397 45.652 27.2162 45.1514 27.1893Z" fill="white"/>
</mask>
<g mask="url(#mask1_82199_121)">
<path d="M38.0531 22.8113C37.9531 23.511 38.153 24.3108 38.6527 24.8106C40.1517 26.1102 41.7507 27.3098 43.4496 28.2094C43.9493 28.5093 44.5489 28.7093 45.0486 28.7093C45.2485 28.7093 46.048 29.1091 46.1479 29.1091C46.8475 29.3091 46.6476 29.2091 47.2472 29.3091C47.8468 29.409 48.5464 29.3091 49.146 29.409C49.3459 29.409 49.5458 29.509 49.7456 29.509C50.2453 29.609 50.6451 29.609 51.1447 29.7089C51.2447 29.7089 51.3446 29.7089 51.4446 29.8089C51.5445 29.8089 51.6444 29.9089 51.7444 30.0088C51.8443 30.0088 52.0442 30.0088 52.1441 30.0088C52.244 30.0088 52.4439 30.1088 52.5439 30.2088C52.5439 30.2088 52.4439 30.1088 52.4439 30.0088C55.7418 30.8086 58.9398 31.0085 62.2377 31.5083C62.9372 31.6083 64.2364 31.1085 64.936 31.2084C66.7348 34.5073 64.0365 33.2078 63.2371 32.9079C63.0372 32.8079 62.8373 33.0078 62.6374 33.2078C62.5375 33.3077 63.337 33.0078 61.8379 33.5077C61.6381 33.5077 60.9385 33.1078 60.7386 33.1078C59.9392 33.4077 60.3389 33.9075 59.5394 34.2074C59.0397 34.4073 57.7405 35.0071 57.2409 35.0071C54.5426 35.307 52.1441 35.407 49.6457 36.3067C48.3465 36.8065 47.1473 36.9065 45.8481 37.3064C45.5483 37.4063 45.2485 37.5063 44.8487 37.5063C44.6489 37.5063 44.449 37.5063 44.2491 37.5063C41.7507 37.3064 39.752 39.3057 37.3535 39.9055" stroke="#202020" stroke-width="3.99865" stroke-miterlimit="10" stroke-linejoin="round" stroke-dasharray="61.98 61.98"/>
</g>
</g>
<defs>
<clipPath id="clip0_82199_121">
<rect width="52.2656" height="44.9688" fill="white" transform="translate(15.8594 10.0156)"/>
</clipPath>
</defs>
</svg>
