<svg width="157" height="60" viewBox="0 0 157 60" fill="none" xmlns="http://www.w3.org/2000/svg">
<g clip-path="url(#clip0_82199_712)">
<rect width="155.828" height="59" transform="translate(0.75 0.858887)" fill="#1D1D1B"/>
<g clip-path="url(#clip1_82199_712)">
<path d="M102.444 92.7993C102.444 92.6339 102.61 92.3858 102.858 92.3031C102.858 92.2204 102.775 92.055 102.693 91.8896C101.866 92.055 102.693 92.5512 102.279 92.7993C102.279 92.7993 102.362 92.7993 102.444 92.7993ZM98.5574 93.7917C98.7228 93.709 98.8882 93.709 98.9709 93.709L98.8055 93.3782C98.5574 93.4609 98.4747 93.5436 98.5574 93.7917ZM9.56967 69.3118C9.48696 70.0561 10.314 69.3945 9.56967 69.3118V69.3118ZM2.78807 55.5005C3.11888 55.4178 3.03618 55.6659 3.20159 55.7486C3.28429 55.6659 3.28429 55.5832 3.28429 55.5005C3.11888 55.4178 2.95348 55.2524 2.78807 55.087C2.78807 55.2524 2.78807 55.3351 2.78807 55.5005ZM-2.91839 39.9525C-3.00109 39.9525 -3.08379 40.0352 -3.08379 40.1179C-3.00109 40.0352 -2.91839 40.0352 -2.91839 39.9525ZM7.00589 -6.27813C6.92319 -6.19543 6.84049 -6.11273 6.75779 -5.94732C6.84049 -6.03003 6.92319 -6.11272 7.0886 -6.11272C7.0886 -6.19543 7.00589 -6.19543 7.00589 -6.27813ZM105.339 -31.5851C105.339 -31.5851 105.256 -31.6678 105.174 -31.7505C105.174 -31.7505 105.174 -31.6678 105.174 -31.5851H105.339ZM115.015 -27.4499C114.932 -27.3672 114.85 -27.2845 114.767 -27.2018C114.85 -27.2018 114.85 -27.1191 114.85 -27.1191C115.015 -26.9537 115.181 -26.9537 115.346 -27.0364C115.263 -27.1191 115.263 -27.2845 115.181 -27.3672L115.015 -27.4499ZM147.931 50.2903C148.51 50.1249 148.675 49.6287 149.089 49.3806C149.006 48.3054 148.675 47.3957 149.667 46.8168C149.337 46.5687 149.337 45.7416 149.916 45.6589C149.585 45.5762 149.254 45.5762 148.84 45.6589C148.675 46.1552 148.427 46.6514 148.096 47.0649C148.344 47.9746 148.096 49.6287 147.434 50.2076C147.683 50.6211 147.517 51.0346 147.683 51.3654C148.096 51.1173 148.096 50.7865 147.931 50.2903ZM141.645 61.7032C141.397 61.2897 141.48 61.4551 141.315 61.1243C141.976 60.7935 142.472 60.1319 142.472 59.3875C141.893 60.0491 140.901 60.38 140.57 61.3724H140.157C140.157 61.8686 139.909 62.2821 139.578 62.6129C139.66 62.6129 139.826 62.6129 139.909 62.6129C140.488 62.3648 141.066 62.034 141.397 61.5378C141.397 61.7032 141.397 61.7859 141.645 61.7032ZM119.316 84.6118C119.15 84.2809 119.729 84.1982 119.647 83.8674C119.398 84.0328 119.233 84.1155 119.068 84.2809C119.15 84.529 119.233 84.6945 119.316 84.6118ZM115.511 86.0177C116.09 85.7696 116.669 85.4388 117.083 85.108C116.917 85.108 116.752 85.0253 116.669 84.9426C116.587 85.3561 116.008 85.4388 115.511 85.6042C115.511 85.7696 115.511 85.8523 115.511 86.0177ZM111.707 88.5815C111.79 88.8296 111.624 88.9123 111.79 89.0777C112.121 88.995 112.121 88.4988 111.707 88.5815ZM110.053 89.2431C109.97 89.5739 110.797 89.4085 110.467 89.1604L110.053 89.2431ZM91.445 94.9496C91.6104 94.8669 91.7758 94.8668 91.6104 94.6187C91.445 94.7014 91.2796 94.7014 91.2796 94.8668C91.3623 94.8668 91.445 94.8669 91.445 94.9496ZM67.0478 96.4382C66.9651 96.8517 67.7094 96.6036 67.4613 96.3555L67.0478 96.4382ZM66.6343 96.2728C66.3862 96.1901 66.0554 96.1074 65.8073 95.8593C64.6494 95.8593 63.657 95.5285 62.6646 94.9496C62.83 95.7766 62.0857 95.942 61.5894 96.6036C62.6646 96.769 63.5743 96.2728 64.4013 97.0998C64.6494 96.8517 64.1532 96.5209 64.6494 96.4382C65.1456 96.3555 65.7246 96.4382 66.0554 96.8517C66.1381 96.8517 66.3035 96.769 66.3862 96.769C66.5516 96.769 66.717 96.6863 66.7997 96.6036C66.717 96.5209 66.717 96.3555 66.6343 96.2728ZM20.4037 71.5448C20.4037 71.3794 20.321 71.2967 20.4037 71.214C20.0729 71.2967 19.6594 71.2967 19.1631 71.214C18.915 70.635 18.4188 70.2215 17.7572 69.9734C17.9226 69.3945 17.0129 69.0637 16.5994 68.6502C16.5167 68.4848 16.6821 68.4021 16.5167 68.154C15.9377 68.3194 16.1032 67.8232 15.855 67.5751C15.6069 67.327 15.1934 67.2443 15.028 66.9962C14.8626 66.8307 14.8626 66.5826 14.7799 66.4172C14.5318 66.0864 14.1183 65.921 14.0356 65.6729C13.9529 65.5902 14.4491 65.6729 13.9529 65.5902C13.7875 65.5075 13.4567 65.094 13.2086 64.5978C13.2086 64.7632 13.2086 64.9286 13.2913 65.0113C12.8778 65.0113 12.8778 65.4248 12.2161 65.2594C12.2161 65.3421 12.2161 65.5075 12.1334 65.5902C12.7124 66.6653 13.6221 67.4924 14.5318 68.2367L14.9453 69.2291C15.6069 69.6426 15.9377 70.5524 16.5167 71.3794C16.6821 71.5448 17.0956 71.1313 17.261 71.3794C17.3437 71.7102 17.4264 72.1237 17.3437 72.4545C17.5918 72.4545 17.6745 72.6199 17.7572 72.868C18.5842 72.7026 18.915 73.5296 19.3285 74.1913C19.8248 73.3642 20.1556 72.4545 20.4037 71.5448ZM10.314 61.4551C10.5621 61.7859 10.7275 62.1994 10.8102 62.6956C11.3064 62.4475 10.8929 61.9513 10.8929 61.4551C10.3967 60.9589 10.0659 60.2973 9.90048 59.5529C9.40426 59.801 9.48696 59.0567 9.15615 59.0567C9.56967 60.1319 9.23886 61.5378 9.98318 62.1167C10.314 61.7859 9.48696 61.5378 10.314 61.4551ZM7.3367 57.1546L7.83292 57.0719C7.75021 56.9892 7.75021 56.9065 7.66751 56.8238L7.254 56.9065L7.3367 57.1546ZM0.803217 8.36019H0.720515V8.11208H0.472408V8.36019H0.803217ZM1.54754 29.4493L1.05132 29.6147L1.13403 29.8628L1.63024 29.6974L1.54754 29.4493ZM0.307003 33.9979C0.307003 34.0806 0.224301 34.1633 0.307003 34.246C0.389706 34.6595 0.224301 35.073 0.637813 35.2384C0.55511 35.3212 0.389706 35.4039 0.307003 35.4865C0.472408 36.2309 0.968622 36.8925 1.63024 37.306C1.79565 37.1406 1.96105 37.0579 2.29186 37.306C2.29186 37.2233 2.29186 37.0579 2.29186 36.9752C2.04375 36.3136 1.63024 35.4039 2.20916 34.8249C1.54754 34.8249 1.79565 34.0806 1.79565 33.7498C1.46484 33.6671 0.720515 33.9979 0.307003 33.9979ZM3.53239 44.4184C3.7805 44.3357 3.94591 44.3357 3.7805 44.0876L3.53239 44.1703C3.53239 44.253 3.53239 44.3357 3.53239 44.4184ZM16.1032 -9.99974C16.2686 -8.92461 14.8626 -9.09001 14.6972 -8.18028C16.9302 -8.42839 17.1783 -10.496 18.6669 -11.5711C18.8323 -11.5711 18.915 -11.5711 19.0804 -11.5711C18.8323 -11.6538 18.7496 -11.8192 18.7496 -12.0673C18.4188 -11.9019 18.2534 -11.9846 18.1707 -12.0673C18.0053 -11.8192 17.7572 -11.6538 17.4264 -11.5711C17.3437 -11.0749 17.1783 -10.9922 17.1783 -10.5787C16.5994 -10.5787 16.434 -10.2478 16.1032 -9.99974ZM57.2889 -30.4272C55.7176 -30.3445 57.3716 -31.7505 57.2889 -30.4272V-30.4272ZM73.9121 -33.7353C73.9121 -33.6526 73.9121 -33.5699 73.9948 -33.4872C74.1602 -33.4872 74.2429 -33.6526 74.2429 -33.818C74.1602 -33.818 73.9948 -33.7353 73.9121 -33.7353ZM77.2202 -34.5623C76.8894 -34.4796 76.6413 -34.3142 76.8067 -34.0661C77.0548 -34.1488 77.0548 -34.3142 77.2202 -34.5623ZM78.8742 -34.0661C78.9569 -33.9834 79.0396 -33.818 79.3704 -33.818C79.9494 -33.818 80.611 -33.9007 81.2726 -33.9007C80.8591 -34.3969 81.1899 -34.8104 81.2726 -35.3067C81.0245 -35.0585 80.6937 -34.8931 80.2802 -34.8931C80.0321 -35.224 80.9418 -34.9758 80.6937 -35.3067L79.7013 -34.9758C80.3629 -34.3142 79.205 -34.4796 78.8742 -34.0661ZM93.5126 -27.7807C93.5126 -27.698 93.5126 -27.6153 93.5953 -27.5326L93.8434 -27.6153L93.7607 -27.8634L93.5126 -27.7807ZM107.82 -29.5175C107.737 -29.6002 107.572 -29.6829 107.489 -29.7656C107.489 -29.6829 107.407 -29.5175 107.407 -29.4348C107.572 -29.4348 107.737 -29.4348 107.82 -29.5175ZM147.021 10.7586C146.607 10.8413 146.773 10.2623 146.277 10.2623C146.194 10.4277 146.111 10.5931 146.029 10.7586C146.277 10.924 147.186 10.924 147.021 10.7586ZM146.607 13.0742C146.029 13.4877 146.607 14.4802 147.269 14.4802C147.104 13.5704 146.856 12.7434 146.442 11.9164C146.277 12.1645 146.194 12.4126 146.029 12.6607C146.111 12.9088 146.442 12.9088 146.607 13.0742ZM146.442 11.1721C146.442 11.2548 146.111 11.6683 146.442 11.6683C146.442 11.6683 146.773 11.1721 146.442 11.1721ZM143.961 9.51802H144.209V9.26991H143.961V9.51802ZM83.1748 92.1377C82.8439 92.3858 82.4304 92.5512 81.9342 92.6339C82.1823 92.7166 81.8515 92.882 81.7688 93.1301C82.0169 93.0474 82.3477 93.0474 82.5958 93.0474C82.7612 92.7993 83.0093 92.5512 83.2575 92.4685L83.1748 92.1377ZM70.7694 93.1301C72.4234 93.0474 74.1602 92.6339 75.8969 92.7993C76.0623 92.7166 75.8969 92.3031 76.1451 92.3031C77.4683 92.4685 77.9645 91.8896 79.1223 91.8069C79.1223 91.7242 79.1223 91.7242 79.0396 91.6414C77.4683 91.8896 75.9797 92.055 74.4083 92.3858C74.2429 92.4685 74.4083 92.6339 74.2429 92.7166C73.0851 92.055 72.258 93.1301 71.0175 92.7993C71.0175 92.9647 70.9348 93.0474 70.7694 93.1301ZM25.2831 70.1388C25.4485 70.1388 25.4485 70.0561 25.4485 69.9734C25.5312 69.8907 25.4485 69.8907 25.4485 69.808H25.3658C25.2831 69.9734 25.2004 70.0561 25.1177 70.1388C25.2004 70.1388 25.2004 70.1388 25.2831 70.1388ZM6.92319 54.9216C6.92319 54.7562 6.92319 54.6735 6.92319 54.5081C6.84049 54.5081 6.75779 54.5081 6.67508 54.6735C6.67508 54.8389 6.84049 54.9216 6.92319 54.9216ZM31.982 -21.5781C31.8993 -21.6608 31.6512 -21.7435 31.6512 -21.4954C31.7339 -21.4127 31.8993 -21.33 32.0647 -21.33C32.0647 -21.4127 31.982 -21.4954 31.982 -21.5781ZM32.0647 -22.4878V-22.6532H31.6512C31.4858 -22.3224 31.4031 -21.9916 31.8993 -21.9916C31.8993 -22.157 31.982 -22.3224 32.0647 -22.4878ZM32.7263 -20.6683C31.7339 -20.5856 30.8242 -20.6683 30.0798 -20.8337C29.9971 -20.2548 30.1626 -19.6759 30.328 -19.1797C29.9144 -18.8489 29.5836 -18.4354 29.2528 -18.0219C29.2528 -17.9392 29.2528 -17.9392 29.2528 -17.9392C29.3355 -17.8565 29.3355 -17.8565 29.4182 -17.8565C30.1626 -17.9392 31.155 -18.1873 32.2301 -18.27C32.5609 -18.6835 32.9744 -19.1797 33.3879 -19.6759C33.6361 -20.0067 34.3804 -20.3375 34.5458 -20.751C34.1323 -20.751 33.5533 -20.6683 33.1398 -20.6683C33.0571 -20.6683 33.0571 -20.5856 33.0571 -20.5856C32.8917 -20.5856 32.809 -20.6683 32.7263 -20.6683ZM41.9063 -20.751C41.989 -20.751 41.989 -20.8337 42.0717 -20.8337C41.989 -20.8337 41.9063 -20.8337 41.9063 -20.751ZM144.705 38.8774C144.953 38.7947 145.036 38.5465 144.953 38.2984C144.788 38.3811 144.705 38.6292 144.705 38.8774ZM114.767 70.3869C114.767 70.3042 114.684 70.3042 114.684 70.2215C114.602 70.3042 114.436 70.3869 114.354 70.4697C114.519 70.5524 114.602 70.4696 114.767 70.3869ZM111.211 77.1685C110.963 76.755 111.79 76.8377 111.542 76.5896C110.963 76.6723 111.128 76.8377 110.549 76.8377C110.715 77.1685 110.88 77.3339 111.211 77.1685ZM110.384 76.5069C110.632 76.3415 110.963 76.2588 110.797 76.0107C110.549 76.0107 110.218 76.0934 110.384 76.5069ZM99.1363 84.1982C98.4747 84.3636 97.7304 84.6117 97.2342 84.8599C97.6477 84.9426 97.7304 85.1907 97.8131 85.6042C97.9785 85.4388 98.2266 85.2734 98.0612 84.9426C98.6401 84.9426 98.7228 84.4464 99.1363 84.1982ZM25.9447 67.327C26.1101 67.1616 26.3582 67.1616 26.6063 67.2443C26.4409 66.9135 26.2755 66.6653 26.1101 66.3345C25.6139 66.4172 25.4485 66.748 25.2831 67.1616C25.5312 67.1616 25.7793 67.2443 25.9447 67.327ZM22.5539 61.7859L22.4712 61.5378L21.975 61.7032V61.7859L22.0577 61.9513L22.5539 61.7859ZM4.35942 21.1791C4.35942 21.3445 4.44212 21.4272 4.60753 21.5926C4.85563 21.0136 5.18644 20.6001 5.59995 20.1039C5.51725 19.7731 5.51725 19.4423 5.35185 19.1115C4.44212 19.6077 5.10374 20.9309 4.35942 21.1791ZM20.5691 -11.4884C20.4864 -11.4884 20.4037 -11.4884 20.321 -11.4884V-11.1576H20.5691V-11.4884ZM45.5452 -15.7889C45.6279 -15.6235 45.876 -15.4581 46.2068 -15.3754C46.4549 -15.5408 46.703 -15.7062 46.9511 -15.8716C46.5376 -15.8716 46.0414 -15.7889 45.5452 -15.7889ZM83.4229 -22.7359C83.4229 -22.9013 83.5883 -22.9013 83.5883 -23.1494H83.3402C83.3402 -22.984 83.1748 -22.984 83.1748 -22.8186L83.2575 -22.7359H83.4229ZM103.354 -23.5629C103.189 -23.4802 102.941 -23.4802 102.693 -23.4802C102.858 -23.3975 103.023 -23.3148 103.271 -23.2321C103.354 -23.2321 103.437 -23.2321 103.52 -23.2321L103.354 -23.5629ZM104.925 -18.8489C104.76 -18.5181 105.008 -18.6835 104.925 -18.3527C105.504 -18.27 105.504 -18.9316 104.925 -18.8489ZM110.549 -15.5408C110.384 -15.2927 110.384 -15.21 110.632 -15.1273C110.632 -15.2927 110.715 -15.4581 110.797 -15.5408H110.549ZM128.33 12.0818C128.413 12.1645 128.413 12.1645 128.33 12.0818C128.661 11.8337 129.075 11.5856 129.405 11.2548C129.157 10.924 129.323 10.7586 129.488 10.5104C129.24 10.6758 128.909 10.6758 128.661 10.7586C128.909 11.3375 128.496 11.6683 128.33 12.0818ZM137.593 39.7871C137.262 39.6217 137.428 39.7871 137.097 39.9525C137.097 40.4487 137.841 40.2006 137.593 39.7871ZM135.939 45.7416L135.856 45.6589C135.773 45.5762 135.691 45.5762 135.525 45.5762C135.525 45.5762 135.525 45.6589 135.525 45.7416C135.608 45.6589 135.773 45.6589 135.939 45.7416ZM112.203 69.4772C112.7 68.981 113.196 68.4021 113.692 67.9886C113.527 67.9886 113.527 67.9059 113.527 67.7405C113.94 67.5751 114.354 67.327 114.767 66.9962C114.519 66.9962 114.354 66.9962 114.105 66.9962C113.692 67.4097 113.113 67.6578 112.617 67.6578C112.617 67.6578 112.7 67.6578 112.7 67.7405C112.038 68.154 111.955 68.8156 111.624 69.3118C111.872 69.3118 112.038 69.3945 112.203 69.4772ZM85.9866 83.9501C85.7385 84.1982 86.4828 84.2809 86.4001 84.1155C86.3174 84.0328 86.3174 83.9501 85.9866 83.9501ZM81.7688 84.2809C81.6861 83.8674 82.0996 83.9501 82.3477 83.7847C81.8515 83.702 81.1899 83.8674 80.7764 84.1155C80.8591 84.1982 80.9418 84.2809 80.9418 84.3636C81.2726 84.1982 81.5207 84.1982 81.7688 84.2809ZM77.7991 85.6042C77.9645 85.5215 78.2126 85.4388 78.2953 85.3561C78.0472 85.108 77.7991 84.8599 77.6337 84.5291C77.3029 84.6945 77.1375 85.1907 76.5586 84.9426C76.5586 85.3561 76.8067 85.6042 77.1375 85.7696C77.3856 85.6869 77.551 85.6869 77.7991 85.6042ZM75.9797 88.8296L76.3105 88.6642V88.5815C76.0623 88.3334 75.8142 88.6642 75.9797 88.8296ZM58.6949 89.1604C57.8678 89.3258 58.7776 89.7393 58.6949 89.1604V89.1604ZM51.2516 82.3788C51.4171 82.2134 51.0035 81.6345 51.0035 81.9653L51.2516 82.3788ZM6.84049 35.2384C6.84049 35.3212 6.84049 35.4039 6.84049 35.4865C6.92319 35.7347 7.0886 35.8174 7.4194 35.7347C7.50211 35.3212 7.254 35.1557 6.84049 35.2384ZM8.32913 12.7434L8.41183 12.9915L8.65994 12.9088L8.57724 12.6607L8.32913 12.7434ZM8.90805 29.4493C8.90805 29.8628 8.90805 30.1936 8.82535 30.5244C9.48696 30.5244 9.23886 29.7801 8.90805 29.4493ZM7.66751 44.5011C7.66751 44.5838 7.66751 44.5838 7.66751 44.6665C7.66751 44.7492 7.66751 44.8319 7.75022 44.9146C7.75022 44.7492 7.66751 44.6665 7.66751 44.5011ZM22.3058 -8.84191C22.5539 -8.84191 22.3885 -8.7592 22.3058 -8.5111C22.3885 -8.42839 22.5539 -8.42839 22.6366 -8.42839C22.6366 -8.7592 22.3885 -9.17271 22.3058 -8.84191ZM56.0484 -14.8792C55.9657 -15.21 55.7176 -15.7062 55.8003 -15.8716C55.3868 -15.8716 55.4695 -15.5408 55.056 -15.5408C54.6424 -15.8716 54.477 -15.7062 53.8154 -15.4581C53.8154 -15.7062 53.65 -15.6235 53.4846 -15.7062C53.5673 -15.3754 53.5673 -14.9619 53.4846 -14.6311L53.5673 -14.5484C54.477 -15.21 54.8905 -14.4657 56.0484 -14.8792ZM117.992 2.24021C118.489 2.32291 118.737 1.9094 118.241 1.8267C118.241 2.07481 118.075 2.07481 117.992 2.24021ZM132.631 20.8482C132.3 20.7655 132.052 20.6001 131.886 20.6001C132.052 20.2693 132.465 20.1039 132.465 19.7731C131.886 19.8558 131.804 20.4347 131.225 20.6001C131.39 20.8482 131.39 21.1791 131.225 21.5099C131.473 21.9234 131.804 22.3369 132.217 22.6677C132.383 22.5023 132.383 22.2542 132.713 22.2542C132.465 21.8407 132.465 21.3445 132.631 20.8482ZM91.445 84.1982C91.3623 84.0328 91.2796 83.7847 91.0315 83.9501C91.1142 84.1155 91.2796 84.1982 91.445 84.1982ZM67.3786 87.7544C67.2132 87.4236 66.9651 87.1755 66.717 87.0101C66.4689 87.0928 66.1381 87.0928 65.89 87.0928C65.7246 87.589 66.3035 87.9198 66.5516 88.2507C66.3862 87.5063 66.7997 87.6717 67.3786 87.7544ZM60.4316 84.2809C60.3489 85.0253 61.1759 84.3636 60.4316 84.2809V84.2809ZM13.4567 37.3887C13.7875 37.3887 13.8702 37.2233 13.7048 36.8925C13.4567 36.9752 13.374 37.1406 13.4567 37.3887ZM14.4491 27.2163C14.6145 27.7125 14.5318 27.9606 14.0356 28.126C13.7875 28.5396 13.7875 29.1185 13.8702 29.6147C14.2837 29.4493 14.8626 29.2012 15.1107 28.7877C15.1107 28.705 15.028 28.6223 14.9453 28.5396C15.3588 28.2087 15.028 28.126 14.9453 27.6298C15.028 27.5471 15.028 27.4644 15.1107 27.3817C15.028 27.299 14.8626 27.2163 14.7799 27.1336C14.6145 27.2163 14.5318 27.2163 14.4491 27.2163ZM15.7723 36.3963C15.855 36.3136 15.855 36.2309 15.7723 36.1482H15.6896L15.7723 36.3963ZM21.4788 5.54831C21.5615 6.04452 21.5615 6.54073 21.4788 7.03695C21.8923 6.78884 22.2231 6.45803 22.5539 6.12722C22.0577 5.63101 22.802 5.21749 22.6366 4.72128C22.4712 4.72128 22.3058 4.80398 22.1404 4.80398C21.975 5.21749 21.6442 5.3002 21.4788 5.54831ZM27.1853 -9.00731C27.5161 -9.00731 27.7642 -9.00731 28.1777 -9.09001C28.2604 -9.09001 28.2604 -9.17271 28.3431 -9.17271C28.3431 -9.17271 28.3431 -9.25542 28.3431 -9.33812C28.0123 -9.33812 28.0123 -9.58622 27.6815 -9.83433C27.5988 -9.50352 27.268 -9.50352 27.1026 -9.42082C26.9372 -9.17271 26.8545 -8.92461 26.8545 -8.6765H26.9372C26.9372 -8.7592 27.1026 -8.92461 27.1853 -9.00731ZM36.0344 -3.63166C36.0344 -3.71436 36.1171 -3.79706 36.0344 -4.04517C35.9517 -3.87976 35.9517 -3.71436 35.869 -3.63166H36.0344ZM37.8539 -3.87976C37.7712 -3.79706 37.8539 -3.71436 37.9366 -3.71436C38.0193 -3.79706 38.0193 -3.79706 38.102 -3.87976C38.0193 -3.87976 37.9366 -3.87976 37.8539 -3.87976ZM104.925 -12.3154C105.008 -12.0673 104.843 -11.6538 105.174 -11.8192C105.256 -11.9846 105.091 -12.2327 104.925 -12.3154ZM112.369 -5.36841C112.038 -5.78192 111.542 -5.94732 110.963 -5.94732C110.797 -5.45111 110.632 -5.0376 110.467 -4.54138C110.88 -4.37598 110.963 -4.54138 111.624 -4.62408C111.707 -4.54138 111.707 -4.45868 111.79 -4.45868C111.955 -4.70679 112.121 -5.1203 112.369 -5.36841ZM115.677 1.16508C116.09 1.08238 116.008 1.33049 116.421 1.33049C116.421 0.999676 116.421 0.586163 116.256 0.420757C115.677 0.172649 115.925 0.999676 115.677 1.16508ZM127.255 50.6211C127.338 50.5384 127.421 50.4557 127.421 50.373C127.172 50.2903 126.842 50.2903 126.676 50.5384C126.842 50.5384 127.09 50.5384 127.255 50.6211C127.255 50.5384 127.255 50.5384 127.255 50.6211ZM122.128 63.8535C122.128 63.6054 122.624 63.6054 122.376 63.2746C121.879 63.1918 121.714 63.7708 122.128 63.8535ZM113.03 65.2594C113.196 65.2594 113.361 65.2594 113.444 65.3421C113.444 65.1767 113.444 65.094 113.361 65.0113C113.278 65.0113 113.113 65.0113 113.03 65.0113C113.03 65.094 113.03 65.1767 113.03 65.2594ZM111.376 65.6729C111.459 65.6729 111.542 65.6729 111.542 65.6729C111.707 65.4248 111.872 65.094 112.038 64.8459C111.707 64.9286 111.211 65.094 111.376 65.6729ZM91.445 52.854C91.5277 53.1849 91.6931 53.3503 92.0239 53.1849C92.1066 52.7713 91.7758 52.9368 91.445 52.854ZM91.0315 54.1773C91.2796 54.3427 91.7758 54.1773 91.6104 53.8465H91.5277C91.3623 53.7638 91.1142 53.9292 91.0315 54.1773ZM55.3868 60.7108C55.8003 60.8762 55.8003 60.1319 55.3868 60.2973V60.7108ZM49.5976 58.5605C49.6803 58.8086 49.4322 59.4702 49.8457 59.3048C50.0111 59.0567 50.2592 58.7259 50.3419 58.3951C50.0111 58.2297 49.6803 58.147 49.1841 58.2297C49.3495 58.3124 49.5149 58.4778 49.5976 58.5605ZM45.7933 57.0719C45.7106 56.9892 45.7106 56.9065 45.7106 56.8238L45.4625 56.9065L45.5452 57.1546L45.7933 57.0719ZM34.1323 63.7708H33.8842V64.0189H34.1323V63.7708ZM27.5161 57.32C27.5161 57.5681 27.268 57.5681 27.1853 57.7335C27.3507 57.9816 27.7642 57.8989 28.2604 57.8989V57.4854C27.6815 57.6508 28.0123 57.4027 27.5161 57.32ZM26.7718 55.8313C26.6063 55.6659 26.2755 55.6659 26.1928 55.9967C26.2755 56.1621 26.7718 56.1621 26.7718 55.8313ZM19.9075 40.9449C19.5767 40.5314 20.5691 40.366 19.9075 40.9449V40.9449ZM33.7188 -10.6614L33.8015 -10.4132L34.0496 -10.496L33.9669 -10.7441L33.7188 -10.6614ZM43.8911 -2.63923C43.8084 -2.63923 43.7257 -2.63923 43.643 -2.55653C43.4776 -2.47382 43.3949 -2.30842 43.4776 -2.14301C43.5603 -2.14301 43.643 -2.22572 43.7257 -2.22572C43.8084 -2.39112 43.8911 -2.39112 43.8911 -2.63923ZM57.7851 -4.9549C57.7024 -5.1203 57.8678 -5.53381 57.4543 -5.36841C57.4543 -5.203 57.2889 -5.1203 57.2062 -4.9549C57.3716 -4.9549 57.537 -4.9549 57.7851 -4.9549ZM73.9948 -7.43597C73.9121 -7.35326 73.8294 -7.27056 73.664 -7.18786C74.0775 -7.02245 74.4083 -6.93975 74.9045 -6.85705C74.491 -7.02245 74.2429 -7.18786 73.9948 -7.43597ZM113.113 0.338058C113.03 -0.654369 113.94 -1.4814 113.113 -1.97761C113.03 -1.97761 113.03 -2.06031 112.948 -2.06031C113.527 -1.31599 111.955 -0.158157 113.113 0.338058ZM117.331 19.0288C117.496 19.6904 116.917 19.9385 116.917 20.4347C117.248 20.4347 117.579 20.2693 117.91 20.1866C117.992 19.7731 118.075 19.3596 118.323 19.0288C117.91 18.9461 117.579 18.9461 117.331 19.0288ZM116.173 50.7865C116.173 50.7865 116.173 50.7865 116.09 50.8692C116.09 51.1173 116.008 51.2827 115.925 51.5308C116.173 51.2827 116.09 51.0346 116.173 50.7865ZM108.812 38.9601C108.812 39.1255 108.978 39.2909 109.061 39.539C109.309 39.2082 109.805 38.9601 109.226 38.7119C109.061 38.7119 108.895 38.8773 108.812 38.9601ZM73.5813 75.101C73.4159 74.9356 73.2505 74.6875 73.0851 74.4394C72.6716 74.4394 72.258 74.4394 71.7618 74.4394C72.0099 74.9356 72.4234 75.5145 72.5061 75.8453C72.837 75.6799 73.1678 75.4318 73.5813 75.101ZM58.2813 70.6351C58.3641 70.5524 58.2813 70.3042 58.1159 70.3042C57.7851 70.3042 58.0332 70.8005 58.2813 70.6351ZM18.915 27.8779C18.9977 28.0433 18.5015 28.3742 18.915 28.2915C18.915 28.2087 18.915 28.126 18.9977 28.126C19.1631 28.2087 19.2458 28.3742 19.4939 28.2915C19.4939 28.2087 19.4939 28.126 19.4939 28.0433C19.5767 28.0433 19.5767 27.9606 19.5767 27.9606C19.4939 27.8779 19.2458 27.7952 18.915 27.8779ZM20.7345 24.6525C20.7345 24.6525 20.6518 24.7353 20.6518 24.818C20.7345 24.818 20.7345 24.818 20.8172 24.818C20.8172 24.7353 20.7345 24.7353 20.7345 24.6525ZM29.8317 -9.50352C29.8317 -9.42082 29.8317 -9.25542 29.8317 -9.09001C29.9144 -9.17271 29.9971 -9.17271 30.0798 -9.25542C30.1626 -9.42082 30.0798 -9.50352 29.8317 -9.50352ZM31.4031 -8.18028L31.4858 -7.93218L31.982 -8.09758L31.8993 -8.34569L31.4031 -8.18028ZM54.8078 -2.88734C54.9733 -3.13544 54.7251 -3.13544 54.5597 -3.46625C53.9808 -3.46625 54.3116 -2.63923 54.8078 -2.88734ZM53.65 -1.7295C53.7327 -1.7295 53.7327 -1.7295 53.7327 -1.89491C53.65 -1.89491 53.65 -1.89491 53.5673 -1.89491C53.4846 -1.81221 53.65 -1.8122 53.65 -1.7295ZM60.9278 -2.14301C60.7624 -2.14301 60.597 -2.06031 60.4316 -1.97761C60.4316 -1.89491 60.3489 -1.81221 60.2662 -1.81221C60.5143 -1.7295 60.8451 -1.5641 61.0932 -1.39869C61.2586 -1.6468 61.5067 -1.7295 61.7548 -1.6468C61.8375 -1.81221 62.0857 -1.89491 62.0857 -2.06031C61.9202 -2.14301 61.7548 -2.22572 61.5894 -2.22572C61.424 -2.06031 61.2586 -1.89491 60.9278 -1.89491C60.9278 -1.97761 60.9278 -2.06031 60.9278 -2.14301ZM72.0926 -5.1203C71.9272 -5.1203 71.7618 -5.03759 71.5964 -5.03759C71.9272 -4.62408 72.0926 -4.12787 72.0926 -3.63166C72.5889 -3.79706 72.5889 -3.63166 73.1678 -3.63166C73.1678 -4.37598 74.3256 -4.12787 74.8218 -4.37598L74.9045 -4.54138C73.8294 -4.54138 72.7543 -4.45868 72.0926 -5.1203ZM94.3396 -2.97004V-3.13544H94.0915V-2.97004C94.1742 -2.97004 94.2569 -2.97004 94.3396 -2.97004ZM98.2266 -8.09758C98.2266 -8.18029 98.0612 -8.18029 97.8958 -8.26299C97.8131 -8.18029 97.7304 -8.01488 97.7304 -7.93218C97.7304 -7.84948 97.8131 -7.84948 97.8131 -7.76677C97.8131 -8.09758 97.9785 -8.09758 98.2266 -8.09758ZM107.324 -5.1203C107.572 -5.36841 107.737 -5.69921 107.737 -6.03003C106.662 -6.19543 106.497 -5.69921 105.835 -5.53381C106.331 -5.28571 106.828 -5.1203 107.324 -5.1203ZM112.7 0.420757C112.7 0.338055 112.617 0.338055 112.534 0.255352C112.617 0.338055 112.617 0.338055 112.7 0.420757ZM123.037 45.8243C123.616 45.9071 124.112 46.4033 124.857 46.1552C124.691 45.1627 124.03 45.2454 123.616 44.5838C123.203 44.9146 123.203 45.4108 123.037 45.8243ZM125.27 43.9222C125.188 44.0049 125.188 44.0876 125.188 44.253C125.188 44.253 125.27 44.253 125.353 44.253C125.27 44.1703 125.27 44.1703 125.27 44.1703C125.27 44.0876 125.27 44.0049 125.27 43.9222ZM122.045 48.3054L121.962 48.0573L121.714 48.14L121.797 48.3881L122.045 48.3054ZM122.706 58.147L122.458 58.2297L122.541 58.4778L122.789 58.3951L122.706 58.147ZM104.76 55.3351C104.925 55.2524 105.091 55.1697 105.256 55.087C105.174 55.087 105.174 55.0043 105.174 54.9216C105.091 55.0043 105.091 55.1697 104.76 55.1697C104.76 55.2524 104.76 55.2524 104.76 55.3351ZM103.602 55.1697C103.602 55.1697 103.602 55.087 103.52 55.0043C103.437 55.0043 103.354 55.087 103.271 55.087L103.354 55.2524L103.602 55.1697ZM72.5889 73.4469C71.7618 73.5296 72.7543 74.0259 72.5889 73.4469V73.4469ZM38.1847 34.7422C38.102 34.8249 37.9366 34.9903 37.8539 35.073C38.0193 35.073 38.2674 34.9076 38.1847 34.7422ZM32.3128 53.0195C32.5609 53.1849 32.809 53.3503 33.1398 53.5157C33.5533 53.0195 33.3879 52.2751 33.9669 51.6962C33.6361 51.6962 33.3879 51.6962 33.1398 51.7789C32.8917 52.1924 32.6436 52.6059 32.3128 53.0195ZM23.7118 12.9088C23.5464 13.3223 23.9599 13.1569 24.2907 13.1569V12.7434C24.0426 12.7434 23.9599 12.9088 23.7118 12.9088ZM28.0123 8.02937C28.095 7.94667 28.1777 8.02937 28.4258 8.02937C28.3431 8.02937 28.1777 7.94667 28.0123 8.02937ZM29.6663 -5.69921C29.6663 -5.78192 29.6663 -5.78192 29.6663 -5.69921V-5.69921ZM28.4258 42.5163L28.5085 42.7644L28.7566 42.6817L28.6739 42.4335L28.4258 42.5163ZM35.6209 8.8564C35.7036 8.8564 35.7863 8.8564 35.7863 8.8564C35.869 8.69099 35.9517 8.60829 35.9517 8.44289C35.7863 8.52559 35.7036 8.69099 35.6209 8.8564ZM30.8242 14.3148L30.9069 14.5629L31.155 14.4802L31.0723 14.2321L30.8242 14.3148ZM32.4782 24.9007H32.7263V24.6525H32.4782V24.9007ZM31.155 43.1779C31.4031 43.3433 31.7339 43.2606 31.982 43.2606C32.0647 43.0952 32.1474 42.8471 32.1474 42.6817C31.8166 42.599 31.155 42.599 31.155 43.1779ZM35.6209 14.811L35.2901 14.8937V14.9764H35.6209V14.811ZM30.4934 24.4044C30.4107 24.4871 30.328 24.5698 30.4107 24.6525C30.4934 24.6525 30.6588 24.7353 30.7415 24.818C30.8242 24.6525 30.7415 24.4044 30.4934 24.4044ZM34.9593 26.3066C35.3728 26.0585 35.9517 25.8931 36.5306 25.645C36.4479 25.4796 36.4479 25.3969 36.5306 25.2315L35.7036 25.4796C35.6209 25.8104 35.2901 26.1412 34.9593 26.3066ZM37.1096 23.0812C37.1096 23.4947 37.8539 23.2466 37.5231 22.9985L37.1096 23.0812ZM36.6133 8.19478C36.6133 8.11208 36.6133 8.11208 36.6133 8.02937C36.4479 8.11208 36.2825 8.27748 36.1171 8.36019C36.2825 8.36019 36.4479 8.27748 36.6133 8.19478ZM34.8766 34.8249C34.9593 34.9076 34.9593 34.9903 34.9593 35.073H35.042L34.8766 34.8249ZM45.2971 38.3811C45.3798 38.4638 45.3798 38.5465 45.5452 38.6292C45.5452 38.6292 45.4625 38.3811 45.2971 38.3811ZM43.3949 14.5629C43.643 14.3975 43.8084 14.1493 43.8911 13.8185C43.7257 13.7358 43.643 13.5704 43.4776 13.4877C42.9814 13.6531 42.4852 13.9012 42.0717 14.2321C41.9063 14.5629 41.5755 14.8937 41.5755 15.4726C41.2447 15.638 41.162 15.8861 40.7485 15.9688C40.7485 16.465 40.4176 16.9612 39.9214 17.1266C39.9214 17.4574 39.8387 17.7882 39.5906 18.0364C40.1695 18.0364 40.7485 18.0364 41.3274 18.0364C41.4928 17.871 41.5755 17.7056 41.7409 17.5401C42.1544 16.6304 43.1468 15.8034 43.3949 14.5629ZM30.2453 5.21749C30.4934 5.21749 30.6588 5.21749 30.8242 5.13479C31.0723 4.80398 31.4031 4.55587 31.8993 4.39047C31.8993 4.30777 31.8993 4.30777 31.8993 4.22507C31.0723 4.22507 30.1626 4.47317 30.2453 5.21749ZM30.7415 -3.38355C30.9896 -2.97004 30.2453 -3.05274 30.4934 -2.63923C30.7415 -2.72193 30.9896 -2.72193 31.155 -2.63923C31.2377 -2.97004 31.4031 -3.38355 31.6512 -3.63166C31.4031 -3.46625 31.0723 -3.38355 30.7415 -3.38355ZM27.5161 41.2757C27.1853 41.6892 26.9372 42.1027 26.6891 42.599C26.9372 42.6817 27.1853 42.7644 27.4334 42.9298C27.6815 42.6817 27.8469 42.4335 28.0123 42.1027C28.5085 42.02 29.0047 41.7719 29.3355 41.3584C29.4182 41.193 29.4182 41.0276 29.5009 40.8622C29.5009 40.6968 29.2528 40.6141 28.8393 40.6141C28.3431 40.6968 27.8469 40.9449 27.5161 41.2757ZM28.8393 47.2303C28.7566 47.4784 28.5912 47.7265 28.5085 48.0573C28.6739 48.0573 28.7566 48.0573 28.922 48.0573C29.2528 48.14 29.4182 48.6362 29.9971 48.3881C30.2453 47.6438 29.3355 47.4784 28.8393 47.2303ZM34.1323 45.8243C34.0496 45.7416 34.0496 45.7416 34.0496 45.7416C33.8842 45.6589 33.6361 45.6589 33.3879 45.6589C33.3052 45.7416 33.3052 45.9071 33.3052 46.0725C33.7188 46.1552 33.6361 45.6589 34.1323 45.8243ZM87.3926 -1.4814C87.3926 -1.39869 87.3099 -1.23329 87.2272 -1.06788C87.6407 -1.15059 88.3023 -1.23329 88.0542 -1.56409L87.6407 -1.39869C87.558 -1.39869 87.4753 -1.39869 87.3926 -1.4814ZM106.249 4.55587C105.339 4.72128 106.331 5.13479 106.249 4.55587V4.55587ZM96.2417 20.5174C95.8282 19.4423 96.8206 18.9461 97.7304 19.2769C97.8131 19.1942 97.8131 19.1942 97.8131 19.1942C97.3996 18.9461 96.986 18.698 96.4071 18.6153C95.7455 19.0288 95.0012 19.4423 95.0012 20.1866C95.4974 20.2693 95.6628 20.6828 96.2417 20.5174ZM61.2586 31.4341C61.3413 31.3514 61.3413 31.186 61.3413 31.1033C61.2586 30.9379 61.0932 30.7725 61.0105 30.6071C60.8451 30.6071 60.6797 30.6071 60.5143 30.6898C60.8451 30.9379 61.0105 31.186 61.2586 31.4341ZM52.1614 28.7877C52.4922 28.0433 53.4846 27.8779 53.8154 27.3817C53.7327 27.1336 53.65 26.8855 53.5673 26.7201C53.3192 26.8028 53.1538 27.0509 53.1538 27.299C52.3268 27.6298 51.5825 27.9606 51.4998 28.6223C51.6652 28.5396 51.9133 28.8704 52.1614 28.7877ZM90.2045 6.78884C90.2872 6.95424 89.7909 7.20235 90.2045 7.11965C90.2045 7.03695 90.2045 6.95425 90.2872 6.95425C90.4526 7.11965 90.618 7.28505 91.0315 7.03695C90.9488 6.70614 90.5353 6.78884 90.2045 6.78884ZM95.332 12.2472C95.2493 12.4126 95.2493 12.4953 95.332 12.578C95.4974 12.6607 95.7455 12.6607 95.9109 12.7434C95.9109 12.4126 95.6628 12.3299 95.332 12.2472ZM98.3093 45.5762C98.3093 45.6589 98.2266 45.7416 98.1439 45.8243C98.392 45.8243 98.6401 45.8243 98.5574 45.5762H98.3093ZM99.9633 21.2617L99.7152 21.3445L99.7979 21.5926L100.046 21.5099L99.9633 21.2617ZM99.6325 16.0515C99.6325 15.9688 99.6325 15.8861 99.6325 15.8034C99.5498 15.8861 99.5498 15.9688 99.5498 16.0515H99.6325ZM99.3844 10.4277C99.219 10.5932 99.219 10.924 99.3017 11.1721C99.3844 11.0894 99.4671 11.0067 99.5498 10.8413C99.5498 10.6758 99.5498 10.5104 99.3844 10.4277ZM97.7304 9.51802C97.9785 9.43531 98.3093 9.51802 98.2266 9.43531C98.0612 9.26991 97.6477 8.7737 97.565 9.0218C97.8131 9.0218 97.7304 9.35261 97.7304 9.51802ZM96.3244 5.3002C96.3244 5.3002 96.4071 5.3002 96.4071 5.3829C96.4071 5.3002 96.4071 5.3002 96.3244 5.21749V5.3002ZM91.445 14.5629C91.6104 14.7283 91.9412 14.7283 92.1893 14.7283L92.272 14.6456C92.1066 14.3975 91.9412 14.2321 91.9412 14.0667C91.8585 14.0667 91.7758 14.0667 91.6931 14.0667C91.7758 14.3148 91.3623 14.2321 91.445 14.5629ZM78.2126 31.7649C78.2126 31.6822 78.2126 31.5168 78.0472 31.2687C77.8818 31.186 77.7991 30.8552 77.6337 30.8552C77.2202 30.7725 76.6413 30.8552 76.2278 31.0206V31.1033C75.8969 31.6823 75.7315 32.3439 75.8969 32.9228C76.3105 32.8401 76.724 32.9228 77.2202 33.0882C77.4683 32.8401 77.551 32.5093 77.3856 32.2612C77.9645 32.3439 77.6337 31.6822 78.2126 31.7649ZM63.4089 -0.323563C63.4916 -0.0754547 63.657 0.00724792 63.9051 -0.0754547C63.9051 -0.24086 63.8224 -0.406265 63.7397 -0.488968C63.5743 -0.488968 63.5743 -0.571667 63.4089 -0.323563ZM71.3483 10.0142C70.8521 10.0969 70.3559 9.84883 70.1905 9.43531C69.9424 9.43531 69.6943 9.43531 69.4462 9.43531C69.6943 10.0969 69.9424 10.6758 70.6867 10.924C70.8521 10.5931 71.3483 10.5104 71.3483 10.0142ZM73.7467 7.20235H73.4986C73.4986 7.45046 73.5813 7.45046 73.7467 7.45046V7.20235ZM72.5889 13.2396C72.7543 13.1569 72.9197 13.0742 72.7543 12.9088C72.5889 12.9915 72.4234 12.9915 72.4234 13.1569C72.5061 13.1569 72.5889 13.1569 72.5889 13.2396ZM69.777 16.2996C69.6116 16.3823 69.5289 16.465 69.4462 16.3823C69.1154 17.0439 68.7018 17.7056 68.1229 18.2845C68.4537 18.3672 68.7845 18.4499 69.1981 18.5326C69.1981 18.4499 69.2808 18.2845 69.2808 18.1191C70.3559 17.871 70.3559 16.7958 71.0175 16.2169C71.1002 16.1342 71.1002 16.0515 71.1002 15.9688C71.1829 15.638 70.8521 15.3072 70.5213 15.3072H70.2732L70.1905 15.4726C70.2732 15.8034 70.0251 16.0515 69.777 16.2996ZM71.0175 21.3445C71.1002 21.3445 71.1829 21.3445 71.3483 21.1791C71.1829 21.2618 71.1002 21.1791 71.0175 21.1791C71.0175 21.2618 71.0175 21.2617 71.0175 21.3445ZM67.2959 29.1185C67.3786 29.1185 67.3786 29.1185 67.3786 29.2012C67.3786 29.1185 67.3786 29.1185 67.3786 29.1185H67.2959ZM63.3262 21.8407C63.1608 21.9234 63.0781 22.0061 62.9127 22.1715C62.9954 22.1715 63.0781 22.2542 63.1608 22.2542C63.2435 22.0888 63.2435 22.0061 63.3262 21.8407ZM65.2283 22.585C65.0629 22.7504 65.0629 22.9158 65.0629 23.0812C65.2283 23.0812 65.311 22.9985 65.4764 22.9985C65.4764 22.8331 65.5592 22.7504 65.6419 22.585C65.5592 22.5023 65.3938 22.5023 65.2283 22.585ZM72.9197 13.6531C72.9197 13.6531 73.0024 13.5704 73.0024 13.405L72.837 13.5704C72.837 13.6531 72.9197 13.6531 72.9197 13.6531ZM69.1154 9.43531C69.0327 9.43531 68.95 9.43531 68.8672 9.43531V9.51802L69.1154 9.43531ZM63.2435 8.44289C63.1608 8.36018 62.9127 8.36018 62.83 8.44289C62.9954 8.52559 63.0781 8.52559 63.2435 8.60829C63.2435 8.60829 63.2435 8.52559 63.2435 8.44289ZM63.5743 11.751C63.4089 11.9164 63.2435 12.0818 62.9954 12.1645C63.2435 12.578 63.5743 12.8261 64.0705 12.9088C63.9878 13.4877 64.3186 13.8185 64.8975 13.8185C65.2283 13.6531 65.1456 13.1569 65.9727 13.3223C66.0554 12.1645 64.3186 12.3299 63.9051 11.5029C63.7397 11.5856 63.657 11.6683 63.5743 11.751ZM60.1835 13.9839C60.0181 14.1493 59.9354 14.2321 59.77 14.3148C59.77 14.1493 59.6046 13.9839 59.6046 14.2321C59.5219 14.2321 59.4392 14.3148 59.5219 14.3975C59.8527 14.4802 60.0181 14.9764 60.5143 15.3072C60.597 15.3072 60.597 15.3899 60.6797 15.4726C60.8451 15.5553 60.9278 15.638 61.0932 15.638C61.0932 15.2245 61.2586 14.7283 60.8451 14.7283C60.8451 14.9764 60.6797 15.0591 60.4316 14.9764C60.1835 14.6456 60.1835 14.3148 60.1835 13.9839ZM70.1905 59.5529C70.4386 59.7183 70.6867 59.801 70.7694 59.8837C71.0175 59.5529 71.9272 59.7183 71.8445 59.1394C71.6791 59.0567 71.5137 58.8913 71.431 58.7259C70.9348 58.8086 70.3559 58.7259 70.0251 58.3951C69.9424 58.5605 69.8597 58.7259 69.777 58.974C69.8597 59.0567 69.9424 59.1394 70.0251 59.2221C70.1078 59.3048 70.1078 59.4702 70.1905 59.5529ZM87.8061 10.6758C88.3023 10.6758 88.6331 10.345 88.7985 9.84883C88.5504 10.1796 88.2196 10.4277 87.8061 10.6758ZM82.5958 8.7737C82.6785 8.7737 82.7612 8.7737 82.9266 8.7737C83.0093 8.69099 83.0921 8.60829 83.1748 8.52559C82.9267 8.60829 82.7612 8.69099 82.5958 8.7737ZM85.4077 41.6892L85.1596 41.7719V41.8546L85.4077 41.6892ZM85.1596 5.05209C85.0769 5.4656 85.9866 5.5483 85.9866 5.21749C85.5731 5.3002 85.5731 4.96939 85.1596 5.05209ZM79.6186 14.9764L79.5359 15.0591C79.5359 15.1418 79.5359 15.2245 79.5359 15.3072C79.5359 15.1418 79.6186 15.0591 79.6186 14.9764ZM65.8073 2.40562C65.89 2.32291 65.9727 2.32291 66.0554 2.15751C65.7246 1.9094 65.2283 1.9094 64.8148 2.15751C65.1456 2.24021 65.4765 2.32291 65.8073 2.40562ZM63.7397 0.338058L63.4089 0.420757C63.5743 0.420757 63.657 0.420761 63.7397 0.338058ZM51.0035 25.9758V26.0585C51.0862 26.0585 51.0862 25.9758 51.1689 25.9758H51.0035ZM51.9133 26.6374C51.9133 26.7201 51.9133 26.8028 51.9133 26.9682L52.1614 26.8855L52.0787 26.6374H51.9133ZM55.6349 40.9449C55.2214 40.9449 55.2214 41.193 54.8906 41.2757C54.9733 41.6065 55.2214 41.8546 55.5522 41.9373C55.7176 41.6892 55.883 41.5238 55.9657 41.2757C55.8003 41.2757 55.6349 41.1103 55.6349 40.9449ZM57.537 26.8855C58.1986 27.1336 58.2813 27.7952 58.6949 28.2915C59.1911 28.2915 59.0257 27.8779 59.1911 27.7125C58.943 27.299 58.364 27.299 58.1159 26.5547C57.9505 26.7201 57.4543 26.6374 57.537 26.8855ZM90.9488 16.5477C90.9488 16.6304 91.0315 16.7958 91.0315 16.8785C91.3623 16.8785 91.2796 16.465 91.0315 16.3823C91.0315 16.465 90.9488 16.465 90.9488 16.5477ZM97.8958 50.2903C97.8958 50.4557 98.0612 50.5384 98.1439 50.6211C98.5574 50.5384 98.4747 49.4633 99.219 49.2151C99.219 49.2151 99.219 49.1324 99.219 49.0497C99.219 49.1324 99.1363 49.1324 99.1363 49.1324C98.2266 49.0497 98.1439 49.8768 97.8958 50.2903ZM102.114 31.7649C102.196 31.7649 102.196 31.7649 102.196 31.6822C102.114 31.6822 102.114 31.7649 102.114 31.7649ZM103.52 44.6665C103.602 44.6665 103.685 44.6665 103.768 44.6665C103.933 44.5838 104.181 44.5011 104.347 44.4184C104.429 44.4184 104.512 44.4184 104.595 44.4184V44.3357C104.512 44.253 103.52 44.4184 103.52 44.6665ZM105.174 42.599C105.256 42.7644 105.256 43.0952 105.504 43.0952C105.504 42.9298 106.001 42.3509 105.67 42.3509C105.67 42.5163 105.339 42.5163 105.174 42.599ZM94.505 4.72128C94.3396 4.88668 94.1742 4.96939 94.0088 5.05209C94.3396 5.21749 94.7531 5.3002 95.1666 5.21749C95.0012 4.88668 94.5877 5.05209 94.505 4.72128ZM91.9412 7.45046C91.8585 7.36776 91.7758 7.28505 91.6931 7.28505C91.5277 7.36776 91.3623 7.53316 91.2796 7.69856C91.445 7.78127 91.7758 7.86397 91.9412 7.45046ZM82.0996 5.54831C82.0996 5.4656 82.0996 5.4656 82.0169 5.4656L82.0996 5.54831ZM58.1986 11.5029C58.0332 11.5856 57.8678 11.6683 57.7024 11.8337C57.6197 12.1645 57.537 12.4126 57.4543 12.7434C57.6197 12.9088 57.7851 13.0742 57.9505 13.3223C58.2813 13.0742 58.5295 12.7434 58.6949 12.4126C58.7776 12.3299 58.7776 12.3299 58.8603 12.3299C58.6949 11.9991 58.4468 11.751 58.1986 11.5029ZM51.0035 17.3747C51.0035 17.3747 51.0035 17.292 51.0035 17.1266C50.9208 17.0439 50.59 17.2093 50.59 17.292C50.59 17.3747 50.59 17.3747 50.59 17.3747C50.6727 17.3747 50.8381 17.3747 51.0035 17.3747ZM52.6576 37.3887C52.7403 37.7195 52.9057 37.9676 52.9884 38.133C53.4019 38.133 53.9808 38.133 54.3943 38.2984C54.477 38.0503 54.8906 37.9676 55.056 37.7195C54.3943 36.7271 53.65 37.0579 52.6576 37.3887ZM53.65 45.9071C53.4019 45.9898 52.4922 45.8243 52.9057 46.4033C53.2365 46.0725 53.7327 46.4033 53.65 45.9071ZM55.8003 49.6287C55.6349 50.0422 55.3868 50.373 55.3041 50.8692C55.9657 50.9519 55.8003 50.2076 56.3792 50.1249C56.2965 50.0422 56.2138 49.9595 56.2138 49.8768C56.0484 49.7941 55.883 49.7114 55.8003 49.6287ZM67.7921 72.2891C67.7094 72.2064 67.6267 72.2064 67.544 72.2064L67.4613 72.2891C67.544 72.2891 67.7094 72.2891 67.7921 72.2891ZM73.664 67.9886C73.9948 67.9886 74.3256 67.9886 74.8218 67.9059C74.8218 67.6578 74.8218 67.4097 74.7391 67.1616C74.6564 67.1616 74.5737 67.0788 74.491 67.0788C74.0775 67.4097 73.8294 67.6578 73.664 67.9886ZM99.219 61.8686C99.3017 61.9513 99.3017 62.034 99.3844 62.1994C99.3017 62.1167 99.3017 61.9513 99.219 61.8686ZM110.963 13.8185C111.045 13.8185 111.128 13.8185 111.128 13.9012C111.128 13.7358 111.128 13.6531 111.128 13.4877C111.045 13.4877 110.963 13.4877 110.88 13.4877C110.963 13.5704 111.045 13.7358 110.963 13.8185ZM114.354 30.6898H113.94C113.94 31.0206 113.692 30.9379 113.94 31.186C114.271 31.186 114.354 31.0206 114.354 30.6898ZM112.038 44.0049C112.451 44.1703 112.451 43.426 112.038 43.5914V44.0049ZM114.519 45.2454C114.519 45.08 114.602 44.9146 114.684 44.5838C114.684 44.4184 114.602 44.253 114.519 44.1703C114.354 43.9222 114.188 43.6741 113.94 43.3433C113.527 44.0876 113.361 45.08 112.534 45.4935C112.617 45.5762 112.7 45.6589 112.782 45.7416C113.278 45.2454 113.527 45.4108 114.271 45.4935C114.354 45.4108 114.436 45.3281 114.519 45.2454ZM108.316 13.0742C108.234 12.7434 108.399 12.578 108.482 12.4953C108.151 12.4126 107.903 12.3299 107.655 12.1645C107.655 12.4126 107.572 12.6607 107.489 12.9088C107.655 12.9915 107.903 13.0742 108.316 13.0742ZM91.2796 -3.38355V-3.63166C91.0315 -3.96246 90.4526 -3.87976 89.9563 -4.04517C90.2045 -3.54895 90.7834 -3.30085 91.2796 -3.38355ZM69.6943 -4.29328C69.3635 -4.54138 68.95 -4.70679 68.5364 -4.78949C68.5364 -4.54138 68.371 -4.37598 68.2056 -4.21057C68.5364 -3.71436 69.0327 -3.30085 69.6116 -2.97004C69.6943 -2.97004 69.777 -3.05274 69.8597 -3.13544C69.777 -3.54895 69.5289 -3.79706 69.6943 -4.29328ZM57.9505 -0.0754547C57.8678 0.00724792 57.7024 0.0899506 57.537 0.172653C57.3716 0.420757 57.2062 0.751568 57.0408 1.08237C57.7024 1.33048 58.4468 1.49589 59.1911 1.49589C59.0257 0.999676 58.8603 0.50346 58.6949 0.00724792C58.3641 0.172649 58.1159 0.420761 57.9505 -0.0754547ZM52.7403 14.3148C52.1614 14.5629 51.5825 14.8937 50.8381 15.2245C50.9208 15.3072 50.9208 15.4726 50.8381 15.5553C50.8381 15.8861 50.8381 16.2169 51.0035 16.3823C52.1614 15.8861 52.1614 15.2245 52.7403 14.3148ZM29.5009 -5.61651C29.3355 -5.69921 29.1701 -5.61651 29.0047 -5.53381C29.0047 -5.36841 29.1701 -5.36841 29.3355 -5.36841C29.3355 -5.45111 29.2528 -5.45111 29.2528 -5.53381C29.3355 -5.53381 29.4182 -5.61651 29.5009 -5.61651ZM23.8772 13.5704C23.7118 13.5704 23.5464 13.5704 23.5464 13.8185C23.7118 13.7358 23.7945 13.6531 23.8772 13.5704ZM27.5161 50.1249C27.8469 50.5384 28.3431 50.5384 28.7566 50.7865C28.8393 50.6211 28.8393 50.5384 28.922 50.373H28.8393C28.7566 50.373 28.6739 50.0422 28.6739 50.0422C28.4258 49.9595 28.4258 50.2903 28.1777 50.2903C27.9296 50.2903 27.6815 49.7941 27.5988 49.9595C27.5161 50.0422 27.5161 50.0422 27.5161 50.1249ZM29.4182 50.1249C29.2528 50.2076 29.1701 50.2903 29.0047 50.373C29.0874 50.373 29.2528 50.373 29.2528 50.373C29.3355 50.2903 29.3355 50.2076 29.4182 50.1249ZM33.6361 59.4702C33.7188 59.3875 33.7188 59.2221 33.7188 59.1394C33.7188 59.3048 33.6361 59.3875 33.6361 59.4702ZM42.4852 60.0492C42.816 60.2973 43.1468 60.5454 43.0641 60.8762C43.3122 61.0416 43.643 61.0416 44.0565 61.207C43.8084 60.4627 43.3122 59.9665 42.4852 60.0492ZM48.6052 55.6659C48.6052 55.7486 48.6052 55.8313 48.6879 55.914H48.7706C48.7706 55.8313 48.6879 55.7486 48.6052 55.6659ZM60.8451 55.5832V56.0794H61.0932V55.5832H60.8451ZM67.2132 77.5821C67.1305 77.6648 67.0478 77.8302 66.9651 77.9129L67.4613 77.7475L67.3786 77.4994L67.2132 77.5821ZM69.4462 79.815C69.1981 79.8977 68.95 79.9804 68.7845 80.0631C69.5289 80.2285 70.2732 80.3939 71.0175 80.642C71.0175 80.5593 70.9348 80.3939 70.9348 80.3112C70.7694 79.9804 70.1905 79.7323 69.8597 80.1458C69.6943 80.0631 69.6116 79.8977 69.4462 79.815ZM102.114 61.6205C102.693 61.207 103.189 60.7108 103.354 60.2146C102.858 60.0491 102.362 59.8838 101.865 59.6356C101.535 58.3124 101.038 57.9816 100.79 57.2373C100.294 57.2373 100.79 57.7335 100.294 57.8162C100.708 58.3951 100.211 58.6432 100.211 59.0567C100.294 59.1394 100.377 59.2221 100.46 59.3048C101.204 60.38 101.121 61.6205 102.114 61.6205ZM104.925 57.32C105.008 57.4854 104.843 57.8989 105.174 57.8162C105.256 57.5681 105.174 57.32 104.925 57.32ZM104.925 48.4708C105.008 48.4708 105.091 48.5535 105.091 48.4708C105.174 48.4708 105.256 48.4708 105.256 48.3881C105.174 48.14 105.008 48.0573 104.843 48.0573C104.76 48.2227 104.925 48.2227 104.925 48.4708ZM122.128 49.7941C122.458 49.4632 122.872 49.1324 123.368 48.967C122.624 49.0497 121.797 49.1324 121.052 49.2151C121.301 49.6287 121.714 49.7941 122.128 49.7941ZM124.361 16.1342L124.195 16.2169V16.2996C124.195 16.2169 124.361 16.2169 124.361 16.1342ZM116.752 17.6228C116.669 17.1266 115.925 17.292 116.256 17.7883L116.752 17.6228ZM114.023 18.7807C114.188 19.0288 114.354 19.1942 114.602 19.3596C115.346 18.7807 115.181 17.871 115.759 17.2093C115.594 17.2093 115.429 17.1266 115.346 17.0439C115.181 17.1266 115.015 17.292 114.85 17.4574C113.278 17.3747 112.782 17.7055 111.872 17.6228C111.872 17.7055 111.872 17.7056 111.872 17.7883C111.955 17.871 111.955 17.871 112.038 17.9537C112.203 18.0364 112.369 18.0364 112.286 18.2845C113.196 18.1191 113.113 18.8634 114.023 18.7807ZM110.136 -1.89491C110.301 -2.06031 110.467 -2.14301 110.632 -2.30842C110.384 -2.30842 110.218 -2.22572 110.053 -2.22572C110.053 -2.14302 110.053 -1.97761 110.136 -1.89491ZM105.67 -6.93975C105.753 -7.02245 105.752 -7.10516 105.835 -7.27056C105.67 -7.27056 105.587 -7.35326 105.422 -7.35326C105.422 -7.18785 105.504 -7.02245 105.67 -6.93975ZM104.595 -7.60137C104.429 -7.60137 104.264 -7.60137 104.098 -7.68407V-7.60137C104.181 -7.60137 104.429 -7.60137 104.595 -7.60137ZM103.768 2.73642C103.602 2.40561 103.271 2.15751 102.941 2.07481C102.693 2.32291 102.527 2.65372 102.527 2.98453C102.858 3.14994 103.189 3.39804 103.52 3.56345C103.437 3.31534 103.602 3.06723 103.768 2.73642ZM100.625 0.172653C100.377 -0.158157 100.294 -0.488968 99.9633 -0.654373C99.8806 -0.158157 99.6325 0.338058 99.3017 0.751568C99.7152 0.50346 100.129 0.338055 100.625 0.172653ZM97.2342 -9.50352C97.1515 -9.50352 97.0687 -9.50352 96.986 -9.50352C96.986 -9.33812 96.9033 -9.17271 96.8206 -9.00731C97.565 -9.09001 97.3996 -8.42839 97.8958 -8.26299C97.8958 -8.6765 97.9785 -9.00731 97.9785 -9.25542C97.8131 -9.17271 97.6477 -9.09001 97.565 -9.25542C97.3996 -9.66893 97.8958 -9.66893 97.565 -10.0824C96.7379 -10.2478 97.565 -9.58623 97.2342 -9.50352ZM95.7455 -11.323L95.4974 -11.2403V-11.1576H95.7455V-11.323ZM83.671 -2.63923C83.5883 -2.72193 83.5056 -2.80463 83.3402 -2.80463V-2.72193C83.4229 -2.72193 83.5883 -2.63923 83.671 -2.63923ZM77.8818 -2.14301C78.0472 -2.14301 78.2126 -2.22572 78.378 -2.22572C78.6261 -2.47382 78.8742 -2.55653 79.205 -2.55653C79.1223 -3.13544 78.7915 -3.63166 78.1299 -3.79706C78.1299 -3.79706 78.0472 -3.79706 77.9645 -3.79706C77.551 -3.30085 77.1375 -2.80463 76.5586 -2.39112C76.8894 -2.30842 77.1375 -2.06031 77.551 -2.47382C77.6337 -2.30842 77.7991 -2.22572 77.8818 -2.14301ZM57.9505 -4.87219C57.9505 -4.87219 57.9505 -4.87219 58.0332 -4.78949V-4.87219H57.9505ZM51.6652 -9.33812L51.4998 -9.25542C51.4998 -9.17271 51.4998 -9.09001 51.4998 -9.00731L51.7479 -9.09001L51.6652 -9.33812ZM28.7566 -5.203C28.6739 -5.0376 28.5912 -4.9549 28.5085 -4.78949V-4.70679C28.6739 -4.78949 28.7566 -4.78949 28.922 -4.78949C28.922 -4.87219 29.0047 -4.87219 29.0874 -4.9549C29.0874 -5.0376 29.0874 -5.1203 29.0874 -5.203C29.0047 -5.203 28.8393 -5.203 28.7566 -5.203ZM22.2231 22.7504C21.8096 22.9985 21.5615 23.3293 21.3961 23.9082C21.6442 23.6601 21.975 23.4947 22.2231 23.2466C22.2231 23.1639 22.2231 23.1639 22.2231 23.0812C22.7193 22.585 23.2156 21.9234 23.4637 21.2617L23.2156 21.0136C23.2156 21.0963 23.1329 21.1791 23.1329 21.2617C22.6366 21.3445 22.7193 21.8407 22.3058 21.9234V22.7504H22.2231ZM19.1631 41.7719V42.02H19.4112V41.7719H19.1631ZM29.8317 57.32C29.8317 57.4854 29.6663 57.8989 30.0798 57.8162C30.2453 57.5681 30.1626 57.32 29.8317 57.32ZM46.0414 56.7411H45.876L45.9587 56.9892H46.1241C46.1241 56.9065 46.0414 56.8238 46.0414 56.7411ZM46.1241 49.8768C46.2068 50.0422 46.2895 50.1249 46.4549 50.2903C46.8684 49.8768 47.2819 49.546 47.8609 49.1324C47.7782 48.8843 47.6954 48.6362 47.53 48.3881C47.0338 48.7189 46.5376 49.2151 46.1241 49.8768ZM57.8678 78.3264C58.1986 78.4918 58.4468 78.6572 58.6122 78.9053C58.7776 78.7399 58.8603 78.5745 58.8603 78.3264C58.6949 78.161 58.6122 77.9956 58.6122 77.8302C58.1159 78.0783 57.6197 77.4994 57.7851 77.1685C57.7024 77.0858 57.6197 77.1685 57.4543 77.1685C57.4543 77.5821 57.6197 77.9956 57.8678 78.3264ZM61.424 69.9734C61.5067 69.9734 61.5894 69.9734 61.6721 69.8907H61.424V69.9734ZM78.2953 70.9659C78.2953 71.0486 78.2126 71.1313 78.2126 71.2967C78.378 71.2967 78.4607 71.3794 78.5434 71.4621C78.378 71.2967 78.5434 71.214 78.4607 70.9659C78.378 70.9659 78.378 70.9659 78.2953 70.9659ZM84.7461 74.3567L84.498 74.4394L84.5807 74.6875L84.8288 74.6048L84.7461 74.3567ZM99.3844 71.7929C99.7152 71.8756 99.9633 72.1237 100.129 72.3718C100.294 72.3718 100.542 72.2891 100.708 72.2064C100.873 72.2064 100.873 72.1237 100.79 71.9583C100.542 71.7929 100.129 71.7929 99.7979 71.9583C99.7152 71.8756 99.5498 71.7102 99.3844 71.6275C99.4671 71.7102 99.3844 71.7102 99.3844 71.7929ZM104.677 51.4481C105.091 51.2827 105.504 51.0346 105.918 50.7865C105.835 50.4557 105.67 50.2076 105.339 50.1249C105.339 50.2076 105.422 50.4557 105.339 50.5384C105.174 50.7865 104.925 50.8692 104.76 51.0346C104.677 51.2 104.677 51.2827 104.677 51.4481ZM128.826 33.3363C128.826 33.2536 128.826 33.2536 128.826 33.3363V33.3363ZM124.443 13.1569V12.9088H124.112V13.1569H124.443ZM114.188 -0.737072C113.94 -0.323563 114.767 -0.323563 114.767 -0.571671C114.519 -0.654373 114.519 -0.819775 114.188 -0.737072ZM101.535 -11.9846C101.617 -12.3154 101.535 -12.5635 101.287 -12.4808C101.287 -12.2327 100.956 -12.3154 101.038 -11.9846C101.121 -11.9846 101.204 -11.9846 101.287 -11.9019C101.369 -11.9019 101.452 -11.9846 101.535 -11.9846ZM91.9412 -11.8192C92.1066 -11.8192 92.1893 -11.9019 92.3547 -12.0673C92.1066 -12.0673 91.8585 -12.15 91.9412 -11.8192ZM80.1975 -11.0749C80.1148 -11.1576 80.1148 -11.1576 80.1975 -11.0749V-11.0749ZM61.7548 -5.94732C61.5894 -5.94732 61.3413 -6.03002 61.1759 -6.11272C61.0105 -5.78192 60.8451 -5.53381 60.6797 -5.2857C61.0932 -5.45111 61.424 -5.69921 61.7548 -5.94732ZM59.1911 -14.0522C59.3565 -14.1349 59.4392 -14.3003 59.5219 -14.383C59.1911 -14.6311 58.7776 -14.7138 58.2813 -14.6311C58.4468 -14.3003 58.7776 -14.1349 59.1911 -14.0522ZM50.4246 -13.2251C50.0938 -13.0597 50.0111 -13.1424 50.0111 -13.3078C49.9284 -13.2251 49.8457 -13.1424 49.763 -13.0597L49.8457 -12.977C50.0938 -12.7289 50.3419 -12.7289 50.59 -12.8943L50.4246 -13.2251ZM28.8393 0.255352C28.095 0.338055 27.268 0.255356 26.6063 0.0899506C27.1026 0.586166 26.6064 1.57859 26.6891 2.24021C26.9372 2.24021 27.1026 2.24021 27.3507 2.24021C27.8469 1.57859 28.6739 1.08237 28.8393 0.255352ZM18.9977 22.5023C19.1631 22.6677 19.2458 22.8331 19.2458 22.9158C19.3285 22.6677 19.3285 22.4196 19.2458 22.2542C19.6594 21.8407 20.4037 21.758 20.321 20.8482C20.7345 20.7655 20.8172 20.4347 20.9826 20.1039C20.6518 20.1039 20.2383 20.1039 19.8248 20.1866C19.8248 21.0136 19.8248 21.8407 18.9977 22.5023ZM23.5464 51.0346C23.5464 51.3654 23.6291 51.6962 23.7945 52.027C23.8772 52.1097 24.0426 52.1924 24.1253 52.1924C23.9599 51.6962 24.208 51.6135 24.3734 51.4481C24.0426 51.4481 23.9599 50.9519 23.5464 51.0346ZM26.1101 53.1022C26.1101 53.1849 26.0274 53.3503 25.9447 53.433C26.0274 53.5157 26.1928 53.5157 26.2755 53.5984C26.2755 53.5157 26.3582 53.433 26.4409 53.433C26.5236 53.433 26.5236 53.3503 26.5236 53.2676C26.4409 53.1849 26.4409 53.1022 26.1101 53.1022ZM25.6139 56.7411C25.7793 57.0719 25.862 57.32 26.0274 57.6508C26.2755 57.4027 26.7718 57.32 27.0199 56.9065C26.6063 57.2373 25.9447 57.1546 25.6139 56.7411ZM29.4182 58.8086C29.4182 58.8913 29.5009 58.8913 29.5836 58.8913C29.5009 58.8086 29.5009 58.8086 29.4182 58.8086ZM30.4107 62.1167C30.4107 62.034 30.4107 61.9513 30.4107 61.8686C30.328 61.7859 30.1626 61.7859 30.0798 61.7032C30.2453 61.8686 30.328 61.9513 30.4107 62.1167ZM41.5755 64.4324C42.2371 64.8459 42.7333 65.4248 42.816 66.1691C43.2295 65.921 43.8084 65.6729 43.8911 65.1767C43.2295 65.094 42.5679 64.6805 42.4025 64.1016C42.1544 64.1016 41.989 64.0189 41.8236 64.0189C41.7409 64.1843 41.6582 64.3497 41.5755 64.4324ZM46.703 60.38C46.7857 60.5454 46.9511 60.7108 47.1165 60.6281C47.0338 60.4627 46.9511 60.2146 46.703 60.38ZM46.5376 59.4702C46.9511 59.3875 47.3646 59.6356 47.6127 60.1319C47.6127 60.0492 47.6127 60.0492 47.6127 59.9665C47.1165 59.4702 46.8684 58.7259 47.0338 58.0643C46.9511 57.8989 46.703 57.9816 46.5376 57.8989C46.4549 57.8989 46.2895 57.8989 46.1241 57.8989C46.1241 57.4854 45.5452 57.4027 45.2971 57.6508C45.4625 57.8989 45.5452 58.0643 45.7106 58.3124C45.9587 58.6432 46.6203 58.8913 46.5376 59.4702ZM54.0635 60.8762C53.0711 60.2973 52.9057 61.8686 52.9884 62.2821C53.65 62.034 53.9808 61.4551 54.0635 60.8762ZM57.6197 62.7783C57.7024 62.861 57.8678 62.9437 58.0332 63.1918C58.1986 63.1091 58.364 63.1091 58.5295 63.0264C58.6122 63.1918 58.7776 63.2745 58.943 63.4399C59.0257 63.2745 59.3565 63.1918 59.5219 63.1091C59.5219 62.9437 59.5219 62.861 59.5219 62.7783C59.0257 62.7783 58.8603 62.1994 58.3641 61.8686C58.1986 62.1994 58.0332 62.3648 57.537 62.034V62.7783H57.6197ZM55.3868 77.0031C55.2214 77.0031 54.9733 77.0858 54.8906 77.2512C55.056 77.3339 55.1387 77.4166 55.2214 77.4994C55.3868 77.4166 55.4695 77.1685 55.3868 77.0031ZM96.4898 76.5896C96.6552 76.5896 96.7379 76.5069 96.4071 76.4242C96.4071 76.5069 96.4898 76.5069 96.4898 76.5896ZM103.768 74.4394V74.6875H104.016V74.6048C103.933 74.5221 103.933 74.5221 103.85 74.4394H103.768C103.768 74.3567 103.768 74.3567 103.768 74.4394ZM119.068 61.1243L119.15 61.3724L119.398 61.2897L119.316 61.0416L119.068 61.1243ZM128.165 55.087H128.33C128.33 55.0043 128.413 54.9216 128.413 54.8389H128.165V55.087ZM129.323 32.8401C129.653 32.6747 130.15 32.5093 130.067 32.1785C129.902 32.4266 129.571 32.592 129.323 32.8401ZM110.136 -10.6614C109.888 -10.9095 109.474 -11.0749 108.895 -11.2403C108.482 -11.2403 107.903 -11.0749 107.572 -10.8268C107.737 -10.8268 107.737 -10.7441 107.737 -10.5787C107.572 -10.5787 107.324 -10.496 107.158 -10.4132C107.241 -10.3305 107.241 -10.3305 107.241 -10.2478C107.985 -10.0824 108.73 -9.83433 109.391 -9.50352C109.391 -9.99974 109.97 -10.2478 110.136 -10.6614ZM107.241 -12.0673C107.158 -12.0673 106.993 -12.0673 106.828 -12.0673C106.828 -11.9019 106.993 -11.8192 107.241 -11.8192V-12.0673ZM101.287 -12.8116C101.535 -12.8116 101.7 -12.977 101.7 -13.2251C101.617 -13.1424 101.452 -13.1424 101.287 -13.1424C101.287 -13.0597 101.287 -12.8943 101.287 -12.8116ZM94.9185 -14.1349C94.9185 -14.3003 94.9185 -14.4657 94.8358 -14.6311C94.6704 -14.4657 94.6704 -14.3003 94.8358 -14.1349H94.9185ZM79.784 -21.8262L80.0321 -21.9089C80.0321 -21.9916 79.9494 -22.0743 79.9494 -22.157L79.7013 -22.0743C79.7013 -21.9916 79.784 -21.9089 79.784 -21.8262ZM63.657 -19.8413C63.657 -19.8413 63.657 -19.8413 63.5743 -19.7586C63.657 -19.7586 63.657 -19.7586 63.7397 -19.7586C63.7397 -19.7586 63.7397 -19.8413 63.657 -19.8413ZM64.1532 -17.5257H63.8224V-17.2775H64.1532V-17.5257ZM56.9581 -17.6911C57.2889 -17.4429 57.3716 -18.1046 57.1235 -18.1046C57.1235 -18.0219 57.0408 -17.9392 56.9581 -17.9392V-17.6911ZM45.3798 -6.69164C45.2971 -6.85705 45.1317 -6.93975 44.8836 -7.02245C44.5528 -6.60894 44.3047 -6.19543 43.8911 -5.78192C43.8911 -5.69921 43.9738 -5.53381 43.9738 -5.53381C44.3874 -5.45111 44.9663 -5.78192 45.4625 -5.78192C45.5452 -5.78192 45.5452 -5.78192 45.5452 -5.78192C46.2068 -6.03003 46.8684 -6.44353 47.2819 -6.93975C46.8684 -6.93975 46.5376 -7.02245 46.1241 -7.18786C45.7933 -7.02245 45.6279 -6.85705 45.3798 -6.69164ZM37.9366 -6.52624C38.102 -6.60894 38.3501 -6.69164 38.3501 -6.85705C38.1847 -6.77435 38.0193 -6.69164 37.9366 -6.52624ZM23.2156 -2.72193C23.2983 -2.72193 23.381 -2.72193 23.4637 -2.80463L23.2156 -2.72193C23.2983 -2.72193 23.2983 -2.72193 23.2156 -2.72193ZM31.4858 66.4999C31.3204 66.9961 31.2377 67.4097 31.155 67.9059C31.8166 67.9886 32.3128 68.4021 32.8917 68.5675C32.809 67.5751 32.1474 67.0788 31.4858 66.4999ZM32.3128 65.7556C32.4782 65.8383 33.4706 65.7556 33.4706 65.4248C33.2225 65.2594 32.3128 65.4248 32.3128 65.7556ZM32.2301 63.8535C32.6436 64.1016 33.0571 64.267 33.4706 64.4324C33.2225 63.9362 32.809 63.6054 32.3128 63.2746C32.3128 63.4399 32.2301 63.6881 32.2301 63.8535ZM34.8766 68.154C34.6285 68.4021 34.2977 68.6502 34.3804 69.1464C35.042 69.3945 35.042 68.6502 34.8766 68.154ZM35.7036 68.154C35.7863 68.2367 35.7863 68.2367 35.869 68.2367C35.869 68.2367 35.7863 68.154 35.7036 68.154ZM38.102 65.094C38.102 65.2594 38.2674 65.5075 38.3501 65.5902C38.4328 65.3421 38.4328 65.094 38.2674 64.9286C38.1847 65.0113 38.1847 65.0113 38.102 65.094ZM39.6733 66.4999C39.8387 66.2518 40.0041 66.2518 40.0868 66.3345C40.0041 66.0037 40.0041 65.6729 40.0868 65.3421C39.6733 65.4248 39.8387 65.0113 39.4252 65.094C39.1771 65.3421 39.0944 65.6729 39.0117 66.0037C39.2598 66.0864 39.5079 66.2518 39.6733 66.4999ZM46.703 70.1388V70.3869H46.9511V70.2215L46.8684 70.1388H46.703ZM51.4998 63.1091C51.6652 63.1918 51.8306 63.1918 51.9133 63.2746C51.9133 63.1091 51.8306 63.0264 51.4998 63.1091ZM54.2289 82.2134C54.2289 82.2961 54.3116 82.2961 54.3116 82.2961L54.2289 82.2134ZM57.8678 88.168C57.8678 88.168 57.7851 88.0853 57.7024 88.0025C57.7851 88.0853 57.8678 88.0853 57.8678 88.168ZM58.1159 88.6642L58.3641 88.5815L58.2813 88.3334L58.0332 88.4161C58.0332 88.4988 58.1159 88.5815 58.1159 88.6642ZM61.0105 85.6869C61.0105 85.7696 61.0105 85.8523 61.0932 85.8523C61.1759 85.8523 61.1759 85.7696 61.2586 85.7696C61.1759 85.6869 61.0932 85.6869 61.0105 85.6869ZM91.1142 78.5745C91.1969 78.4918 91.3623 78.3264 91.445 78.161C91.3623 77.8302 91.2796 77.4994 91.445 77.3339C90.7834 76.9204 89.9564 76.5896 89.2947 76.1761C88.8812 76.5069 88.4677 76.6723 87.9715 76.755C87.7234 77.3339 87.4753 77.9129 87.1445 78.4091C87.3099 78.5745 87.3926 78.8226 87.3926 79.0707C88.5504 79.4842 89.9563 78.6572 91.1142 78.5745ZM103.023 75.7626C103.189 75.7626 103.354 75.6799 103.437 75.5972C103.52 75.2664 103.52 75.0183 103.437 74.6875C103.271 74.7702 103.023 74.6875 103.023 74.8529C103.52 75.1837 102.527 75.2664 102.444 75.5145C102.444 75.6799 103.023 75.5145 103.023 75.7626ZM106.249 67.0788C106.331 67.0788 106.331 67.0788 106.249 67.0788V67.0788ZM108.068 68.4021C107.985 68.4848 107.985 68.5675 107.903 68.7329C108.151 68.7329 108.482 68.2367 108.151 68.3194C108.151 68.3194 108.151 68.3194 108.068 68.4021ZM132.052 49.1324C132.135 49.2151 132.217 49.2151 132.217 49.2151C132.217 49.1324 132.135 49.1324 132.052 49.1324ZM117.827 -1.7295C118.158 -2.14301 118.406 -2.55653 118.489 -3.05274C117.91 -2.72193 117.248 -2.47382 116.587 -2.39112C116.917 -2.06031 117.414 -1.8122 117.827 -1.7295ZM108.895 -14.5484C108.895 -14.5484 108.978 -14.6311 109.061 -14.5484C108.812 -14.7138 108.73 -15.0446 108.234 -14.9619C108.482 -14.7965 108.647 -14.7138 108.895 -14.5484ZM97.4823 -18.7662C97.3996 -18.7662 97.3996 -18.7662 97.3996 -18.6835C97.3996 -18.6008 97.4823 -18.5181 97.565 -18.5181C97.4823 -18.6008 97.4823 -18.6835 97.4823 -18.7662ZM80.1148 -21.7435C80.1975 -21.7435 80.2802 -21.8262 80.4456 -21.9089C80.3629 -21.9089 80.1975 -21.9089 80.1148 -21.8262V-21.7435ZM75.9797 -22.6532C75.7315 -22.984 75.4007 -23.2321 74.8218 -23.2321C75.1526 -22.5705 75.5661 -21.9916 76.2278 -21.5781C76.1451 -21.9089 76.0624 -22.3224 75.9797 -22.6532ZM72.3408 -22.2397C72.837 -22.3224 72.6716 -22.9013 72.258 -22.7359C72.3408 -22.4878 72.0099 -22.4051 72.3408 -22.2397ZM71.431 -22.2397L71.6791 -22.3224L71.5964 -22.5705L71.3483 -22.4878L71.431 -22.2397ZM38.2674 -14.0522C38.3501 -13.7213 38.5982 -13.7213 38.929 -13.8867C38.7636 -14.1349 38.4328 -14.383 38.2674 -14.0522ZM23.7945 -5.03759C23.7118 -5.03759 23.6291 -5.0376 23.5464 -5.1203V-5.03759H23.7945ZM5.10374 23.9909C5.10374 24.3217 5.02104 24.5698 4.93833 24.9007C5.02104 25.1488 5.10374 25.4796 5.18644 25.8104C5.51725 25.7277 5.35185 25.4796 5.76536 25.4796L5.43455 24.4871L6.01346 24.3217C5.93076 24.0736 5.84806 23.9082 5.76536 23.6601C5.51725 23.8255 5.35185 23.9082 5.10374 23.9909ZM11.0583 56.2449C11.3064 56.8238 11.7199 57.4027 12.2988 57.7335C12.4642 57.4027 12.6297 57.0719 12.7124 56.6584C12.2988 56.4103 11.8853 56.0794 11.4718 55.7486C11.3064 55.914 11.141 56.0794 11.0583 56.2449ZM15.1934 61.6205C15.6896 61.7032 15.855 62.1167 16.2686 62.6129C16.434 62.6129 16.5167 62.6129 16.6821 62.6129C16.5994 62.1994 16.2686 62.3648 16.2686 61.9513C16.5167 61.9513 16.5167 61.7859 16.434 61.6205C16.3513 61.5378 16.2686 61.4551 16.2686 61.3724C15.855 61.3724 15.4415 61.2897 15.028 61.1243C15.1107 61.2897 15.1934 61.4551 15.1934 61.6205ZM16.434 63.0264C16.434 63.1091 16.5167 63.1918 16.5994 63.1918H16.6821L16.5994 62.9437L16.434 63.0264ZM18.088 56.3276C18.1707 56.8238 18.2534 57.32 18.5015 57.7335C18.7496 57.4027 18.8323 56.9892 18.7496 56.6584C18.5842 56.493 18.3361 56.3276 18.088 56.3276ZM45.3798 70.7178C45.5452 70.8005 45.6279 70.8005 45.7106 70.8832C45.7106 70.7178 45.6279 70.6351 45.5452 70.5524C45.4625 70.6351 45.4625 70.6351 45.3798 70.7178ZM49.5149 71.3794C49.2668 71.5448 49.1014 71.7102 48.936 71.7929C49.2668 71.9583 49.5976 72.041 50.0938 72.1237C49.8457 71.8756 49.6803 71.6275 49.5149 71.3794ZM52.1614 75.0183C51.9133 75.0183 51.6652 75.0183 51.7479 75.2664C51.9133 75.2664 52.0787 75.1837 52.1614 75.0183ZM51.0035 82.7923H51.0862C51.0862 82.7096 51.0862 82.5442 51.0035 82.5442C51.0035 82.5442 51.0035 82.6269 50.9208 82.6269C51.0035 82.7096 51.0035 82.7096 51.0035 82.7923ZM59.2738 89.2431C59.6873 89.2431 60.597 89.4912 60.3489 88.6642C59.77 89.1604 59.6873 88.5815 58.943 88.6642C58.8603 88.995 59.2738 88.8296 59.2738 89.2431ZM63.7397 91.0625C63.8224 91.0625 63.9051 91.1452 63.9878 91.228C63.9878 90.9798 64.0705 90.7317 63.7397 90.8144V91.0625ZM82.1823 86.9274C82.3477 86.9274 82.4304 86.8447 82.6785 86.762C82.5131 86.5966 82.4304 86.4312 82.5131 86.1831C82.265 86.1831 82.0169 86.1831 81.7688 86.2658C82.0169 86.3485 82.265 86.5139 82.1823 86.9274ZM90.9488 90.8144C90.9488 90.7317 90.9488 90.649 91.0315 90.4009C90.618 90.3182 90.618 90.649 90.2045 90.5663C90.2872 90.1528 89.8736 90.3182 89.6255 90.3182C89.4601 90.8144 89.212 91.1452 88.8812 91.476C89.3774 91.7242 89.7082 91.3106 89.8736 90.8971C90.1217 90.8971 90.5353 90.8971 90.9488 90.8144ZM101.535 85.3561V85.7696H101.783C101.783 85.6869 101.948 85.6042 101.948 85.5215C101.783 85.4388 101.783 85.3561 101.535 85.3561ZM109.061 72.7026C109.557 72.3718 110.053 71.9583 110.467 71.5448C110.218 71.5448 110.053 71.4621 109.805 71.3794C109.474 71.7929 109.226 72.2064 109.061 72.7026ZM119.316 66.4999C118.819 66.5826 118.902 66.9135 118.902 67.1616C119.068 67.1616 119.316 66.9962 119.481 66.8307L119.316 66.4999ZM125.436 77.4166C125.518 77.9956 124.691 77.7475 124.774 78.3264H125.932C125.849 78.0783 126.015 77.4993 125.436 77.4166ZM126.924 68.7329C127.007 68.6502 126.924 68.5675 126.924 68.4848V68.7329ZM137.51 49.4632C137.345 49.4632 137.262 49.2978 137.097 49.4632L137.179 49.7114C137.428 49.7941 137.51 49.7114 137.51 49.4632ZM139.164 10.0969C139.082 10.1796 138.833 10.1796 138.833 10.345C138.916 10.345 138.999 10.345 138.999 10.4277C139.164 10.345 139.33 10.2623 139.164 10.0969ZM140.157 19.7731C140.157 19.8558 140.157 20.0212 140.157 20.1039C140.239 20.1039 140.322 20.1039 140.322 20.1039C140.239 19.9385 140.239 19.8558 140.157 19.7731ZM142.472 20.4347L142.555 20.6001C142.555 20.5174 142.638 20.4347 142.72 20.352L142.472 20.4347ZM142.307 19.8558L142.059 19.9385C142.059 20.0212 142.142 20.1039 142.142 20.1866L142.39 20.1039L142.307 19.8558ZM141.893 40.5314H142.059C142.142 40.366 142.224 40.0352 141.811 40.1179C141.893 40.2006 141.811 40.4487 141.893 40.5314ZM142.803 31.1033C142.803 31.1033 142.803 31.1033 142.803 31.0206H142.638C142.72 31.0206 142.72 31.1033 142.803 31.1033ZM142.638 28.9531V28.705H142.307V28.9531H142.638ZM141.645 47.2303C141.563 47.8092 141.48 48.3054 141.397 48.8016C141.397 48.8843 141.397 48.967 141.397 49.0497C141.645 48.967 141.976 48.8843 142.059 49.2151C143.134 48.8016 141.893 48.0573 142.472 47.4784C142.142 47.4784 141.976 47.2303 141.645 47.2303ZM142.142 28.2915C142.969 28.2087 143.796 27.6298 144.126 26.7201C143.796 26.3893 143.547 26.0585 143.299 25.645C141.811 26.5547 141.645 28.0433 140.736 29.2839C140.984 29.2839 141.232 29.2839 141.48 29.3666C141.811 28.7877 141.645 28.6223 142.142 28.2915ZM141.893 19.4423C141.893 19.1115 141.728 18.698 141.48 18.4499C141.149 18.2018 141.149 17.7055 140.653 17.6228L140.57 17.7055C140.653 18.4499 141.149 19.1942 141.893 19.4423ZM140.074 25.2315C139.909 25.2315 139.826 25.2315 139.743 25.2315C139.826 25.3969 139.826 25.4796 139.909 25.645C139.991 25.4796 139.991 25.3969 140.074 25.2315ZM132.052 11.751C131.059 11.5029 130.563 14.1493 129.902 14.811C130.067 15.0591 130.315 15.3072 130.563 15.4726C130.977 15.0591 131.556 14.7283 132.052 14.3975C132.052 14.232 132.052 14.0666 131.969 13.9012C132.383 13.7358 132.713 13.2396 132.631 12.7434C132.631 12.578 131.969 11.751 132.052 11.751ZM130.15 10.7586C130.315 10.5931 130.563 10.5104 130.48 10.0969C129.984 10.0969 129.984 10.4277 129.902 10.7586C130.067 10.7586 130.232 11.2548 130.315 10.924C130.232 10.8413 130.15 10.8413 130.15 10.7586ZM128.248 5.71371C128.33 5.63101 128.33 5.54831 128.248 5.54831C128.248 5.54831 128.248 5.63101 128.248 5.71371ZM108.895 -21.8262C108.895 -21.7435 108.895 -21.6608 108.895 -21.4954L108.978 -21.4127C108.978 -21.4954 108.978 -21.4954 109.061 -21.4954C109.143 -21.6608 109.226 -21.8262 108.895 -21.8262ZM107.158 -22.2397V-22.4051H107.076L107.158 -22.2397ZM106.745 -21.5781C106.745 -21.5781 106.745 -21.4954 106.828 -21.4127C106.91 -21.4954 106.91 -21.4954 106.91 -21.5781C106.828 -21.5781 106.828 -21.5781 106.745 -21.5781ZM107.241 -24.8035C107.158 -24.8862 106.993 -24.9689 106.91 -25.0516C106.91 -25.0516 106.828 -24.9689 106.745 -24.9689C106.745 -24.8862 106.828 -24.7208 106.828 -24.6381C106.993 -24.6381 107.158 -24.7208 107.241 -24.8035ZM70.3559 -28.5251L70.0251 -28.4424V-28.3597C70.0251 -28.277 70.1078 -28.277 70.1078 -28.277C70.2732 -28.277 70.3559 -28.3597 70.5213 -28.3597V-28.4424C70.4386 -28.4424 70.3559 -28.4424 70.3559 -28.5251ZM55.056 -21.7435C54.9733 -21.7435 54.9733 -21.7435 54.9733 -21.7435C54.9733 -21.6608 54.9733 -21.6608 54.9733 -21.5781C54.9733 -21.6608 55.056 -21.6608 55.056 -21.7435ZM50.59 -20.1721C49.9284 -20.0894 49.1841 -19.924 48.6052 -19.7586C48.3571 -19.6759 48.109 -19.4278 48.109 -19.097C49.1014 -18.7662 50.1765 -18.6008 51.2516 -18.5181C51.5825 -18.8489 51.9133 -19.097 52.4095 -19.1797C52.3268 -19.3451 52.1614 -19.5105 52.2441 -19.7586L52.3268 -19.8413C51.5825 -19.8413 51.0862 -19.7586 50.59 -20.1721ZM45.3798 -15.9543C45.2971 -15.8716 45.2971 -15.9543 45.2144 -15.9543C45.2144 -15.9543 45.1317 -15.8716 45.1317 -15.7889C45.2144 -15.7889 45.3798 -15.8716 45.3798 -15.9543ZM41.4101 -16.9467C41.5755 -16.9467 41.6582 -17.0294 41.7409 -17.1121C41.6582 -17.1121 41.4928 -17.0294 41.4101 -16.9467ZM35.869 -18.27C36.8614 -19.0143 37.6058 -20.0067 38.102 -21.1646C37.9366 -20.9164 37.7712 -20.751 37.5231 -20.6683C36.7787 -20.2548 36.9441 -20.2548 36.5306 -19.8413C36.1171 -19.3451 35.2074 -18.9316 35.3728 -18.4354C35.6209 -18.27 35.7036 -18.27 35.869 -18.27ZM25.6966 -18.0219C25.862 -18.1873 26.0274 -18.27 26.1101 -18.4354C25.7793 -18.4354 25.6966 -18.1873 25.6139 -17.9392L25.6966 -18.0219ZM19.1631 -11.4057C18.9977 -10.6614 19.8248 -11.323 19.1631 -11.4057V-11.4057ZM7.0886 5.79641C7.0886 5.63101 7.254 5.3829 7.00589 5.4656V5.96181L7.0886 5.79641ZM22.3058 65.921C23.6291 65.5902 23.5464 64.6805 23.6291 63.7708C23.5464 63.7708 23.4637 63.6881 23.4637 63.6881L22.802 63.8535C22.4712 63.2745 21.6442 63.5227 21.3134 63.1091C21.148 63.3572 21.0653 63.6054 21.0653 63.8535C21.6442 64.3497 22.0577 65.094 22.3058 65.921ZM26.6063 70.3042C26.6891 70.9659 27.268 71.3794 28.0123 71.7929C28.0123 71.4621 28.095 71.0486 28.095 70.7178C27.5161 70.7178 27.0199 70.5524 26.6063 70.3042ZM35.2074 73.8605C34.9593 74.274 35.2901 74.5221 35.1247 75.101C36.8614 75.1837 38.3501 76.1761 39.9214 76.3415C38.929 75.8453 37.7712 75.5972 37.275 74.7702C37.1096 74.8529 36.8614 74.8529 36.6133 74.7702C36.4479 74.1913 35.7863 74.1086 35.2074 73.8605ZM47.1165 73.3642C47.0338 73.6123 46.9511 73.9431 46.8684 74.1913C47.1992 74.3567 47.4473 74.4394 47.8609 74.6048C47.8609 74.5221 47.9436 74.4394 48.109 74.4394C49.1841 75.1837 50.3419 75.6799 51.5825 75.928C51.5825 75.5145 51.4998 75.101 51.3344 74.6875C50.5073 74.3567 49.5976 74.1086 48.7706 73.9431C49.1014 73.8604 48.936 73.6123 49.3495 73.6123C49.8457 73.7777 50.4246 73.695 50.8381 73.4469C50.7554 73.3642 50.7554 73.1988 50.6727 73.1161C49.9284 73.2815 48.6879 72.9507 48.4398 73.8605C48.0263 73.695 48.5225 73.5296 48.3571 73.1988C47.9436 73.1988 48.109 73.5296 47.9436 73.6123C47.53 73.5296 47.3646 73.4469 47.1165 73.3642ZM47.4473 77.4166C47.3646 77.7475 47.4473 77.9956 47.6127 78.3264C47.6954 78.2437 47.6954 78.2437 47.7782 78.2437C47.9436 79.0707 48.936 78.5745 49.4322 78.9053C49.5976 78.7399 49.5976 78.4918 49.5976 78.3264C48.6879 78.2437 48.4398 77.4993 47.4473 77.4166ZM60.6797 89.2431C61.0105 89.822 61.6721 89.9874 62.1684 90.3182C62.2511 90.2355 62.3338 90.2355 62.4165 90.2355C62.4165 90.1528 62.4992 90.0701 62.4992 89.9874C62.2511 89.9047 62.0857 89.822 61.8375 89.7393C61.6721 89.1604 61.2586 89.2431 60.6797 89.2431ZM91.445 90.7317C91.445 90.7317 91.5277 90.7317 91.6104 90.7317H91.445ZM92.6855 86.8447C92.6028 87.0101 92.6028 87.2582 92.6028 87.5063C94.0088 87.4236 94.8358 87.0928 95.9936 87.6717C95.9109 87.5063 96.159 87.5063 96.3244 87.4236L96.159 86.9274C95.0839 87.2582 94.8358 86.1004 94.1742 85.7696C94.0915 85.7696 94.0088 85.8523 93.9261 85.8523C93.5126 86.1004 93.5126 86.6793 92.7682 86.762L92.6855 86.8447ZM102.444 84.5291C102.858 84.6118 103.271 84.6118 103.768 84.3636C103.602 84.1155 103.437 83.9501 103.271 83.702C103.106 84.0328 102.858 84.3636 102.444 84.5291ZM106.993 81.8826C106.828 82.1307 106.497 82.3788 106.745 82.7096C106.91 82.7096 106.993 82.7096 107.158 82.7096C106.745 81.9653 107.82 82.3788 107.737 81.6345C107.489 81.7999 107.241 81.7999 106.993 81.8826ZM108.73 79.5669C108.812 79.4842 108.895 79.3188 108.812 79.2361C108.647 79.2361 108.564 79.3188 108.482 79.4015C108.564 79.4015 108.647 79.4842 108.73 79.5669ZM135.939 4.80398C136.022 4.47317 135.939 4.39047 135.608 4.39047V4.80398H135.939ZM134.202 3.06723C134.368 2.81913 134.533 2.65372 134.616 2.48832C134.285 1.9094 133.871 1.33048 133.127 1.24778C133.458 1.744 133.292 1.9094 133.375 2.40562C133.789 2.15751 133.706 2.73642 133.954 2.73642C134.119 2.81913 134.119 2.98453 134.202 3.06723ZM133.127 -6.60894C133.044 -6.60894 132.962 -6.60894 132.796 -6.77435C132.879 -6.60894 132.879 -6.52624 132.962 -6.44353C133.044 -6.44353 133.044 -6.52624 133.127 -6.60894ZM129.157 -11.7365C129.075 -11.6538 128.992 -11.7365 128.909 -11.7365C128.992 -11.7365 129.075 -11.7365 129.157 -11.7365C129.157 -11.6538 129.157 -11.6538 129.157 -11.7365ZM118.158 -23.3975C118.158 -23.2321 118.323 -23.1494 118.323 -22.984L118.571 -23.0667L118.406 -23.3975C118.323 -23.3975 118.241 -23.3975 118.158 -23.3975ZM119.068 -22.5705L119.316 -22.6532L119.233 -22.9013L118.985 -22.8186L119.068 -22.5705ZM118.323 -24.5554C118.654 -24.8035 118.737 -24.4726 119.068 -24.6381C119.068 -25.0516 118.241 -24.9689 118.323 -24.5554ZM118.323 -25.5478C118.241 -25.6305 118.241 -25.6305 118.323 -25.5478C117.662 -25.8786 116.835 -26.044 116.256 -26.044C116.421 -25.6305 116.256 -25.3824 116.338 -24.9689C116.835 -24.8035 117.579 -25.2997 117.827 -25.5478C118.158 -25.5478 118.323 -24.9689 118.819 -25.0516C118.571 -25.217 118.489 -25.3824 118.323 -25.5478ZM116.504 -19.5932C116.338 -20.5856 115.181 -19.8413 114.767 -20.5029C114.602 -20.1721 114.188 -20.0894 114.188 -19.5932C114.85 -19.5105 115.346 -19.1797 116.09 -19.097C116.173 -19.3451 116.173 -19.5932 116.504 -19.5932ZM109.143 -27.9461C109.143 -27.8634 108.895 -27.698 109.143 -27.5326C109.143 -27.698 109.391 -27.8634 109.143 -27.9461ZM107.241 -28.8559V-29.2694H106.828C106.828 -28.9386 106.91 -28.8559 107.241 -28.8559ZM105.753 -29.2694C106.166 -29.104 106.166 -29.8483 105.753 -29.6829V-29.2694ZM102.444 -32.164C102.444 -32.3294 102.527 -32.4121 102.444 -32.4948L102.031 -32.4121L102.114 -32.164C102.279 -32.2467 102.362 -32.164 102.444 -32.164ZM98.2266 -32.5775C99.0536 -32.4948 99.9633 -32.4121 100.625 -32.3294C100.377 -32.4121 100.211 -32.4948 100.046 -32.6602C98.8882 -32.164 98.7228 -33.2391 97.8131 -33.1564C97.8131 -33.0737 97.8131 -33.0737 97.8131 -33.0737C97.8958 -33.0737 97.8958 -32.991 97.9785 -32.9083C98.0612 -32.8256 98.2266 -32.8256 98.2266 -32.5775ZM92.9336 -27.4499L93.1817 -27.5326L93.099 -27.7807L92.8509 -27.698L92.9336 -27.4499ZM85.5731 -33.4872C85.5731 -33.6526 85.9039 -33.5699 85.8212 -33.9007H85.4077C85.4904 -33.7353 85.4077 -33.4872 85.5731 -33.4872ZM70.7694 -33.9834C70.9348 -33.818 71.2656 -33.818 71.3483 -34.1488C71.1829 -34.3142 70.7694 -34.3142 70.7694 -33.9834ZM71.0175 -33.5699C70.7694 -33.6526 70.5213 -33.4872 70.4386 -33.2391C70.604 -33.3218 70.8521 -33.4045 71.0175 -33.4872V-33.5699ZM60.1835 -31.0061C60.2662 -30.9234 60.4316 -30.9234 60.5143 -30.9234C60.4316 -30.9234 60.3489 -30.9234 60.3489 -31.0061C60.2662 -31.0061 60.2662 -31.0061 60.1835 -31.0061ZM39.6733 -18.8489C39.756 -18.9316 39.756 -19.0143 39.8387 -19.0143H39.6733V-18.8489ZM32.6436 -23.1494C32.5609 -23.0667 32.4782 -23.0667 32.3955 -23.0667V-22.9013C32.4782 -22.984 32.5609 -23.0667 32.6436 -23.1494ZM21.0653 -15.2927C20.8172 -14.7138 20.4864 -14.3003 19.9902 -13.9694C20.2383 -13.9694 20.5691 -13.9694 20.8172 -14.1349C21.3961 -13.3078 21.8096 -14.4657 22.7193 -14.3003C23.2983 -15.1273 24.208 -15.7062 24.6215 -16.5332C24.7042 -16.6986 24.4561 -17.0294 24.8696 -17.1121C24.9523 -17.0294 25.035 -16.9467 25.035 -17.1121C24.7869 -17.0294 24.9523 -17.3602 25.2004 -17.6084C24.3734 -17.6911 24.4561 -17.0294 23.4637 -17.1121C22.9674 -16.2851 22.0577 -15.7062 21.0653 -15.2927ZM14.8626 -8.01488C14.6972 -8.18029 14.2837 -8.09758 14.2837 -7.76677C14.6145 -7.68407 14.8626 -7.76678 14.8626 -8.01488ZM14.0356 -7.43597C13.9529 -7.27056 13.8702 -7.18785 13.8702 -6.93975H14.2837C14.2837 -7.18785 14.4491 -7.60137 14.0356 -7.43597ZM16.1032 -5.53381C14.9453 -5.69921 14.5318 -4.12787 13.4567 -3.87976C13.4567 -3.54895 13.2913 -3.30085 13.0432 -3.05274C13.2086 -3.05274 13.2913 -3.05274 13.4567 -3.05274C13.4567 -3.05274 13.4567 -3.13544 13.4567 -3.21814C14.6145 -3.21814 14.1183 -4.45868 15.6069 -4.12787C15.7723 -4.37598 15.855 -4.54138 15.9377 -4.70679C15.9377 -4.9549 15.9377 -5.28571 16.1032 -5.53381ZM11.3064 -0.571671C11.0583 -0.819778 10.7275 -0.902477 10.314 -0.902477V-0.406265C9.90048 0.00724792 8.74264 0.172653 8.24643 0.751568C8.16373 0.916973 8.24643 1.33048 7.99832 1.66129C7.75022 2.07481 7.254 2.40562 7.00589 2.81913C7.0886 2.90183 7.1713 2.90183 7.254 2.98453C7.1713 2.98453 7.0886 2.98453 7.00589 2.98453C7.00589 3.14994 7.00589 3.31534 7.0886 3.48075C5.93076 3.97696 7.1713 4.88668 7.254 5.631C7.99832 4.88668 8.82535 4.05966 9.40426 3.14994C9.90048 3.06723 9.73507 2.57102 10.3967 2.48832C10.5621 2.32291 10.2313 1.9921 10.4794 1.9094C11.5545 1.66129 11.2237 0.255356 12.2988 0.586163C12.2161 0.0899506 12.1334 -0.158157 12.7951 -0.406265C12.7951 -0.488968 12.7951 -0.488968 12.7951 -0.571671L12.7124 -0.819778C12.2161 -0.819778 11.7199 -0.985184 11.3064 -0.571671ZM4.77293 48.5535C4.11131 48.7189 4.69023 49.2978 4.93833 49.4632C4.93833 49.3805 4.93833 49.2151 4.93833 49.1324C4.93833 48.967 4.85563 48.7189 4.77293 48.5535ZM4.77293 50.2076C4.85563 50.2903 4.93833 50.2903 4.93833 50.2903C4.85563 50.2076 4.85563 50.0422 4.77293 49.9595C4.77293 50.0422 4.77293 50.1249 4.77293 50.2076ZM5.76536 51.8616C5.84806 52.1924 5.51725 52.3578 5.68266 52.6886C5.76536 52.6886 5.93076 52.7713 6.01346 52.854C6.84049 52.6059 6.17887 52.027 5.76536 51.8616ZM6.92319 55.1697H6.67508C6.92319 55.5832 7.0886 55.914 7.3367 56.2449C7.3367 56.0794 7.3367 55.914 7.4194 55.8313C7.00589 55.8313 6.92319 55.5832 6.75779 55.3351C6.84049 55.3351 6.84049 55.2524 6.92319 55.1697ZM8.74264 58.147C8.74264 58.3951 8.41183 58.0643 8.16373 57.5681C8.24643 57.9816 8.24643 58.3124 8.24643 58.7259C8.65994 58.974 8.65994 58.7259 9.32156 58.7259V58.6432C9.15615 58.5605 8.90805 58.5605 8.82535 58.4778C8.82535 58.4778 8.74264 58.4778 8.65994 58.3951C8.65994 58.3124 8.74264 58.2297 8.74264 58.147ZM32.0647 84.7772C32.0647 85.108 32.1474 85.2734 32.3128 85.2734C32.3955 85.108 32.5609 85.0253 32.4782 84.7772H32.0647ZM32.4782 84.5291C32.4782 84.4464 32.3955 84.4464 32.3128 84.3636C32.3955 84.4464 32.3955 84.5291 32.4782 84.5291ZM35.1247 87.6717C34.9593 87.3409 34.6285 87.0928 34.2977 87.0101C34.3804 87.2582 34.215 87.5063 34.4631 87.8371C34.6285 87.6717 34.8766 87.589 35.1247 87.6717ZM55.5522 94.9496C55.5522 95.115 55.4695 95.2804 55.4695 95.3631C56.0484 95.2804 56.5446 95.6939 56.9581 95.3631C56.9581 95.5285 57.0408 95.6939 57.1235 95.7766C57.537 95.7766 57.9505 95.7766 58.4468 95.6939C57.537 95.1976 56.3792 95.2804 55.5522 94.9496ZM59.6046 95.0322C59.2738 95.2803 58.943 95.4458 58.5295 95.6112C58.8603 95.5285 59.3565 95.2803 59.6046 95.0322ZM118.241 84.4463C118.158 84.4463 118.158 84.4463 118.241 84.4463V84.4463ZM130.48 68.154C130.563 68.154 130.729 68.154 130.894 68.0713C130.894 68.0713 130.894 68.0713 130.894 67.9886C130.811 67.9886 130.646 68.0713 130.48 68.154ZM133.954 60.9589C133.789 61.0416 133.623 61.207 133.54 61.4551C133.706 61.2897 133.871 61.1243 133.954 60.9589ZM137.345 57.5681C137.014 58.147 136.6 58.6432 136.022 59.1394L136.849 59.2221V59.1394C137.097 58.7259 138.089 57.8989 137.345 57.5681ZM143.796 52.3578C143.051 52.4405 143.961 52.854 143.796 52.3578V52.3578ZM144.126 44.4184C144.044 44.6665 144.292 44.6665 144.457 44.5838C144.54 44.5838 144.54 44.5011 144.54 44.5011C144.457 44.4184 144.457 44.4184 144.374 44.3357L144.126 44.4184ZM149.171 37.3887C149.171 37.306 149.089 37.306 149.006 37.306C149.006 37.3887 149.089 37.3887 149.171 37.3887ZM149.833 43.2606C149.833 43.0125 149.998 42.7644 150.246 42.5163C150.164 42.4335 150.164 42.4336 150.164 42.3509C150.081 42.2682 149.916 42.2682 149.833 42.2682C149.75 42.4336 149.667 42.6817 149.585 42.9298C149.502 43.0952 149.585 43.2606 149.833 43.2606ZM150.081 29.7801C150.164 29.9455 150.164 30.1109 150.246 30.2763C150.329 30.2763 150.494 30.2763 150.577 30.2763C150.577 30.0282 150.412 30.0282 150.412 29.7801H150.081ZM107.737 -29.2694C107.572 -28.8559 108.234 -28.7732 108.482 -29.104C108.316 -29.1867 108.234 -29.2694 108.068 -29.3521C108.068 -29.2694 107.82 -29.2694 107.737 -29.2694ZM83.8364 -36.051C83.7537 -36.051 83.5883 -36.051 83.5883 -36.051H83.8364ZM76.2278 -35.7202C75.9797 -35.8856 75.7315 -35.9683 75.4834 -35.8856C75.1526 -35.5548 74.7391 -35.3894 74.2429 -35.3894C74.3256 -35.3067 74.491 -35.224 74.491 -35.0585C74.8218 -35.5548 76.1451 -35.0585 76.2278 -35.7202ZM64.6494 -32.8256C64.1532 -32.5775 63.5743 -32.4121 63.0781 -32.2467C63.7397 -32.164 64.5667 -31.9986 65.2283 -31.6678C65.3938 -31.7505 65.4765 -31.9159 65.6419 -31.9986C65.5592 -32.5775 65.0629 -32.6602 64.6494 -32.8256ZM54.3116 -29.5175C54.3116 -29.6002 54.2289 -29.7656 54.0635 -29.8483C53.7327 -29.7656 53.4846 -29.6002 53.2365 -29.3521C53.4846 -29.4348 53.9808 -29.5175 54.3116 -29.5175ZM16.7648 -12.0673V-11.6538H17.0129C17.0129 -11.7365 17.1783 -11.8192 17.1783 -11.9019C17.0129 -11.9846 17.0129 -12.0673 16.7648 -12.0673ZM6.17887 -3.54895C6.09617 -3.79706 6.09617 -4.04517 5.76536 -4.12787C5.51725 -3.87976 5.35185 -3.54895 5.26915 -3.21814C5.51725 -3.13544 5.93076 -3.38355 6.17887 -3.54895ZM3.7805 46.486C3.7805 45.9898 3.6151 45.4935 3.44969 44.9973C3.44969 45.1627 3.36699 45.3281 3.28429 45.4108C3.53239 45.7416 3.6978 46.0725 3.7805 46.486ZM0.389706 6.54073C0.389706 6.45803 0.389706 6.29263 0.307003 6.20992C0.307003 6.37533 0.307003 6.45803 0.224301 6.54073C0.307003 6.54073 0.307003 6.54073 0.389706 6.54073ZM3.94591 47.313C3.94591 47.5611 3.94591 47.7265 4.02861 47.9746C4.11131 47.9746 4.11131 48.0573 4.19401 48.0573C4.35942 47.8092 4.11131 47.5611 3.94591 47.313ZM18.3361 74.5221C18.4188 74.6048 18.5015 74.6875 18.5842 74.7702C18.8323 74.6875 18.9977 74.5221 18.9977 74.4394C18.8323 74.3567 18.5842 74.4394 18.3361 74.5221ZM23.381 78.988C24.3734 78.9053 24.8696 79.7323 25.3658 80.642C25.6966 80.8902 26.1101 81.1383 26.5236 81.4691C26.7718 81.4691 26.8545 81.6345 27.0199 81.8826C27.1853 82.048 27.3507 82.2134 27.5161 82.4615C27.9296 82.6269 28.2604 82.4615 28.3431 82.875C28.4258 83.0404 28.5085 83.2885 28.5912 83.5366C28.7566 83.2058 29.0874 83.7847 29.4182 83.702C28.0123 81.4691 27.1026 79.4015 25.4485 77.6647C25.4485 77.1685 24.9523 77.1685 25.035 76.6723C24.9523 76.5069 24.4561 76.6723 24.4561 76.4242C24.4561 75.4318 22.9674 75.2664 23.4637 74.5221L23.381 74.4394C22.9674 74.3567 22.7193 74.3567 22.6366 73.695H22.2231C22.1404 74.1913 21.8096 74.5221 22.0577 75.0183C21.4788 75.2664 21.3961 75.928 21.2307 76.5896C21.3961 76.5069 21.3961 76.2588 21.7269 76.2588C22.0577 77.5821 23.1329 77.6648 23.381 78.988ZM44.3047 87.9199L44.3874 88.0025C44.3874 87.9198 44.3874 87.9199 44.3874 87.9199H44.3047ZM100.046 93.0474C99.5498 93.0474 99.5498 93.2955 99.7152 93.6263C99.8806 93.6263 100.046 93.6263 100.211 93.5436L100.046 93.0474ZM100.956 92.882H101.121C101.452 92.882 101.865 92.7166 101.783 92.3858C101.369 92.3858 101.038 92.6339 100.956 92.882ZM108.151 90.4836C108.316 90.4836 108.482 90.4009 108.564 90.3182V90.2355C108.399 90.2355 108.399 90.0701 108.316 89.9047C107.903 89.9874 108.151 90.2355 108.151 90.4836ZM130.48 -20.0894C130.563 -20.3375 130.398 -20.5856 130.15 -20.6683C130.232 -20.4202 130.315 -20.2548 130.48 -20.0894ZM105.008 -35.7202C104.843 -35.7202 104.677 -35.6375 104.595 -35.4721C104.677 -35.4721 104.677 -35.3894 104.76 -35.3894C104.843 -35.4721 105.008 -35.5548 105.008 -35.7202ZM75.8969 -39.938L75.6488 -39.8553L75.7315 -39.6072L75.9797 -39.6899L75.8969 -39.938ZM40.9966 -32.6602C40.9139 -33.0737 40.1695 -32.9083 40.2522 -32.5775C40.4176 -32.4948 40.6657 -32.5775 40.9966 -32.6602ZM20.0729 -22.4051L19.8248 -22.3224L19.9075 -22.0743L20.1556 -22.157L20.0729 -22.4051ZM19.1631 -21.1646C18.915 -21.0819 18.4188 -21.0819 18.7496 -20.751C18.915 -20.751 19.2458 -20.8337 19.1631 -21.1646ZM8.49454 -8.34569C7.99832 -8.26299 8.08102 -7.93218 7.75022 -8.09758C7.75022 -7.76677 7.66751 -7.43596 7.58481 -7.10516C7.83292 -7.27056 8.08102 -7.51867 7.83292 -7.84948C8.90805 -7.93218 8.65994 -9.00731 9.56967 -9.25542C9.32156 -9.42082 9.23886 -9.58623 9.23886 -9.75163C8.65994 -9.50352 8.41183 -8.92461 8.49454 -8.34569ZM6.59238 -5.94732C6.50968 -5.94732 6.50968 -5.86462 6.50968 -5.86462C6.50968 -5.78192 6.50968 -5.61651 6.50968 -5.53381C6.59238 -5.69921 6.59238 -5.78192 6.59238 -5.94732ZM-0.354616 7.03695C-0.437318 7.11965 -0.602723 7.11965 -0.768127 7.20235C-0.685425 7.69857 -0.768127 7.86397 -0.437318 8.19478C-0.354616 8.11208 -0.271913 8.11208 -0.189211 8.02937C0.0588961 7.78127 0.141598 7.28505 -0.106509 7.03695C-0.437318 7.03695 -0.0238063 7.61586 -0.52002 7.45046C-0.437318 7.28505 -0.437318 7.20235 -0.354616 7.03695ZM-1.09894 9.51802C-1.18164 9.68342 -1.26434 9.84883 -1.18164 10.0969C-1.18164 9.93153 -1.18164 9.68342 -1.09894 9.51802ZM-2.91839 14.5629C-3.08379 14.6456 -3.3319 14.6456 -3.2492 14.811C-3.1665 14.811 -3.08379 14.811 -3.08379 14.8937C-2.91839 14.811 -2.75298 14.7283 -2.91839 14.5629ZM-3.1665 40.2833C-3.1665 40.366 -3.08379 40.5314 -2.91839 40.6141C-3.00109 40.4487 -3.08379 40.2833 -3.1665 40.2833ZM0.637813 48.967C0.637813 49.0497 0.637813 49.1324 0.637813 49.1324H0.720515C0.637813 49.0497 0.637813 49.0497 0.637813 48.967ZM0.968622 52.2751C0.88592 51.8616 1.13403 51.7789 1.54754 51.7789C1.46484 51.6135 1.46484 51.5308 1.38213 51.3654C1.21673 51.3654 1.13403 51.3654 0.968622 51.3654C0.803217 51.6135 0.389706 52.1924 0.968622 52.2751ZM1.87835 61.1243H1.79565V60.8762H1.54754V61.1243H1.87835ZM1.63024 52.027C1.54754 52.5232 1.96105 52.9368 2.12645 53.5157C2.20916 53.5157 2.20916 53.5157 2.29186 53.5157C2.29186 53.2676 2.29186 52.9368 2.20916 52.6886C1.96105 52.5232 1.79565 52.2751 1.63024 52.027ZM1.96105 53.7638V54.1773H2.37456C2.37456 54.0946 2.37456 54.0119 2.37456 53.9292C2.29186 53.7638 2.12646 53.7638 1.96105 53.7638ZM2.87078 62.5302C2.95348 62.1994 2.87078 62.034 2.62267 62.034C2.53997 62.2821 2.37456 62.6956 2.87078 62.5302ZM2.87078 56.4102C3.44969 56.8238 3.6978 57.5681 4.19401 58.0643C4.19401 57.8989 4.27672 57.7335 4.35942 57.5681C4.35942 57.4854 4.35942 57.32 4.27672 57.1546C4.19401 57.1546 4.19401 56.9892 4.19401 56.9065C3.94591 56.9065 3.94591 57.0719 3.6978 57.1546C3.36699 56.8238 3.28429 56.4102 3.20159 55.9967C3.03618 56.1621 2.95348 56.2448 2.87078 56.4102ZM6.09617 62.1167C6.09617 62.034 6.09617 61.8686 6.26157 61.7859C6.17887 61.7859 6.09617 61.7032 6.09617 61.7032C5.93076 61.1243 5.76536 61.0416 5.93076 60.5454C5.84806 60.4627 5.76536 60.4627 5.68266 60.38C5.51725 60.38 5.43455 60.38 5.26915 60.4627C5.26915 59.7183 4.69023 59.1394 4.44212 58.5605C4.02861 59.1394 4.85563 59.7183 4.60753 60.0492C3.94591 60.0492 4.69023 60.9589 4.85563 61.3724C5.59995 60.9589 5.43455 62.034 6.09617 62.1167ZM17.4264 79.3188C18.1707 78.2437 16.1032 77.6648 15.855 76.5069C15.6896 76.3415 15.2761 76.2588 15.1934 76.0107C15.2761 75.5145 14.6145 75.6799 14.7799 75.101C14.1183 74.9356 13.5394 74.6875 13.5394 73.9431C13.4567 73.7777 12.9605 73.9431 12.9605 73.695C12.7951 72.868 11.7199 72.7853 11.7199 71.7929C10.6448 71.4621 10.3967 70.4696 9.56967 69.9734C9.65237 70.7178 9.90048 71.3794 10.2313 72.041C11.968 72.5372 10.8102 74.8529 12.7951 75.101C12.7124 75.5145 13.1259 75.5972 12.7951 75.8453C13.8702 76.0934 14.7799 76.8377 14.8626 77.4994C16.1859 77.6648 16.434 78.8226 17.4264 79.3188ZM19.3285 80.642C19.2458 81.1383 19.4112 81.3864 19.9075 81.3864C19.8248 81.0555 19.5767 80.8074 19.3285 80.642ZM27.5988 87.7544C28.2604 88.0853 29.1701 89.4912 29.9144 88.8296C29.6663 88.8296 29.5009 88.7469 29.3355 88.5815C29.3355 88.4988 29.4182 88.3334 29.4182 88.2507C28.922 88.0853 28.2604 88.0853 28.1777 87.2582C27.6815 87.589 27.5988 87.589 27.1853 87.1755C27.3507 86.9274 27.1853 86.9274 27.6815 86.9274C27.3507 86.3485 26.4409 86.762 25.9447 86.5139C25.862 86.1831 25.6966 85.8523 25.3658 85.6869C25.1177 85.7696 24.8696 86.0177 24.8696 86.3485C25.862 86.4312 26.3582 86.8447 26.3582 87.7544C27.0199 87.8371 27.1853 87.9198 27.5988 87.7544ZM33.8842 92.2204C33.8842 92.1377 33.8842 92.055 33.9669 92.055C33.9669 91.8896 33.9669 91.7242 33.7188 91.8069C33.8015 91.9723 33.7188 92.2204 33.8842 92.2204ZM70.604 100.656H70.7694C70.7694 100.573 70.6867 100.491 70.6867 100.408H70.604H70.5213L70.604 100.656ZM79.7013 100.242L79.9494 100.16C79.9494 100.077 79.8667 99.9944 79.8667 99.9117L79.6186 99.9944L79.7013 100.242ZM131.804 79.815C132.217 80.0631 132.217 79.2361 131.804 79.4015V79.815ZM133.871 77.1685C133.871 77.2513 133.954 77.3339 134.119 77.3339C134.285 77.3339 134.45 77.2512 134.45 77.0858C134.368 77.0858 134.285 77.0858 134.202 77.0031C134.119 77.0858 133.954 77.0858 133.871 77.1685ZM147.186 60.8762C147.352 60.7935 147.434 60.7108 147.434 60.5454C147.352 60.6281 147.269 60.7108 147.186 60.8762Z" fill="white"/>
</g>
<path d="M40.0597 36.9917C39.0027 36.9917 38.1505 36.6624 37.503 36.0039C36.8611 35.3454 36.5402 34.424 36.5402 33.2397V26.4995C36.5402 25.0828 36.8196 23.9982 37.3785 23.2456C37.943 22.493 38.8588 22.1167 40.1261 22.1167C40.8178 22.1167 41.4321 22.244 41.9689 22.4985C42.5112 22.7531 42.9373 23.1349 43.2472 23.644C43.5571 24.1476 43.712 24.784 43.712 25.5532V28.0767H40.8068V25.9185C40.8068 25.4813 40.7514 25.188 40.6407 25.0386C40.5301 24.8836 40.3585 24.8062 40.1261 24.8062C39.8549 24.8062 39.6723 24.9058 39.5782 25.105C39.4842 25.2987 39.4371 25.5588 39.4371 25.8853V33.1982C39.4371 33.6022 39.4952 33.8872 39.6114 34.0532C39.7332 34.2192 39.9047 34.3022 40.1261 34.3022C40.3751 34.3022 40.5494 34.1999 40.649 33.9951C40.7542 33.7904 40.8068 33.5247 40.8068 33.1982V30.5669H43.7452V33.3311C43.7452 34.6149 43.4215 35.5474 42.774 36.1284C42.1266 36.7039 41.2218 36.9917 40.0597 36.9917ZM49.5711 36.9917C48.4034 36.9917 47.5097 36.6403 46.8899 35.9375C46.2756 35.2292 45.9685 34.2082 45.9685 32.8745V25.9351C45.9685 24.6844 46.2729 23.7354 46.8816 23.0879C47.4959 22.4404 48.3923 22.1167 49.5711 22.1167C50.7498 22.1167 51.6435 22.4404 52.2522 23.0879C52.8665 23.7354 53.1736 24.6844 53.1736 25.9351V32.8745C53.1736 34.2082 52.8637 35.2292 52.2439 35.9375C51.6296 36.6403 50.7387 36.9917 49.5711 36.9917ZM49.596 34.3022C50.0387 34.3022 50.26 33.8734 50.26 33.0156V25.8853C50.26 25.1659 50.0442 24.8062 49.6126 24.8062C49.1256 24.8062 48.8821 25.1742 48.8821 25.9102V33.0322C48.8821 33.486 48.9374 33.8125 49.0481 34.0117C49.1588 34.2054 49.3414 34.3022 49.596 34.3022ZM55.7123 36.8589V22.2495H58.7172L60.0619 29.2471V22.2495H62.8842V36.8589H60.0287L58.5678 29.5542V36.8589H55.7123ZM66.7925 36.8589V25.0552H65.0577V22.2495H71.4493V25.0552H69.7144V36.8589H66.7925ZM73.0085 36.8589L74.4196 22.2495H79.3752L80.7614 36.8589H77.9972L77.7897 34.5015H76.03L75.8473 36.8589H73.0085ZM76.2375 32.1689H77.5656L76.9264 24.7397H76.7936L76.2375 32.1689ZM86.4212 36.9917C85.3642 36.9917 84.512 36.6624 83.8646 36.0039C83.2226 35.3454 82.9017 34.424 82.9017 33.2397V26.4995C82.9017 25.0828 83.1811 23.9982 83.7401 23.2456C84.3045 22.493 85.2204 22.1167 86.4876 22.1167C87.1793 22.1167 87.7936 22.244 88.3304 22.4985C88.8727 22.7531 89.2988 23.1349 89.6087 23.644C89.9186 24.1476 90.0736 24.784 90.0736 25.5532V28.0767H87.1683V25.9185C87.1683 25.4813 87.1129 25.188 87.0023 25.0386C86.8916 24.8836 86.72 24.8062 86.4876 24.8062C86.2165 24.8062 86.0338 24.9058 85.9398 25.105C85.8457 25.2987 85.7987 25.5588 85.7987 25.8853V33.1982C85.7987 33.6022 85.8568 33.8872 85.973 34.0532C86.0947 34.2192 86.2663 34.3022 86.4876 34.3022C86.7366 34.3022 86.911 34.1999 87.0106 33.9951C87.1157 33.7904 87.1683 33.5247 87.1683 33.1982V30.5669H90.1068V33.3311C90.1068 34.6149 89.783 35.5474 89.1356 36.1284C88.4881 36.7039 87.5833 36.9917 86.4212 36.9917ZM93.6997 36.8589V25.0552H91.9648V22.2495H98.3564V25.0552H96.6215V36.8589H93.6997ZM109.253 36.9917C108.035 36.9917 107.139 36.6514 106.563 35.9707C105.988 35.2845 105.7 34.2773 105.7 32.9492V22.2495H108.539V32.833C108.539 33.0765 108.553 33.3117 108.58 33.5386C108.608 33.7599 108.672 33.9425 108.771 34.0864C108.871 34.2303 109.031 34.3022 109.253 34.3022C109.48 34.3022 109.643 34.2331 109.742 34.0947C109.842 33.9508 109.903 33.7655 109.925 33.5386C109.953 33.3117 109.967 33.0765 109.967 32.833V22.2495H112.805V32.9492C112.805 34.2773 112.518 35.2845 111.942 35.9707C111.367 36.6514 110.47 36.9917 109.253 36.9917ZM118.756 36.9917C117.422 36.9917 116.459 36.6597 115.867 35.9956C115.28 35.3315 114.987 34.2746 114.987 32.8247V31.397H117.876V33.2231C117.876 33.5607 117.926 33.8263 118.025 34.02C118.13 34.2082 118.31 34.3022 118.565 34.3022C118.83 34.3022 119.013 34.2248 119.113 34.0698C119.218 33.9149 119.27 33.6603 119.27 33.3062C119.27 32.8579 119.226 32.4844 119.138 32.1855C119.049 31.8812 118.894 31.5934 118.673 31.3223C118.457 31.0456 118.155 30.7246 117.768 30.3594L116.456 29.1143C115.477 28.1901 114.987 27.1331 114.987 25.9434C114.987 24.6982 115.275 23.7492 115.85 23.0962C116.432 22.4432 117.27 22.1167 118.366 22.1167C119.705 22.1167 120.654 22.4736 121.213 23.1875C121.777 23.9014 122.059 24.986 122.059 26.4414H119.088V25.437C119.088 25.2378 119.03 25.0828 118.913 24.9722C118.803 24.8615 118.651 24.8062 118.457 24.8062C118.224 24.8062 118.053 24.8726 117.942 25.0054C117.837 25.1326 117.785 25.2987 117.785 25.5034C117.785 25.7082 117.84 25.9295 117.951 26.1675C118.061 26.4054 118.28 26.6794 118.606 26.9893L120.291 28.6079C120.629 28.9289 120.939 29.2692 121.221 29.6289C121.503 29.9831 121.73 30.3981 121.902 30.874C122.073 31.3444 122.159 31.9199 122.159 32.6006C122.159 33.973 121.905 35.0493 121.395 35.8296C120.892 36.6043 120.012 36.9917 118.756 36.9917Z" fill="white"/>
</g>
<defs>
<clipPath id="clip0_82199_712">
<rect width="155.828" height="59" fill="white" transform="translate(0.75 0.858887)"/>
</clipPath>
<clipPath id="clip1_82199_712">
<rect width="153.828" height="140.594" fill="white" transform="translate(-3.25 -39.938)"/>
</clipPath>
</defs>
</svg>
