<svg width="21" height="19" viewBox="0 0 21 19" fill="none" xmlns="http://www.w3.org/2000/svg">
<path d="M11.2884 1.13686C11.3404 1.07886 11.3214 0.906863 11.3294 0.859863C11.2374 1.02986 11.2914 1.18586 11.2884 1.13686Z" fill="#FBED81"/>
<path d="M10.4995 2.75171L10.4365 3.13471L10.5065 2.85371L10.4995 2.75171Z" fill="#FBED81"/>
<path d="M10.1839 3.47132L10.2339 3.50732L10.1969 3.15332C10.0359 3.46532 9.91091 3.97632 9.75391 4.08532C9.98791 4.26532 9.99491 3.58432 10.1839 3.47132Z" fill="#FBED81"/>
<path d="M9.03453 4.05322C9.02145 4.05652 9.00802 4.0582 8.99453 4.05822C8.9648 4.10642 8.93137 4.15222 8.89453 4.19522C9.01153 4.25222 8.87253 4.44522 9.03453 4.05322Z" fill="#FBED81"/>
<path d="M8.9927 4.05837C8.8627 4.06837 9.0807 3.90237 8.9927 4.05837V4.05837Z" fill="#FBED81"/>
<path d="M8.62448 4.80276L8.65948 4.51976C8.58148 4.50376 8.45948 4.67176 8.45948 4.56476C8.38048 4.82076 8.46648 4.82776 8.62448 4.80276Z" fill="#FBED81"/>
<path d="M8.71782 5.02415C8.68482 5.01915 8.65982 5.03815 8.69782 5.15715L8.71782 5.02415Z" fill="#FBED81"/>
<path d="M8.74577 4.90079C8.80777 4.98879 8.76177 4.87979 8.76577 4.73779L8.71777 5.02479C8.76977 5.03379 8.85277 5.10979 8.74577 4.90079Z" fill="#FBED81"/>
<path d="M9.06307 4.77589C9.23907 4.38689 9.06307 4.24789 8.87207 4.65289C8.98707 4.60189 9.09407 4.50389 9.06307 4.77589Z" fill="#FBED81"/>
<path d="M9.89963 4.44817L10.0176 4.40917V4.20117C10.0196 4.30817 9.84063 4.36517 9.89963 4.44817Z" fill="#FBED81"/>
<path d="M8.0791 6.01221V6.29121C8.1851 6.10621 8.1551 6.04321 8.0791 6.01221Z" fill="#FBED81"/>
<path d="M8.95676 5.4452C8.95142 5.2772 8.95142 5.1052 8.95676 4.9292C8.94076 5.1292 8.93076 5.3212 8.92676 5.5102L8.95676 5.4452Z" fill="#FBED81"/>
<path d="M8.55556 5.63257L8.39355 5.91157L8.46856 5.81157L8.55556 5.63257Z" fill="#FBED81"/>
<path d="M7.95994 5.90954C7.93803 5.92811 7.91171 5.94073 7.8835 5.94616C7.8553 5.95159 7.82617 5.94965 7.79894 5.94054C7.85394 5.99154 7.99894 5.97654 8.08194 6.01254L8.08894 5.82154C8.05594 5.84054 8.01694 5.87054 7.97694 5.89754C8.01494 5.76154 7.83294 5.69754 7.90394 5.60254C7.77084 5.66924 7.66027 5.77355 7.58594 5.90254C7.64166 5.86572 7.70725 5.84668 7.77402 5.84793C7.8408 5.84918 7.90563 5.87066 7.95994 5.90954Z" fill="#FBED81"/>
<path d="M7.43359 6.08134C7.49078 6.02753 7.54176 5.96749 7.58559 5.90234C7.52225 5.94997 7.47032 6.01112 7.43359 6.08134Z" fill="#FBED81"/>
<path d="M7.59766 6.70752L7.82066 6.71552L7.86466 6.63352C7.81748 6.62348 7.76858 6.62497 7.7221 6.63785C7.67562 6.65073 7.63293 6.67463 7.59766 6.70752Z" fill="#FBED81"/>
<path d="M7.81858 6.71533L7.76758 6.80533H7.77358L7.82558 6.71933L7.81858 6.71533Z" fill="#FBED81"/>
<path d="M7.87526 6.61255L7.86426 6.63355C7.88626 6.63455 7.89426 6.63255 7.87526 6.61255Z" fill="#FBED81"/>
<path d="M8.53346 5.85938C8.53813 5.96455 8.55457 6.06886 8.58246 6.17037C8.5873 6.18114 8.59299 6.19151 8.59946 6.20138L8.28146 6.43237C8.23246 6.41437 8.16146 6.40538 8.14546 6.32538V6.52537L7.77246 6.79637V6.80237L8.14946 6.52837V6.62838L8.29846 6.43537L8.28446 6.43038L8.60146 6.20038C8.63646 6.25338 8.69546 6.27337 8.80146 6.21937C8.72946 6.05937 8.57746 6.14037 8.53346 5.85938Z" fill="#FBED81"/>
<path d="M8.15363 6.76845V6.63245L8.09863 6.70445L8.15363 6.76845Z" fill="#FBED81"/>
<path d="M7.90218 6.38296C7.91018 6.31796 7.94518 6.19596 7.81818 6.22296C7.74481 6.30605 7.64402 6.36 7.53418 6.37496C7.6556 6.39761 7.77989 6.40031 7.90218 6.38296Z" fill="#FBED81"/>
<path d="M8.26898 6.20996L8.25098 6.22396C8.26598 6.23896 8.27598 6.24296 8.26898 6.20996Z" fill="#FBED81"/>
<path d="M6.43848 6.52786L6.46148 6.56186V6.52686L6.43848 6.52786Z" fill="#FBED81"/>
<path d="M7.92705 6.41287C8.02705 6.43887 8.06905 6.38187 8.11105 6.31287C8.04446 6.34452 7.97378 6.36674 7.90105 6.37887C7.89905 6.40887 7.90005 6.42787 7.92705 6.41287Z" fill="#FBED81"/>
<path d="M7.1416 6.21992C7.19533 6.25522 7.25265 6.28471 7.3126 6.30792C7.2586 6.25092 7.1506 6.16492 7.1416 6.21992Z" fill="#FBED81"/>
<path d="M8.21181 6.17308L8.22381 6.16208C8.18881 6.12308 8.19481 6.14408 8.21181 6.17308Z" fill="#FBED81"/>
<path d="M8.21231 6.17285C8.17201 6.21413 8.13828 6.26135 8.1123 6.31285C8.16299 6.2906 8.20988 6.26057 8.2513 6.22385C8.23625 6.20853 8.22315 6.1914 8.21231 6.17285Z" fill="#FBED81"/>
<path d="M6.85696 6.52481L6.93796 6.48881C6.81134 6.44919 6.69748 6.37673 6.60796 6.27881C6.47996 6.39081 6.46096 6.46381 6.45996 6.52781L6.88096 6.49281L6.85696 6.52481Z" fill="#FBED81"/>
<path d="M7.31945 6.43294C7.28245 6.64594 7.09145 6.76194 7.24845 6.96294C7.49545 6.91294 7.39845 6.76794 7.53445 6.66294C7.13945 6.77194 7.63445 6.53294 7.32645 6.46294C7.39149 6.42411 7.46192 6.39513 7.53545 6.37694C7.45994 6.36351 7.38593 6.34275 7.31445 6.31494L7.32545 6.32594C7.34645 6.34894 7.35445 6.36394 7.33345 6.35194C7.33345 6.35194 7.32745 6.35194 7.32545 6.35694C7.3264 6.38346 7.32405 6.41 7.31845 6.43594C7.19645 6.41094 7.29245 6.38694 7.32545 6.35694V6.32594L6.93945 6.49494C7.06908 6.50146 7.19862 6.48033 7.31945 6.43294Z" fill="#FBED81"/>
<path d="M9.06163 6.67367C9.04516 6.67425 9.02897 6.66933 9.01562 6.65967C9.02462 6.69767 9.03463 6.71567 9.06163 6.67367Z" fill="#FBED81"/>
<path d="M8.40445 6.71239L8.35645 6.70239C8.35845 6.71139 8.37745 6.71339 8.40445 6.71239Z" fill="#FBED81"/>
<path d="M8.4043 6.71172C8.56022 6.75031 8.72079 6.7668 8.8813 6.76072C8.8703 6.71872 8.8123 6.65272 8.8753 6.57372C8.9653 6.52872 8.9573 6.62772 9.0163 6.65972C8.9963 6.57872 8.9883 6.38872 8.8163 6.50572L8.8263 6.54772C8.70111 6.63598 8.55623 6.69229 8.4043 6.71172Z" fill="#FBED81"/>
<path d="M8.30635 6.79834L7.98535 6.94634L8.18535 7.09734L8.16135 6.99734C8.35435 7.00634 8.29435 6.88234 8.30635 6.79834Z" fill="#FBED81"/>
<path d="M6.39707 6.21191L6.24707 6.54291L6.38307 6.43291L6.39707 6.21191Z" fill="#FBED81"/>
<path d="M5.94375 6.33398L5.84375 6.46298L5.95375 6.52198L5.94375 6.33398Z" fill="#FBED81"/>
<path d="M5.45118 14.2802L5.66218 14.2712C5.65311 14.229 5.65486 14.1853 5.66728 14.144C5.6797 14.1027 5.70237 14.0653 5.73318 14.0352C5.53518 14.1442 5.23918 14.2622 5.45118 14.2802Z" fill="#FBED81"/>
<path d="M3.52148 10.0267C3.54239 10.1384 3.58933 10.2436 3.65848 10.3337C3.63248 10.1437 3.66948 9.93175 3.52148 10.0267Z" fill="#FBED81"/>
<path d="M14.8604 18.1052C14.8871 18.107 14.9138 18.1013 14.9375 18.0887C14.9611 18.0762 14.9808 18.0573 14.9944 18.0342C14.9224 18.0362 14.8724 18.0542 14.8604 18.1052Z" fill="#FBED81"/>
<path d="M3.9172 10.5854C3.9172 10.5554 3.9072 10.5334 3.9042 10.5044C3.80906 10.4691 3.72442 10.4103 3.6582 10.3334C3.6772 10.4744 3.7292 10.6024 3.9172 10.5854Z" fill="#FBED81"/>
<path d="M12.1647 2.57808C12.1409 2.52173 12.1035 2.47222 12.0557 2.43408C12.0959 2.479 12.1324 2.52716 12.1647 2.57808Z" fill="#FBED81"/>
<path d="M4.19043 6.68259C4.20143 6.65759 4.28043 6.65559 4.19043 6.68259V6.68259Z" fill="#FBED81"/>
<path d="M4.34282 6.75943C4.30292 6.73872 4.26009 6.72422 4.21582 6.71643C4.25603 6.7364 4.29875 6.75086 4.34282 6.75943Z" fill="#FBED81"/>
<path d="M4.30957 6.66646L4.39357 6.67446C4.39957 6.63846 4.38657 6.61546 4.30957 6.66646Z" fill="#FBED81"/>
<path d="M4.06348 6.71748C4.1137 6.70798 4.16525 6.70798 4.21548 6.71748C4.19548 6.70648 4.18648 6.69548 4.19048 6.68848L4.06348 6.71748Z" fill="#FBED81"/>
<path d="M19.669 8.59009C19.7437 8.61181 19.8231 8.61181 19.8978 8.59009L20.656 8.39031L19.5482 7.51327C19.1695 7.2136 18.2495 7.29052 18.1286 7.14368C18.0073 7.21011 17.8733 7.24975 17.7354 7.25992C17.5975 7.27008 17.4591 7.25054 17.3294 7.20261C17.3943 7.26954 17.3933 7.5812 17.1456 7.50228C17.3304 6.88596 16.721 7.16166 16.5821 6.67819C16.721 7.00583 15.8499 6.64722 16.0756 7.11671C15.8758 7.0348 16.0976 6.87897 15.9588 6.70716C15.4203 6.87797 14.8729 6.38751 14.2385 6.37952C14.2255 6.42946 14.2475 6.50238 14.2385 6.5793C14.2325 6.5793 14.2265 6.5793 14.2195 6.57031C14.0322 5.87126 13.7116 5.21496 13.2755 4.63744C12.8303 3.96877 12.4872 3.23754 12.2575 2.46782C12.3244 2.78547 12.2455 2.69258 12.1646 2.5767C12.2065 2.69357 12.1126 2.77648 12.0946 2.90035C12.0227 2.63397 11.9415 2.36993 11.8509 2.10822C11.751 2.33097 11.5132 1.61676 11.4673 1.86748L11.5612 1.96737C11.5061 2.20699 11.5061 2.45596 11.5612 2.69557L11.3354 2.23708L8.82392 7.32548L7.13261 7.57121C7.14408 7.56998 7.15472 7.56466 7.16258 7.55622L7.13961 7.45633C7.03271 7.47831 6.97078 7.55622 7.03971 7.58919L6.74001 7.63314C6.89685 7.44834 6.68506 6.87897 6.46628 6.56931C6.47228 6.65122 6.48326 6.72614 6.29246 6.86898C6.37937 6.95988 6.78396 7.04079 6.63511 7.23458C6.37637 7.37043 6.40135 7.20161 6.25449 7.1217C6.38436 7.31249 6.05469 7.47032 6.05469 7.73603L4.39436 7.97776C4.39825 7.96291 4.39828 7.94731 4.39443 7.93245C4.39058 7.91758 4.38299 7.90395 4.37238 7.89285L4.22453 7.95079C4.0537 7.76799 4.47228 7.62715 4.26449 7.56022C4.4503 7.38641 4.64811 7.1277 4.9548 7.20062L5.0547 7.48131C5.0415 7.45696 5.02286 7.43599 5.00023 7.42004C4.9776 7.40408 4.95159 7.39356 4.92423 7.38931C4.89686 7.38505 4.86889 7.38718 4.84248 7.39551C4.81607 7.40385 4.79194 7.41817 4.77198 7.43736C4.87188 7.29152 5.27148 7.763 5.3514 7.36643L5.11863 7.19662C5.30445 7.02081 5.51823 6.67819 5.78696 6.73213C5.62812 6.46443 5.73202 6.77309 5.50125 6.46642C5.72003 6.85799 4.84091 6.54534 5.15859 6.9429C4.91484 6.58329 4.80994 6.82603 4.51724 6.53235C4.53822 6.62625 4.63012 6.70117 4.40735 6.68618C4.39957 6.71783 4.38782 6.74838 4.37238 6.77708H4.3564L4.37038 6.78707C4.36239 6.80305 4.36239 6.80505 4.37038 6.78707C4.42517 6.81698 4.4705 6.86161 4.50125 6.91593C4.42533 7.14967 4.08067 7.19262 3.98177 7.32348C3.84691 7.29651 4.01974 7.20661 3.93482 7.11471L3.78597 7.3095C3.73802 7.10172 3.39436 7.00983 3.67808 6.84001L3.40535 6.86998C3.28662 6.80369 3.14888 6.77974 3.01474 6.80205L0.227539 7.41738L2.2575 9.13149C2.29592 9.16527 2.34235 9.18866 2.39237 9.19942C2.45331 9.32328 2.79197 9.25835 2.59217 9.29931L2.99177 9.50508L2.9568 9.54603C3.24251 9.86169 3.82993 9.90364 3.90885 10.518C4.08325 10.5743 4.23219 10.6903 4.32942 10.8456L4.22953 11.0104C4.40535 11.0923 4.49526 11.5279 4.68607 11.4449C4.48627 11.9394 5.2485 12.1442 5.41833 12.4329L5.59516 12.269C5.70653 12.3811 5.83671 12.4727 5.97977 12.5397C5.82492 12.9033 6.27248 13.3878 5.92882 13.6725C5.95432 13.7108 5.96398 13.7575 5.95579 13.8027C5.94759 13.848 5.92217 13.8883 5.88486 13.9152C5.88538 13.9057 5.88294 13.8963 5.87787 13.8883C5.87317 13.9015 5.86982 13.9153 5.86788 13.9292C5.82492 13.9672 5.77498 14.0051 5.73202 14.0491C5.78174 14.0237 5.8267 13.9899 5.86488 13.9492C5.85594 14.058 5.86609 14.1675 5.89486 14.2728L5.66109 14.2828V14.3108C5.56119 14.4107 5.752 14.4197 5.93282 14.3887C5.95891 14.453 5.99611 14.5121 6.04271 14.5635C5.66309 14.5935 6.11364 14.8862 5.70405 14.9451C5.87987 15.055 5.747 15.5444 6.13561 15.6763C6.08267 15.6763 6.0517 15.7013 6.05969 15.6383C5.99176 15.7592 5.92482 15.8791 6.01773 16.0129H5.71803L6.05569 16.3585C5.85589 16.4984 5.73801 16.5513 5.5472 16.3446C5.81693 16.81 5.61813 16.6972 5.89585 17.1007L5.71304 17.0518C5.69905 17.1766 5.91284 17.4174 5.747 17.4653C5.69656 17.4941 5.65375 17.5345 5.62213 17.5832L5.07068 18.3823L6.62213 18.3054C7.07068 18.2834 7.80294 17.6701 8.49924 17.6331C8.11762 17.2076 8.91083 17.6971 8.737 17.3035C8.8369 17.4034 8.95878 17.4194 8.90783 17.5742C9.17357 17.2895 9.49325 17.5013 9.55019 17.0628C9.65009 17.1627 9.57017 17.2685 9.6391 17.3205C9.65209 17.2815 9.68905 17.1647 9.75998 17.2206C9.83091 17.2765 9.75998 17.3435 9.738 17.4204C10.0607 17.2256 9.90583 16.851 9.75398 16.5024C10.0067 16.5723 10.0787 16.5024 10.0847 16.2217C10.2015 16.3006 10.3594 16.3635 10.1726 16.5124C10.2974 16.4674 10.9718 16.2996 10.8379 16.0249C10.9098 16.0739 11.0107 15.959 11.0247 15.912C11.1681 15.8561 11.3085 15.7928 11.4453 15.7222C11.728 16.0719 11.6741 15.6813 11.9808 16.1628L12.0617 15.947C12.3334 15.5364 12.3414 16.4205 12.699 16.3975L12.6621 16.2307C12.8878 16.1608 12.762 17.0388 12.8858 17.1706C12.8988 17.2256 12.8029 17.2046 12.743 17.2086C12.9977 17.6691 12.9318 16.9709 13.2545 17.0628C13.2335 17.2336 12.9947 17.3894 13.1766 17.5183C13.2135 17.6841 13.9867 17.3524 14.1096 17.767C14.1096 17.6261 14.1096 17.4853 14.2864 17.4743C14.5132 17.5442 14.6271 18.1825 14.9957 17.9348C15.0056 17.9699 15.0028 18.0074 14.9877 18.0407C15.1925 18.0337 15.5791 18.1616 15.7729 18.0237C15.7 18.2794 15.8019 18.3853 15.9588 18.4363L17.678 18.9906L17.1665 17.5592C17.0547 17.2456 16.6251 16.89 17.1046 16.81L16.9737 16.2756H17.0497C17.052 16.1543 17.014 16.0357 16.9417 15.9383C16.8694 15.8408 16.7669 15.7701 16.6501 15.7372C16.685 15.6483 16.762 15.6963 16.8009 15.6963C16.8589 15.1668 16.8199 15.1209 16.3903 14.7583L16.6151 14.6744C16.4603 14.5825 16.8539 13.8813 16.4982 13.4328C16.5394 13.4308 16.5799 13.4439 16.6121 13.4697C16.2764 13.0042 16.8938 12.1891 16.3414 12.0033C16.4672 11.9094 16.5871 11.8036 16.686 11.9134C17.3514 11.2342 18.1845 10.7647 18.8379 10.1574L18.5222 9.98056L18.758 9.78078C18.8728 9.78078 19.0267 9.89865 18.8579 10.0435C19.0786 10.1034 19.0087 9.6659 18.9578 9.60697C19.3663 9.40719 19.1196 10.0155 19.2205 9.92861L19.3314 9.78377H19.2734C19.2794 9.58399 19.1835 9.46313 19.3853 9.28432C19.5552 9.2164 19.5971 9.37822 19.6541 9.34126C19.671 9.35924 19.695 9.35225 19.734 9.27733L20.0337 9.02561L19.734 8.9377C19.7719 8.71595 20.0157 8.68698 19.669 8.59009ZM6.42532 13.0102L6.59216 12.9623L6.46728 12.6346C6.62612 12.7425 6.85589 12.9263 7.08966 13.1261L7.00574 13.6176C6.76095 13.4713 6.56037 13.2614 6.42532 13.0102ZM6.29645 11.3121C6.3073 11.2758 6.32493 11.2419 6.3484 11.2122L6.58616 11.4449L6.33841 11.7087L6.61913 11.4779L6.85289 11.7047C6.72166 11.8473 6.57527 11.9753 6.41633 12.0862L6.37337 11.9524L6.3444 12.0063C6.29566 11.7773 6.27951 11.5426 6.29645 11.3091V11.3121ZM14.2345 6.59628C14.2294 6.62028 14.2196 6.64304 14.2058 6.66326C14.1919 6.68349 14.1741 6.70078 14.1536 6.71415L13.9748 6.40749L14.2345 6.59628ZM6.70504 7.63214L6.35539 7.68308C6.3746 7.65647 6.3989 7.63393 6.42689 7.61678C6.45488 7.59964 6.486 7.58822 6.51844 7.5832C6.55087 7.57818 6.58399 7.57966 6.61585 7.58755C6.64771 7.59543 6.67769 7.60957 6.70404 7.62914L6.70504 7.63214ZM6.28346 7.68009V7.69407H6.25949L6.28346 7.68009ZM3.20655 7.02081L3.20056 7.0328C3.03672 6.96388 3.09466 6.99185 3.20555 7.01882L3.20655 7.02081ZM3.59416 9.35225C3.28247 9.18643 3.67009 9.06357 3.58817 9.06357C3.22553 8.62305 2.81295 9.06357 2.60216 8.7579L1.53223 7.19662L3.07968 7.28752C3.13347 7.29218 3.18631 7.30463 3.23652 7.32448C3.48128 7.54723 3.31844 7.82393 3.39137 8.00173C3.33034 8.03494 3.26067 8.04887 3.19157 8.04169L3.02074 8.02371L3.13662 8.2115C3.22154 8.34835 3.21155 8.52216 3.31244 8.61106L3.23153 8.36334C3.3544 8.36334 3.53123 8.44624 3.55121 8.56911C3.55307 8.52941 3.54482 8.48988 3.52723 8.45424L4.4573 9.36024C4.17675 9.45687 3.8714 9.45334 3.59316 9.35025L3.59416 9.35225ZM5.3544 10.528C5.40722 10.4784 5.44585 10.4156 5.46628 10.3462L5.66608 10.5379C5.56173 10.5591 5.45384 10.555 5.3514 10.526L5.3544 10.528ZM6.51923 16.4584L6.48027 16.6882L6.10265 16.3885C6.23811 16.427 6.37756 16.4498 6.51823 16.4564L6.51923 16.4584ZM9.74699 16.3026C9.68405 16.2796 9.66907 16.1697 9.66407 16.0289C9.65319 16.0617 9.64418 16.095 9.6371 16.1288C9.60779 16.1218 9.58044 16.1083 9.55708 16.0893C9.53373 16.0703 9.51498 16.0462 9.50224 16.0189L9.66108 15.935V16.0349L9.70104 15.916L9.77297 15.8781C9.84622 15.9202 9.92195 15.9579 9.99974 15.9909L9.74699 16.3026ZM16.9518 16.5573C16.9078 16.5917 16.8712 16.6345 16.8439 16.6832L16.8299 16.6452L16.9518 16.5573ZM15.9528 12.6786L15.9358 12.6476L16.0557 12.2361C15.6641 12.5258 15.8479 11.9194 15.6061 11.9564C15.706 11.7876 16.1386 11.7996 16.0057 11.9933L15.9488 11.9883C15.9657 12.0251 15.9934 12.0559 16.0281 12.0766C16.0629 12.0973 16.1032 12.1069 16.1436 12.1042L15.9528 12.6786ZM19.5422 9.25336C19.5951 9.10852 19.6091 9.17944 19.6281 9.25336H19.5422Z" fill="#FBED81"/>
<path d="M5.13045 6.4458L4.93945 6.5348C4.97289 6.52706 5.00769 6.52746 5.04093 6.53599C5.07418 6.54452 5.10488 6.56092 5.13045 6.5838C5.11845 6.5278 5.06845 6.4588 5.13045 6.4458Z" fill="#FBED81"/>
<path d="M5.6948 7.22604C5.6948 6.95304 5.5608 7.06204 5.4248 7.17204C5.4688 7.36104 5.5848 7.27804 5.7198 7.22204C5.71176 7.2248 5.70331 7.22615 5.6948 7.22604Z" fill="#FBED81"/>
<path d="M5.87998 7.18793C5.87998 7.07893 5.82398 7.17293 5.75098 7.21093C5.79191 7.19439 5.83585 7.18656 5.87998 7.18793Z" fill="#FBED81"/>
<path d="M3.90952 6.88757C3.98352 6.92657 3.91552 6.63757 3.96452 6.70957C4.00352 6.45557 3.56452 7.06857 3.90952 6.88757Z" fill="#FBED81"/>
<path d="M5.63014 7.78564L5.54514 7.55664L5.49414 7.75664L5.63014 7.78564Z" fill="#FBED81"/>
<path d="M4.49916 7.77231L4.73316 7.80531C4.72416 7.76631 4.74916 7.73931 4.78216 7.71631C4.64216 7.72331 4.48316 7.70331 4.49916 7.77231Z" fill="#FBED81"/>
<path d="M4.78027 7.71737C4.84504 7.71937 4.90796 7.69564 4.95527 7.65137C4.89341 7.66255 4.83411 7.68491 4.78027 7.71737Z" fill="#FBED81"/>
<path d="M4.03008 9.02088C3.94808 9.02088 3.86008 8.97888 3.83008 9.06188L4.05508 9.18588C4.13208 9.14488 4.11808 9.06188 4.03008 9.02088Z" fill="#FBED81"/>
<path d="M11.6589 1.53958L11.5439 1.26758L11.6119 1.54058L11.6589 1.53958Z" fill="#FBED81"/>
<path d="M11.4201 1.57166L11.4001 1.22266L11.3301 1.40066C11.3787 1.44569 11.4105 1.50604 11.4201 1.57166Z" fill="#FBED81"/>
</svg>
